<svg width="20" height="20" viewBox="0 0 20 20" fill="none" xmlns="http://www.w3.org/2000/svg">
<path d="M5.59158 1.15331L5.59132 1.1534C4.79144 1.40879 4.15357 2.10457 3.94512 3.01102L3.94508 3.01118C3.37656 5.4808 4.03624 8.6067 6.13083 12.4522C8.22673 16.2996 10.4361 18.4425 12.6985 19.1479L12.6989 19.1481C13.4986 19.398 14.3726 19.182 14.9956 18.5569L5.59158 1.15331ZM5.59158 1.15331L6.66721 0.809431C6.66729 0.809405 6.66737 0.809379 6.66745 0.809354C6.6675 0.80934 6.66754 0.809326 6.66758 0.809312C7.2821 0.613414 7.97647 0.918655 8.26771 1.60474C8.26774 1.6048 8.26776 1.60486 8.26779 1.60491L9.12759 3.63244M5.59158 1.15331L9.12759 3.63244M9.12759 3.63244C9.38327 4.2361 9.23442 4.93945 8.78797 5.36386L9.12759 3.63244ZM7.84437 11.2574C7.19261 10.136 6.79309 8.97798 6.66359 7.78701L6.62342 7.41761L6.89297 7.16186L8.78763 5.36418L7.84437 11.2574ZM7.84437 11.2574C8.46942 12.3516 9.30749 13.3093 10.3091 14.074L10.6249 14.3152L11.0017 14.1893L13.2771 13.4295L7.84437 11.2574ZM15.8126 17.7359L14.9959 18.5566L13.2777 13.4293C13.8064 13.2536 14.4018 13.4483 14.7499 13.9605L14.7503 13.9612L15.9831 15.7708C16.399 16.3822 16.3181 17.2284 15.8128 17.7356L15.8126 17.7359Z" stroke="#1C48A0" stroke-width="1.5"/>
</svg>
