<svg width="14" height="8" viewBox="0 0 14 8" fill="none" xmlns="http://www.w3.org/2000/svg">
<path fill-rule="evenodd" clip-rule="evenodd" d="M13.6047 7.44906C13.8667 7.32676 13.998 7.12715 14 6.84797C14.0009 6.71756 13.985 6.63747 13.9405 6.54719C13.8934 6.45181 13.1597 5.74186 10.6765 3.38898C8.91476 1.71965 7.42461 0.320604 7.36508 0.279998C7.16794 0.145549 6.86185 0.145549 6.6647 0.279998C6.60517 0.320604 5.11502 1.71965 3.35326 3.38898C0.870122 5.74186 0.136407 6.45181 0.0893212 6.54718C0.00704391 6.71382 0.00723557 6.9802 0.0897322 7.13767C0.263775 7.4699 0.690583 7.60014 1.00219 7.41611C1.06216 7.3807 2.43563 6.09711 4.05438 4.56372C5.67311 3.03031 7.00535 1.7757 7.01489 1.7757C7.02444 1.7757 8.35668 3.03031 9.9754 4.56372C11.5941 6.09711 12.9687 7.38133 13.03 7.41751C13.1897 7.51182 13.4408 7.5256 13.6047 7.44906Z" fill="#333333"/>
</svg>
