<svg width="16" height="20" viewBox="0 0 16 20" fill="none" xmlns="http://www.w3.org/2000/svg">
<path d="M7.9993 2.61569C6.71872 2.61712 5.49097 3.12639 4.58536 4.0318C3.68047 4.9365 3.17102 6.16289 3.1685 7.44237C3.1691 7.4531 3.16905 7.46385 3.16836 7.47458C3.16578 7.61699 3.17259 10.594 7.99935 17.1091C12.931 10.4595 12.8312 7.49942 12.8304 7.47432L12.8304 7.47416L7.9993 2.61569ZM7.9993 2.61569C9.27751 2.6171 10.5032 3.12448 11.4084 4.02693C12.3126 4.9284 12.8237 6.15083 12.8301 7.42754L7.9993 2.61569ZM7.99975 18.2081L7.99975 18.2084L8.0076 18.2078L8.01932 18.2068C8.08253 18.203 8.14402 18.1846 8.19896 18.1531C8.25334 18.1219 8.29982 18.0786 8.33486 18.0267C13.5842 11.0862 13.6622 7.83289 13.6507 7.45147L13.6507 7.44542L13.6506 7.4441C13.6311 5.95818 13.0274 4.53968 11.9701 3.4954C10.9129 2.45113 9.48699 1.86503 8.00094 1.86387C6.51489 1.86271 5.08812 2.44659 4.02922 3.48922C2.97062 4.53154 2.36476 5.94859 2.34258 7.43401C2.33048 7.73724 2.31499 10.9621 7.65854 18.0291C7.69149 18.0773 7.73448 18.1178 7.78454 18.1478C7.81085 18.1645 7.83926 18.1777 7.86904 18.187C7.91116 18.2012 7.95531 18.2083 7.99975 18.2081Z" fill="#333333" stroke="#333333" stroke-width="0.2"/>
<path d="M11.5115 7.27126V7.27116C11.5115 6.57684 11.3056 5.8981 10.9199 5.32078C10.5341 4.74345 9.98589 4.29346 9.34444 4.0277C8.70299 3.76195 7.99714 3.69236 7.31614 3.82773C6.63514 3.96311 6.00957 4.29737 5.51853 4.78825C5.02749 5.27914 4.69303 5.9046 4.55744 6.58556C4.42185 7.26651 4.49122 7.97239 4.75677 8.61392C5.02233 9.25546 5.47214 9.80385 6.04934 10.1898C6.62655 10.5757 7.30522 10.7818 7.99954 10.782H7.99964C8.93066 10.7814 9.8234 10.4114 10.4818 9.75313C11.1403 9.0949 11.5106 8.20228 11.5115 7.27126Z" fill="#333333" stroke="#333333" stroke-width="0.2"/>
</svg>
