<svg width="20" height="19" viewBox="0 0 20 19" fill="none" xmlns="http://www.w3.org/2000/svg">
<g clip-path="url(#clip0_1917_79247)">
<path d="M18.645 0.855038L18.6449 0.854973C18.3049 0.515009 17.7537 0.515009 17.4137 0.854973L17.4136 0.854995L2.35485 15.9138L2.04592 16.2227L2.38084 16.5032C2.54927 16.6443 2.61178 16.6905 2.65156 16.7177C2.66195 16.7279 2.68044 16.7463 2.71695 16.7828L2.71701 16.7829C2.75344 16.8193 2.77185 16.8378 2.78199 16.8481C2.80926 16.888 2.85547 16.9506 2.99656 17.1191L3.27711 17.454L3.58604 17.1451L18.6449 2.08619L18.645 2.08614C18.9848 1.74617 18.9848 1.19501 18.645 0.855038Z" fill="#333333" stroke="#333333" stroke-width="0.8"/>
<path d="M5.39396 1.42657V1.42668L5.39396 1.42668L5.39395 1.42742L5.39395 1.43056L5.39395 1.44498L5.39395 1.51853L5.39405 1.94131L5.39418 2.34118H5.79405H17.1588V13.7059V14.1059H17.5588H17.5611H17.5634H17.5656H17.5679H17.5702H17.5724H17.5747H17.5769H17.5791H17.5813H17.5835H17.5857H17.5878H17.59H17.5921H17.5942H17.5964H17.5985H17.6006H17.6026H17.6047H17.6068H17.6088H17.6108H17.6129H17.6149H17.6169H17.6189H17.6208H17.6228H17.6248H17.6267H17.6286H17.6306H17.6325H17.6344H17.6363H17.6381H17.64H17.6419H17.6437H17.6455H17.6474H17.6492H17.651H17.6528H17.6546H17.6563H17.6581H17.6598H17.6616H17.6633H17.665H17.6667H17.6684H17.6701H17.6718H17.6735H17.6751H17.6768H17.6784H17.6801H17.6817H17.6833H17.6849H17.6865H17.688H17.6896H17.6912H17.6927H17.6943H17.6958H17.6973H17.6988H17.7003H17.7018H17.7033H17.7048H17.7063H17.7077H17.7092H17.7106H17.712H17.7135H17.7149H17.7163H17.7177H17.7191H17.7204H17.7218H17.7232H17.7245H17.7259H17.7272H17.7285H17.7298H17.7312H17.7325H17.7338H17.735H17.7363H17.7376H17.7388H17.7401H17.7413H17.7426H17.7438H17.745H17.7462H17.7474H17.7486H17.7498H17.751H17.7522H17.7533H17.7545H17.7556H17.7568H17.7579H17.7591H17.7602H17.7613H17.7624H17.7635H17.7646H17.7657H17.7668H17.7678H17.7689H17.7699H17.771H17.772H17.7731H17.7741H17.7751H17.7761H17.7771H17.7781H17.7791H17.7801H17.7811H17.7821H17.7831H17.784H17.785H17.7859H17.7869H17.7878H17.7887H17.7897H17.7906H17.7915H17.7924H17.7933H17.7942H17.7951H17.796H17.7969H17.7977H17.7986H17.7995H17.8003H17.8012H17.802H17.8029H17.8037H17.8045H17.8053H17.8062H17.807H17.8078H17.8086H17.8094H17.8102H17.8109H17.8117H17.8125H17.8133H17.814H17.8148H17.8156H17.8163H17.8171H17.8178H17.8185H17.8193H17.82H17.8207H17.8215H17.8222H17.8229H17.8236H17.8243H17.825H17.8257H17.8264H17.8271H17.8277H17.8284H17.8291H17.8298H17.8304H17.8311H17.8318H17.8324H17.8331H17.8337H17.8343H17.835H17.8356H17.8363H17.8369H17.8375H17.8381H17.8388H17.8394H17.84H17.8406H17.8412H17.8418H17.8424H17.843H17.8436H17.8442H17.8448H17.8454H17.8459H17.8465H17.8471H17.8477H17.8482H17.8488H17.8494H17.8499H17.8505H17.8511H17.8516H17.8522H17.8527H17.8533H17.8538H17.8544H17.8549H17.8555H17.856H17.8565H17.8571H17.8576H17.8581H17.8587H17.8592H17.8597H17.8602H17.8608H17.8613H17.8618H17.8623H17.8628H17.8633H17.8639H17.8644H17.8649H17.8654H17.8659H17.8664H17.8669H17.8674H17.8679H17.8684H17.8689H17.8694H17.8699H17.8704H17.8709H17.8714H17.8719H17.8724H17.8729H17.8734H17.8739H17.8744H17.8749H17.8754H17.8758H17.8763H17.8768H17.8773H17.8778H17.8783H17.8788H17.8793H17.8798H17.8803H17.8808H17.8812H17.8817H17.8822H17.8827H17.8832H17.8837H17.8842H17.8847H17.8852H17.8857H17.8862H17.8867H17.8871H17.8876H17.8881H17.8886H17.8891H17.8896H17.8901H17.8906H17.8911H17.8916H17.8921H17.8926H17.8931H17.8936H17.8942H17.8947H17.8952H17.8957H17.8962H17.8967H17.8972H17.8977H17.8983H17.8988H17.8993H17.8998H17.9003H17.9009H17.9014H17.9019H17.9025H17.903H17.9035H17.9041H17.9046H17.9052H17.9057H17.9062H17.9068H17.9073H17.9079H17.9084H17.909H17.9096H17.9101H17.9107H17.9113H17.9118H17.9124H17.913H17.9136H17.9141H17.9147H17.9153H17.9159H17.9165H17.9171H17.9177H17.9183H17.9189H17.9195H17.9201H17.9207H17.9213H17.922H17.9226H17.9232H17.9238H17.9245H17.9251H17.9258H17.9264H17.9271H17.9277H17.9284H17.929H17.9297H17.9304H17.931H17.9317H17.9324H17.9331H17.9338H17.9345H17.9351H17.9358H17.9366H17.9373H17.938H17.9387H17.9394H17.9401H17.9409H17.9416H17.9424H17.9431H17.9438H17.9446H17.9454H17.9461H17.9469H17.9477H17.9484H17.9492H17.95H17.9508H17.9516H17.9524H17.9532H17.954H17.9549H17.9557H17.9565H17.9574H17.9582H17.959H17.9599H17.9608H17.9616H17.9625H17.9634H17.9642H17.9651H17.966H17.9669H17.9678H17.9687H17.9697H17.9706H17.9715H17.9724H17.9734H17.9743H17.9753H17.9762H17.9772H17.9782H17.9792H17.9801H17.9811H17.9821H17.9831H17.9842H17.9852H17.9862H17.9872H17.9883H17.9893H17.9904H17.9914H17.9925H17.9936H17.9947H17.9957H17.9968H17.9979H17.999H18.0002H18.0013H18.0024H18.0036H18.0047H18.0059H18.007H18.0082H18.0094H18.0106H18.0117H18.0129H18.0142H18.0154H18.0166H18.0178H18.0191H18.0203H18.0216H18.0228H18.0241H18.0254H18.0267H18.028H18.0293H18.0306H18.0319H18.0332H18.0346H18.0359H18.0373H18.0387H18.04H18.0414H18.0428H18.0442H18.0456H18.047H18.0484H18.0499H18.0513H18.0528H18.0542H18.0557H18.0572H18.0587H18.0602H18.0617H18.0632H18.0647H18.0662H18.0677H18.0692H18.0707H18.0722H18.0737H18.0752H18.0766H18.0781H18.0795H18.081H18.0824H18.0838H18.0853H18.0867H18.0881H18.0895H18.0909H18.0923H18.0936H18.095H18.0964H18.0977H18.0991H18.1004H18.1018H18.1031H18.1045H18.1058H18.1071H18.1084H18.1097H18.111H18.1123H18.1136H18.1149H18.1161H18.1174H18.1186H18.1199H18.1211H18.1224H18.1236H18.1249H18.1261H18.1273H18.1285H18.1297H18.1309H18.1321H18.1333H18.1345H18.1356H18.1368H18.138H18.1391H18.1403H18.1414H18.1426H18.1437H18.1449H18.146H18.1471H18.1482H18.1493H18.1504H18.1515H18.1526H18.1537H18.1548H18.1559H18.1569H18.158H18.1591H18.1601H18.1612H18.1622H18.1633H18.1643H18.1653H18.1663H18.1674H18.1684H18.1694H18.1704H18.1714H18.1724H18.1734H18.1744H18.1754H18.1763H18.1773H18.1783H18.1792H18.1802H18.1811H18.1821H18.183H18.184H18.1849H18.1858H18.1868H18.1877H18.1886H18.1895H18.1904H18.1913H18.1922H18.1931H18.194H18.1949H18.1958H18.1967H18.1975H18.1984H18.1993H18.2001H18.201H18.2019H18.2027H18.2035H18.2044H18.2052H18.2061H18.2069H18.2077H18.2085H18.2094H18.2102H18.211H18.2118H18.2126H18.2134H18.2142H18.215H18.2158H18.2166H18.2174H18.2181H18.2189H18.2197H18.2205H18.2212H18.222H18.2227H18.2235H18.2243H18.225H18.2258H18.2265H18.2272H18.228H18.2287H18.2294H18.2302H18.2309H18.2316H18.2323H18.2331H18.2338H18.2345H18.2352H18.2359H18.2366H18.2373H18.238H18.2387H18.2394H18.2401H18.2407H18.2414H18.2421H18.2428H18.2435H18.2441H18.2448H18.2455H18.2461H18.2468H18.2475H18.2481H18.2488H18.2494H18.2501H18.2507H18.2514H18.252H18.2527H18.2533H18.254H18.2546H18.2552H18.2559H18.2565H18.2571H18.2577H18.2584H18.259H18.2596H18.2602H18.2608H18.2615H18.2621H18.2627H18.2633H18.2639H18.2645H18.2651H18.2657H18.2663H18.2669H18.2675H18.2681H18.2687H18.2693H18.2699H18.2705H18.2711H18.2717H18.2723H18.2729H18.2734H18.274H18.2746H18.2752H18.2758H18.2764H18.2769H18.2775H18.2781H18.2787H18.2792H18.2798H18.2804H18.281H18.2815H18.2821H18.2827H18.2832H18.2838H18.2844H18.2849H18.2855H18.2861H18.2866H18.2872H18.2878H18.2883H18.2889H18.2895H18.29H18.2906H18.2911H18.2917H18.2923H18.2928H18.2934H18.2939H18.2945H18.2951H18.2956H18.2962H18.2967H18.2973H18.2979H18.2984H18.299H18.2995H18.3001H18.3006H18.3012H18.3018H18.3023H18.3029H18.3034H18.304H18.3046H18.3051H18.3057H18.3062H18.3068H18.3074H18.3079H18.3085H18.309H18.3096H18.3102H18.3107H18.3113H18.3119H18.3124H18.313H18.3136H18.3141H18.3147H18.3153H18.3158H18.3164H18.317H18.3175H18.3181H18.3187H18.3193H18.3198H18.3204H18.321H18.3216H18.3221H18.3227H18.3233H18.3239H18.3245H18.3251H18.3257H18.3262H18.3268H18.3274H18.328H18.3286H18.3292H18.3298H18.3304H18.331H18.3316H18.3322H18.3328H18.3334H18.334H18.3346H18.3352H18.3358H18.3365H18.3371H18.3377H18.3383H18.3389H18.3395H18.3402H18.3408H18.3414H18.3421H18.3427H18.3433H18.344H18.3446H18.3452H18.3459H18.3465H18.3472H18.3478H18.3485H18.3491H18.3498H18.3504H18.3511H18.3518H18.3524H18.3531H18.3538H18.3544H18.3551H18.3558H18.3565H18.3571H18.3578H18.3585H18.3592H18.3599H18.3606H18.3613H18.362H18.3627H18.3634H18.3641H18.3648H18.3655H18.3663H18.367H18.3677H18.3684H18.3692H18.3699H18.3706H18.3714H18.3721H18.3729H18.3736H18.3744H18.3751H18.3759H18.3766H18.3774H18.3782H18.3789H18.3797H18.3805H18.3813H18.3821H18.3829H18.3837H18.3844H18.3853H18.3861H18.3869H18.3877H18.3885H18.3893H18.3901H18.391H18.3918H18.3926H18.3935H18.3943H18.3951H18.396H18.3968H18.3977H18.3986H18.3994H18.4003H18.4012H18.402H18.4029H18.4038H18.4047H18.4056H18.4065H18.4074H18.4083H18.4092H18.4101H18.4111H18.412H18.4129H18.4138H18.4148H18.4157H18.4167H18.4176H18.4186H18.4195H18.4205H18.4215H18.4224H18.4234H18.4244H18.4254H18.4264H18.4274H18.4284H18.4294H18.4304H18.4314H18.4325H18.4335H18.4345H18.4356H18.4366H18.4377H18.4387H18.4398H18.4408H18.4419H18.443H18.4441H18.4451H18.4462H18.4473H18.4484H18.4495H18.4507H18.4518H18.4529H18.454H18.4552H18.4563H18.4574H18.4586H18.4598H18.4609H18.4621H18.4633H18.4644H18.4656H18.4668H18.468H18.4692H18.4704H18.4716H18.4729H18.4741H18.4753H18.4766H18.4778H18.4791H18.4803H18.4816H18.4828H18.4841H18.4854H18.4867H18.488H18.4893H18.4906H18.4919H18.4932H18.4946H18.4959H18.4972H18.4986H18.4999H18.8999V13.7059V1.47059C18.8999 0.989758 18.5101 0.6 18.0293 0.6H5.79405H5.39421L5.39405 0.999836L5.39397 1.29826L5.39396 1.39188L5.39396 1.41766L5.39396 1.42441L5.39396 1.42613V1.42657Z" fill="#333333" stroke="#333333" stroke-width="0.8"/>
</g>
<defs>
<clipPath id="clip0_1917_79247">
<rect width="19" height="19" fill="white" transform="translate(0.5)"/>
</clipPath>
</defs>
</svg>
