<svg width="21" height="11" viewBox="0 0 21 11" fill="none" xmlns="http://www.w3.org/2000/svg">
<path d="M20.548 7.39834C20.651 7.5772 20.679 7.78953 20.6259 7.98897C20.5729 8.18841 20.4431 8.35875 20.2648 8.46279C20.1471 8.53413 20.0119 8.57133 19.8742 8.57022C19.7359 8.57145 19.5997 8.53594 19.4796 8.46731C19.3595 8.39868 19.2598 8.29939 19.1906 8.17959L17.3937 5.07412C16.3394 5.78335 15.1791 6.32064 13.9562 6.66592L14.5226 9.87881C14.5569 10.0832 14.5095 10.2928 14.3908 10.4626C14.2721 10.6325 14.0915 10.7489 13.8879 10.787H13.7512C13.5673 10.7876 13.3891 10.7232 13.248 10.6053C13.1069 10.4874 13.0118 10.3235 12.9797 10.1425L12.423 6.97842C11.7861 7.07338 11.1432 7.12234 10.4992 7.1249C9.85225 7.1252 9.20609 7.07951 8.56561 6.98819L8.00897 10.1522C7.97679 10.3333 7.88178 10.4972 7.74066 10.6151C7.59955 10.733 7.42137 10.7973 7.23748 10.7968H7.10076C6.89709 10.7587 6.71649 10.6422 6.5978 10.4724C6.4791 10.3026 6.43177 10.0929 6.466 9.88858L7.04217 6.66592C5.81543 6.32286 4.65159 5.78545 3.5949 5.07412L1.78826 8.19912C1.71847 8.3162 1.61996 8.41352 1.50204 8.48188C1.38412 8.55023 1.25071 8.58736 1.11444 8.58975C0.977532 8.58926 0.843158 8.55282 0.724776 8.48405C0.606394 8.41528 0.50816 8.31662 0.439917 8.19793C0.371674 8.07925 0.335817 7.94472 0.335938 7.80781C0.336059 7.6709 0.372155 7.53643 0.440608 7.41787L2.3449 4.11709C1.67946 3.54639 1.06814 2.91546 0.518733 2.23233C0.453805 2.15316 0.405285 2.06187 0.375999 1.96376C0.346713 1.86565 0.337248 1.7627 0.348156 1.6609C0.359063 1.55909 0.390124 1.46048 0.43953 1.37081C0.488935 1.28113 0.555696 1.20219 0.635921 1.13857C0.714476 1.0731 0.805266 1.0239 0.903009 0.993825C1.00075 0.963754 1.1035 0.953415 1.20527 0.963411C1.30705 0.973407 1.40582 1.00354 1.49585 1.05205C1.58587 1.10056 1.66535 1.16649 1.72967 1.246C2.34097 2.00811 3.03904 2.69635 3.80975 3.29678H3.81951C5.7265 4.78434 8.08073 5.58286 10.4992 5.5624C13.3605 5.5624 15.5578 4.55654 17.1691 3.30654H17.1887C17.9594 2.70612 18.6574 2.01788 19.2687 1.25576C19.3323 1.17554 19.4113 1.10878 19.501 1.05937C19.5906 1.00997 19.6893 0.978905 19.7911 0.967998C19.8929 0.95709 19.9958 0.966555 20.0939 0.995841C20.192 1.02513 20.2833 1.07365 20.3625 1.13857C20.4427 1.20219 20.5095 1.28113 20.5589 1.37081C20.6083 1.46048 20.6393 1.55909 20.6502 1.6609C20.6612 1.7627 20.6517 1.86565 20.6224 1.96376C20.5931 2.06187 20.5446 2.15316 20.4797 2.23233C19.9303 2.91546 19.3189 3.54639 18.6535 4.11709L20.548 7.39834Z" fill="#2C2C2C"/>
</svg>
