<svg width="16" height="20" viewBox="0 0 16 20" fill="none" xmlns="http://www.w3.org/2000/svg">
<path d="M12.9301 7.46704L12.8305 7.4761C12.8291 7.45995 12.8289 7.4437 12.8301 7.42753C12.8237 6.15083 12.3126 4.92839 11.4084 4.02693C10.5032 3.12448 9.27751 2.6171 7.9993 2.61569C6.71872 2.61712 5.49097 3.12639 4.58536 4.0318C3.68047 4.9365 3.17102 6.16289 3.1685 7.44237C3.1691 7.4531 3.16905 7.46385 3.16836 7.47458C3.16578 7.61699 3.17259 10.594 7.99935 17.1091C12.931 10.4595 12.8312 7.49942 12.8304 7.47432L12.8304 7.47416L12.9301 7.46704ZM12.9301 7.46704C12.929 7.45517 12.929 7.44323 12.9301 7.43136V7.46704ZM7.99974 18.2081L7.99975 18.2084L8.0076 18.2078L8.01934 18.2068C8.08255 18.203 8.14403 18.1846 8.19896 18.1531C8.25334 18.1219 8.29982 18.0786 8.33486 18.0267C13.5844 11.086 13.6622 7.83271 13.6507 7.45144L13.6507 7.44542L13.6506 7.4441C13.6311 5.95818 13.0274 4.53968 11.9701 3.4954C10.9129 2.45113 9.48699 1.86503 8.00094 1.86387C6.51489 1.86271 5.08812 2.44659 4.02922 3.48922C2.97062 4.53155 2.36476 5.94859 2.34258 7.43401C2.33048 7.73724 2.31499 10.9621 7.65856 18.0291C7.6915 18.0773 7.73447 18.1178 7.78452 18.1478C7.81083 18.1645 7.83925 18.1777 7.86904 18.187C7.91116 18.2012 7.95531 18.2083 7.99974 18.2081Z" fill="#333333" stroke="#333333" stroke-width="0.2"/>
<path d="M11.5115 7.2715V7.27141C11.5115 6.57708 11.3056 5.89835 10.9199 5.32102C10.5341 4.7437 9.98589 4.29371 9.34444 4.02795C8.70299 3.76219 7.99714 3.6926 7.31614 3.82798C6.63514 3.96335 6.00957 4.29761 5.51853 4.7885C5.02749 5.27938 4.69303 5.90484 4.55744 6.5858C4.42185 7.26676 4.49122 7.97263 4.75677 8.61417C5.02233 9.2557 5.47214 9.80409 6.04934 10.19C6.62655 10.5759 7.30522 10.782 7.99954 10.7822L7.99957 10.6823L7.99964 10.7822C8.93066 10.7816 9.8234 10.4116 10.4818 9.75337C11.1403 9.09514 11.5106 8.20252 11.5115 7.2715ZM6.50707 5.03989C6.94881 4.74452 7.46821 4.58675 7.99961 4.58654L7.99957 4.48654L7.99954 4.58654C8.71221 4.58682 9.39563 4.86998 9.89967 5.37382C10.4037 5.87766 10.6871 6.56097 10.6877 7.27365C10.6877 7.80502 10.5301 8.32446 10.2349 8.76629C9.9397 9.20815 9.52011 9.55255 9.02918 9.75596C8.53825 9.95936 7.99803 10.0126 7.47683 9.90904C6.95562 9.80545 6.47684 9.54964 6.10101 9.17395C5.72518 8.79827 5.46918 8.31958 5.36539 7.79842C5.26159 7.27726 5.31465 6.73702 5.51787 6.24601C5.72108 5.755 6.06532 5.33527 6.50707 5.03989Z" fill="#333333" stroke="#333333" stroke-width="0.2"/>
</svg>
