<svg width="14" height="8" viewBox="0 0 14 8" fill="none" xmlns="http://www.w3.org/2000/svg">
<path fill-rule="evenodd" clip-rule="evenodd" d="M0.422609 0.230135C0.160601 0.352443 0.0293509 0.552053 0.0273821 0.831232C0.0264524 0.961635 0.0423118 1.04172 0.0868821 1.13201C0.133968 1.22739 0.867683 1.93734 3.35082 4.29022C5.11258 5.95955 6.60273 7.35859 6.66226 7.3992C6.85941 7.53365 7.1655 7.53365 7.36264 7.3992C7.42217 7.35859 8.91232 5.95955 10.6741 4.29022C13.1572 1.93734 13.8909 1.22739 13.938 1.13201C14.0203 0.965381 14.0201 0.698998 13.9376 0.541525C13.7636 0.209299 13.3368 0.0790607 13.0252 0.263084C12.9652 0.298494 11.5917 1.58209 9.97296 3.11547C8.35424 4.64888 7.02199 5.9035 7.01245 5.9035C7.00291 5.9035 5.67067 4.64888 4.05194 3.11547C2.43319 1.58209 1.05865 0.297865 0.997374 0.261689C0.837687 0.167381 0.586589 0.1536 0.422609 0.230135Z" fill="#333333"/>
</svg>
