<svg width="48" height="44" viewBox="0 0 48 44" fill="none" xmlns="http://www.w3.org/2000/svg">
<path d="M13.6667 17.0833H8.54167L5.125 35.875H35.875L32.4583 17.0833H27.3333M13.6667 17.0833V11.125C13.6667 7.81129 16.353 5.125 19.6667 5.125H21.3333C24.647 5.125 27.3333 7.81129 27.3333 11.125V17.0833M13.6667 17.0833H27.3333M13.6667 17.0833V22.2083M27.3333 17.0833V22.2083" stroke="#1C48A0" stroke-width="1.5" stroke-linecap="round" stroke-linejoin="round"/>
<rect x="29.25" y="25.25" width="17.9" height="17.9" rx="8.95" fill="#EFEEF1"/>
<path fill-rule="evenodd" clip-rule="evenodd" d="M34.5716 30.9706C34.4509 31.0132 34.3516 31.1571 34.3516 31.2891C34.3516 31.3165 34.3615 31.3693 34.3737 31.4064C34.3941 31.4682 34.5187 31.5967 35.8814 32.9615L37.3669 34.4493L35.8879 35.9301C35.0745 36.7446 34.3986 37.4317 34.386 37.457C34.3241 37.5807 34.3529 37.7482 34.4535 37.8488C34.5489 37.9442 34.6772 37.9731 34.8107 37.9292C34.8725 37.9088 35.001 37.7842 36.3654 36.4211L37.8526 34.9352L39.3399 36.4211C40.7043 37.7842 40.8327 37.9088 40.8946 37.9292C41.0279 37.973 41.1564 37.9442 41.2515 37.8491C41.3466 37.754 41.3754 37.6254 41.3315 37.4921C41.3112 37.4302 41.1866 37.3017 39.8239 35.9369L38.3384 34.4492L39.8239 32.9615C41.1866 31.5967 41.3112 31.4682 41.3315 31.4064C41.3754 31.273 41.3466 31.1445 41.2515 31.0494C41.1564 30.9543 41.0279 30.9254 40.8946 30.9693C40.8327 30.9897 40.7043 31.1143 39.3399 32.4774L37.8526 33.9633L36.3654 32.4774C35.001 31.1143 34.8725 30.9897 34.8107 30.9693C34.7281 30.9421 34.6511 30.9425 34.5716 30.9706Z" fill="#1C48A0"/>
<rect x="29.25" y="25.25" width="17.9" height="17.9" rx="8.95" stroke="#1C48A0" stroke-width="1.5"/>
</svg>
