<svg width="40" height="40" viewBox="0 0 40 40" fill="none" xmlns="http://www.w3.org/2000/svg">
<g clip-path="url(#clip0_1599_63639)">
<path d="M38.7333 7.03154L38.7334 7.03156C38.9884 7.11386 39.1722 7.33709 39.204 7.60316L40.0955 15.0739C40.118 15.2624 40.0613 15.452 39.9388 15.5973L38.0198 17.8734L38.7333 7.03154ZM38.7333 7.03154C38.4784 6.94952 38.1988 7.02311 38.0175 7.22049L38.0175 7.22051L34.0065 11.5897M38.7333 7.03154L34.0065 11.5897M34.0065 11.5897L26.6672 12.3372L26.6671 12.3372L26.6773 12.4367C26.3553 12.4694 26.1209 12.757 26.1537 13.0789C26.1865 13.4009 26.4746 13.6356 26.7959 13.6025M34.0065 11.5897L38.0414 30.653C37.9644 30.8514 37.7858 30.9924 37.5748 31.0214L37.5885 31.1205C37.5885 31.1205 37.5885 31.1205 37.5885 31.1205C37.3413 31.1545 37.0956 31.0516 36.9462 30.8523L37.0263 30.7923L36.9462 30.8522L34.8863 28.1033L33.1482 28.3778L32.3501 30.5442C32.2679 30.7674 32.0759 30.9321 31.8428 30.9793L26.7653 32.0086C26.7195 32.0179 26.6737 32.0224 26.6284 32.0224C26.3089 32.0224 26.0227 31.7981 25.9568 31.4727C25.8815 31.1014 26.1214 30.7394 26.4927 30.6641L31.1951 29.7109L32 27.526L32 27.526C32.086 27.2929 32.2912 27.1244 32.5367 27.0856L35.0803 26.6839L35.0804 26.6839C35.3317 26.6443 35.5838 26.7467 35.7363 26.9501L35.6563 27.0101L35.7363 26.9501L37.3028 29.0406L37.798 27.7647L36.5773 24.657L34.1851 24.4293C33.8507 24.3974 33.5886 24.1281 33.5658 23.7929L33.298 19.8473C33.2815 19.6033 33.3962 19.369 33.5988 19.2322L33.5988 19.2322L37.0323 16.9162L38.6978 14.9407L38.0185 9.24796L34.8407 12.7096C34.7271 12.8333 34.5721 12.9111 34.4049 12.9281C34.4049 12.9281 34.4049 12.9281 34.4049 12.9281L26.8062 13.702L26.8061 13.702L26.7959 13.6025M26.7959 13.6025L34.3948 12.8286M26.7959 13.6025L34.3948 12.8286M34.3948 12.8286C34.5376 12.8141 34.67 12.7477 34.767 12.642L34.3948 12.8286Z" fill="#1C48A0" stroke="#1C48A0" stroke-width="0.2"/>
<path d="M5.93183 24.8042C5.7398 24.7858 5.54831 24.8495 5.40534 24.9795C5.2624 25.1095 5.18082 25.2938 5.18082 25.487V26.6802L3.1131 28.7943L2.43153 25.8047L3.36498 23.3525L3.36498 23.3524C3.43163 23.1773 3.4238 22.9824 3.34304 22.8132C3.26237 22.6438 3.11584 22.5151 2.93768 22.4567C2.93767 22.4567 2.93766 22.4567 2.93764 22.4567L1.4034 21.9535L3.34253 14.0302L6.98211 11.8036L10.0903 13.2493C10.0903 13.2493 10.0903 13.2493 10.0903 13.2494C10.4338 13.4092 10.8417 13.2602 11.0015 12.9167C11.1613 12.5732 11.0124 12.1653 10.6688 12.0055L7.22721 10.4046L7.22721 10.4046C7.01896 10.3078 6.77589 10.3216 6.57997 10.4414L6.57996 10.4414L2.3855 13.0075L2.38549 13.0075C2.23112 13.102 2.12028 13.2537 2.07721 13.4295L2.0772 13.4295L-0.0802234 22.2444C-0.165464 22.5925 0.0318173 22.9476 0.372309 23.0592L1.82703 23.5363L1.07542 25.5107C1.07541 25.5107 1.07541 25.5107 1.07541 25.5108C1.0272 25.6373 1.01761 25.7753 1.04769 25.9072L2.05504 30.3257C2.11082 30.5704 2.29592 30.7652 2.53749 30.8334L2.53753 30.8334C2.77903 30.9014 3.03856 30.8323 3.21416 30.6528L3.21418 30.6528L6.35713 27.4395C6.35714 27.4395 6.35714 27.4395 6.35715 27.4395C6.48256 27.3113 6.55269 27.1391 6.55269 26.9599V26.2414L11.1388 26.6782L12.698 28.5974C12.8662 28.8044 13.1394 28.8952 13.398 28.8299C13.398 28.8299 13.398 28.8299 13.398 28.8299L16.7289 27.9906L21.3023 32.7888L21.3747 32.7199L21.3023 32.7889C21.4331 32.9261 21.6132 33.0015 21.7989 33.0015C21.8441 33.0015 21.8897 32.997 21.935 32.9879L21.9351 32.9879L24.1944 32.5299C24.5658 32.4546 24.8056 32.0926 24.7304 31.7214C24.6553 31.3501 24.2937 31.1098 23.922 31.1853C23.9219 31.1853 23.9219 31.1853 23.9219 31.1853L22.034 31.568L17.4459 26.7544C17.2754 26.5754 17.0217 26.5019 16.7817 26.5625L13.487 27.3928L12.0223 25.5901L12.0222 25.5901C11.9063 25.4474 11.738 25.3572 11.5549 25.3398L11.5549 25.3398L5.93183 24.8042ZM5.93183 24.8042L5.9223 24.9038M5.93183 24.8042L5.93178 24.8042L5.9223 24.9038M5.9223 24.9038L11.5454 25.4393L5.28082 25.487C5.28082 25.322 5.3505 25.1645 5.47261 25.0535C5.59472 24.9424 5.75832 24.8881 5.9223 24.9038Z" fill="#1C48A0" stroke="#1C48A0" stroke-width="0.2"/>
<path d="M24.477 10.8163C21.6009 10.8163 20.203 10.4809 18.723 10.1256C17.3409 9.79392 15.9149 9.45173 13.2812 9.40743V8.73853C13.2812 8.41493 13.0189 8.15259 12.6953 8.15259C12.3717 8.15259 12.1094 8.41493 12.1094 8.73853V22.2982C12.1094 22.6218 12.3717 22.8841 12.6953 22.8841C13.0189 22.8841 13.2812 22.6218 13.2812 22.2982V19.374C15.7687 19.4164 17.0736 19.7296 18.4495 20.0599C19.9306 20.4153 21.4623 20.7829 24.477 20.7829C24.8006 20.7829 25.063 20.5206 25.063 20.197V11.4023C25.063 11.0786 24.8006 10.8163 24.477 10.8163ZM18.4495 11.2651C19.8315 11.5968 21.2575 11.939 23.8911 11.9833V13.768C21.4038 13.7256 20.0988 13.4124 18.723 13.0821C17.3409 12.7504 15.9149 12.4082 13.2812 12.3639V10.5792C15.7687 10.6217 17.0736 10.9349 18.4495 11.2651ZM18.723 18.9203C17.3409 18.5886 15.9149 18.2464 13.2812 18.2021V16.4249C15.7686 16.4674 17.0735 16.7806 18.4494 17.1107C18.6427 17.1571 18.8359 17.2034 19.0324 17.2491C19.077 17.2594 19.1215 17.2643 19.1653 17.2643C19.4318 17.2643 19.6728 17.0813 19.7356 16.8106C19.8087 16.4954 19.6125 16.1806 19.2973 16.1074C19.1037 16.0625 18.9133 16.0168 18.7229 15.9711C17.3409 15.6395 15.9149 15.2973 13.2813 15.2529V13.5358C15.7688 13.5782 17.0737 13.8914 18.4495 14.2217C19.8316 14.5534 21.2576 14.8956 23.8912 14.9399V16.6569C23.146 16.644 22.4688 16.6059 21.8347 16.5414C21.5121 16.5086 21.2252 16.7431 21.1924 17.065C21.1597 17.387 21.3941 17.6745 21.716 17.7073C22.3888 17.7757 23.1049 17.8159 23.8912 17.829V19.6061C21.4036 19.5637 20.0988 19.2505 18.723 18.9203Z" fill="#1C48A0"/>
</g>
<defs>
<clipPath id="clip0_1599_63639">
<rect width="40" height="40" fill="white"/>
</clipPath>
</defs>
</svg>
