<svg width="16" height="16" viewBox="0 0 16 16" fill="none" xmlns="http://www.w3.org/2000/svg">
<g clip-path="url(#clip0_1733_84314)">
<path fill-rule="evenodd" clip-rule="evenodd" d="M14 16H11V14H14V11H16V14C16 14.5304 15.7893 15.0391 15.4142 15.4142C15.0391 15.7893 14.5304 16 14 16ZM14 2H11V0H14C14.5304 0 15.0391 0.210743 15.4142 0.585815C15.7893 0.960888 16 1.46957 16 2V5H14V2ZM12 5V11C12 11.2652 11.8946 11.5196 11.7071 11.7071C11.5196 11.8946 11.2652 12 11 12H5C4.73478 12 4.48044 11.8946 4.29291 11.7071C4.10537 11.5196 4 11.2652 4 11V5C4 4.73478 4.10537 4.48044 4.29291 4.29291C4.48044 4.10537 4.73478 4 5 4H11C11.2652 4 11.5196 4.10537 11.7071 4.29291C11.8946 4.48044 12 4.73478 12 5ZM10 6H6V10H10V6ZM2 5H0V2C0 1.46957 0.210712 0.960888 0.585785 0.585815C0.960858 0.210743 1.46957 0 2 0H5V2H2V5ZM2 14H5V16H2C1.46957 16 0.960858 15.7893 0.585785 15.4142C0.210712 15.0391 0 14.5304 0 14V11H2V14Z" fill="#1C48A0"/>
</g>
<defs>
<clipPath id="clip0_1733_84314">
<rect width="16" height="16" fill="white"/>
</clipPath>
</defs>
</svg>
