<svg width="40" height="40" viewBox="0 0 40 40" fill="none" xmlns="http://www.w3.org/2000/svg">
<g clip-path="url(#clip0_1599_63638)">
<g clip-path="url(#clip1_1599_63638)">
<path d="M7.06735 30.8613H0.515625V39.482H7.06735V30.8613Z" stroke="#1C48A0" stroke-width="1.5"/>
<path d="M39.4814 30.8613H32.9297V39.482H39.4814V30.8613Z" stroke="#1C48A0" stroke-width="1.5"/>
<path d="M20.1514 1.34293L21.5564 3.88535C21.7295 4.19855 22.0327 4.4188 22.384 4.48662L25.2361 5.03719C25.3693 5.06289 25.422 5.22516 25.3294 5.32422L23.3456 7.44611C23.1012 7.70749 22.9854 8.06384 23.0295 8.41894L23.3872 11.3016C23.4039 11.4363 23.2659 11.5365 23.1431 11.4791L20.512 10.248C20.1879 10.0964 19.8131 10.0964 19.4891 10.248L16.858 11.4791C16.7351 11.5365 16.5971 11.4363 16.6138 11.3016L16.9715 8.41894C17.0156 8.06384 16.8998 7.70749 16.6555 7.44611L14.6716 5.32422C14.579 5.22516 14.6318 5.06289 14.7649 5.03719L17.6171 4.48662C17.9684 4.4188 18.2715 4.19855 18.4447 3.88535L19.8496 1.34293C19.9152 1.22424 20.0858 1.22423 20.1514 1.34293Z" stroke="#1C48A0" stroke-width="1.5"/>
<path d="M13.9658 23.9648H7.41406V39.4821H13.9658V23.9648Z" stroke="#1C48A0" stroke-width="1.5"/>
<path d="M32.5869 23.9648H26.0352V39.4821H32.5869V23.9648Z" stroke="#1C48A0" stroke-width="1.5"/>
<path d="M25.6879 15H14.3086V39.4828H25.6879V15Z" stroke="#1C48A0" stroke-width="1.5"/>
<path d="M7.24219 2.06836L10.6905 2.75801M7.24219 6.55112H10.6905M7.24219 11.3787L10.6905 10.6891" stroke="#1C48A0" stroke-width="1.5"/>
<path d="M33.1045 2.06836L29.6562 2.78356M33.1045 6.71715H29.6562M33.1045 11.7235L29.6562 11.0084" stroke="#1C48A0" stroke-width="1.5"/>
</g>
</g>
<defs>
<clipPath id="clip0_1599_63638">
<rect width="40" height="40" fill="white"/>
</clipPath>
<clipPath id="clip1_1599_63638">
<rect width="40" height="40" fill="white"/>
</clipPath>
</defs>
</svg>
