<svg width="16" height="16" viewBox="0 0 16 16" fill="none" xmlns="http://www.w3.org/2000/svg">
<path fill-rule="evenodd" clip-rule="evenodd" d="M14.2417 9.96386C14.2417 9.96386 15.5353 11.2675 15.8553 11.8707C15.8615 11.8794 15.8664 11.889 15.8697 11.8993C16.0001 12.1221 16.0321 12.2968 15.9681 12.4258C15.8601 12.6388 15.4945 12.7457 15.3705 12.7547H13.0841C12.9249 12.7547 12.5937 12.7123 12.1905 12.4282C11.8825 12.2086 11.5761 11.847 11.2793 11.4936C10.8361 10.9687 10.4529 10.5132 10.0649 10.5132C10.0159 10.5131 9.9672 10.5214 9.92088 10.5377C9.62728 10.6324 9.25448 11.0593 9.25448 12.1964C9.25448 12.5523 8.97928 12.7547 8.78648 12.7547H7.73928C7.38248 12.7547 5.52488 12.6274 3.87768 10.8552C1.85927 8.68557 0.0464721 4.33317 0.0288721 4.29481C-0.083928 4.01319 0.152872 3.85973 0.408872 3.85973H2.71767C3.02728 3.85973 3.12808 4.05074 3.19848 4.22216C3.28008 4.41888 3.58248 5.20577 4.07848 6.0898C4.88168 7.52809 5.37528 8.11336 5.76968 8.11336C5.84378 8.11358 5.91662 8.09387 5.98088 8.05622C6.49608 7.76726 6.40008 5.88981 6.37608 5.5029C6.37608 5.4278 6.37528 4.66458 6.11128 4.29562C5.92248 4.03115 5.60088 3.9283 5.40648 3.89075C5.45848 3.81402 5.56888 3.69647 5.71048 3.62709C6.06328 3.44751 6.70088 3.42139 7.33368 3.42139H7.68488C8.37128 3.43118 8.54888 3.47608 8.79848 3.54056C9.30088 3.66301 9.31048 3.99523 9.26648 5.12659C9.25368 5.44984 9.24008 5.8139 9.24008 6.24245C9.24008 6.33387 9.23608 6.4359 9.23608 6.53957C9.22088 7.11995 9.20088 7.77379 9.60248 8.04234C9.65457 8.07545 9.71472 8.09298 9.77608 8.09295C9.91528 8.09295 10.3321 8.09295 11.4625 6.11347C11.9585 5.23924 12.3425 4.20828 12.3689 4.13073C12.3913 4.08747 12.4585 3.96584 12.5401 3.91687C12.5981 3.88536 12.6632 3.86961 12.7289 3.87116H15.4449C15.7409 3.87116 15.9417 3.91687 15.9809 4.03115C16.0465 4.21644 15.9681 4.78212 14.7281 6.49304C14.5193 6.77793 14.3361 7.02444 14.1753 7.23994C13.0513 8.74516 13.0513 8.82107 14.2417 9.96386Z" fill="#1C48A0"/>
</svg>
