<svg width="14" height="17" viewBox="0 0 14 17" fill="none" xmlns="http://www.w3.org/2000/svg">
<path d="M13.25 5.31066V16.25H0.75V0.75H8.68934L13.25 5.31066Z" stroke="#1C48A0" stroke-width="1.5"/>
<path d="M3.9752 11.7939H3.09141V11.1323H3.9752C4.09564 11.1323 4.19329 11.112 4.26816 11.0713C4.34303 11.0306 4.39756 10.9744 4.43174 10.9028C4.46755 10.8296 4.48545 10.7474 4.48545 10.6562C4.48545 10.5586 4.46755 10.4683 4.43174 10.3853C4.39756 10.3022 4.34303 10.2355 4.26816 10.1851C4.19329 10.133 4.09564 10.1069 3.9752 10.1069H3.41367V13H2.55674V9.44531H3.9752C4.26003 9.44531 4.50498 9.4974 4.71006 9.60156C4.91676 9.70573 5.07546 9.84896 5.18613 10.0312C5.29681 10.2119 5.35215 10.4186 5.35215 10.6514C5.35215 10.8809 5.29681 11.0811 5.18613 11.252C5.07546 11.4229 4.91676 11.5563 4.71006 11.6523C4.50498 11.7467 4.26003 11.7939 3.9752 11.7939ZM7.06836 13H6.27979L6.28467 12.3408H7.06836C7.23112 12.3408 7.36865 12.3018 7.48096 12.2236C7.59489 12.1455 7.68115 12.0291 7.73975 11.8745C7.79997 11.7183 7.83008 11.5262 7.83008 11.2983V11.1445C7.83008 10.9736 7.81299 10.8239 7.77881 10.6953C7.74626 10.5651 7.69743 10.4569 7.63232 10.3706C7.56722 10.2827 7.48584 10.2168 7.38818 10.1729C7.29215 10.1289 7.18148 10.1069 7.05615 10.1069H6.26514V9.44531H7.05615C7.29704 9.44531 7.51758 9.48682 7.71777 9.56982C7.9196 9.6512 8.09375 9.76839 8.24023 9.92139C8.38835 10.0728 8.50228 10.2526 8.58203 10.4609C8.66341 10.6676 8.7041 10.8971 8.7041 11.1494V11.2983C8.7041 11.549 8.66341 11.7785 8.58203 11.9868C8.50228 12.1951 8.38916 12.375 8.24268 12.5264C8.09619 12.6777 7.92285 12.7949 7.72266 12.8779C7.52409 12.9593 7.30599 13 7.06836 13ZM6.77051 9.44531V13H5.91357V9.44531H6.77051ZM10.1078 9.44531V13H9.25088V9.44531H10.1078ZM11.4896 10.9248V11.584H9.86367V10.9248H11.4896ZM11.6288 9.44531V10.1069H9.86367V9.44531H11.6288Z" fill="#1C48A0"/>
<path d="M9 1V5H13" stroke="#1C48A0" stroke-width="1.5"/>
</svg>
