<svg width="14" height="14" viewBox="0 0 14 14" fill="none" xmlns="http://www.w3.org/2000/svg">
<g clip-path="url(#clip0_1540_58898)">
<path d="M5.9936 9.84314V9.94314H6.0936H7.33768H7.43768V9.84314C7.43768 9.3899 7.55148 8.96558 7.77982 8.56855L7.78041 8.5675C8.01281 8.15184 8.2912 7.78899 8.61539 7.47837L9.11302 7.00157L9.61065 6.52477L9.61066 6.52478L9.61195 6.5235C9.95099 6.18662 10.2411 5.79609 10.4824 5.3525C10.7275 4.90192 10.85 4.41453 10.85 3.89197C10.85 2.82942 10.4717 1.998 9.70978 1.41159C8.9672 0.819158 8.06194 0.525 7 0.525C6.11854 0.525 5.32451 0.735164 4.6206 1.15718C3.92364 1.57033 3.43517 2.18445 3.15548 2.99401L3.12808 3.07331L3.20142 3.11407L4.25 3.69683L4.35978 3.75784L4.39465 3.63718C4.56088 3.06193 4.85923 2.63743 5.28673 2.35518C5.71581 2.07189 6.28422 1.92583 7 1.92583C7.7185 1.92583 8.29379 2.09837 8.7343 2.43506L8.73427 2.43509L8.73657 2.43675C9.17976 2.75601 9.40592 3.23509 9.40592 3.89197C9.40592 4.29576 9.29341 4.67751 9.0662 5.03896C8.83402 5.39643 8.55525 5.7254 8.22958 6.02588C7.89689 6.33284 7.56425 6.65156 7.23165 6.98204C6.89105 7.32047 6.60061 7.73595 6.35951 8.22694C6.11503 8.71297 5.9936 9.25233 5.9936 9.84314ZM6.71564 13.475C7.01398 13.475 7.27053 13.3708 7.47925 13.1634C7.688 12.956 7.79313 12.7008 7.79313 12.4037C7.79313 12.1067 7.688 11.8515 7.47925 11.6441C7.27053 11.4367 7.01398 11.3325 6.71564 11.3325C6.4173 11.3325 6.16075 11.4367 5.95203 11.6441C5.74328 11.8515 5.63815 12.1067 5.63815 12.4037C5.63815 12.7008 5.74328 12.956 5.95203 13.1634C6.16075 13.3708 6.4173 13.475 6.71564 13.475Z" fill="#1C48A0" stroke="#1C48A0" stroke-width="0.2"/>
</g>
<defs>
<clipPath id="clip0_1540_58898">
<rect width="13.5" height="13.5" fill="white" transform="translate(0.25 0.25)"/>
</clipPath>
</defs>
</svg>
