<svg width="40" height="40" viewBox="0 0 40 40" fill="none" xmlns="http://www.w3.org/2000/svg">
<g clip-path="url(#clip0_2198_42143)">
<path d="M38.7465 4.65648L35.0889 0.998984C34.8444 0.754297 34.5323 0.625 34.1863 0.625H14.2163C13.5124 0.625 12.9398 1.19766 12.9398 1.90141V16.5809C12.7245 16.5687 12.5077 16.5619 12.2894 16.5619C5.99977 16.5619 0.882812 21.6788 0.882812 27.9684C0.882812 34.258 5.99977 39.375 12.2894 39.375C16.2864 39.375 19.8093 37.308 21.8468 34.1872H37.8439C38.5477 34.1872 39.1203 33.6145 39.1203 32.9107V5.55898C39.1203 5.21312 38.991 4.90102 38.7465 4.65648ZM35.0811 2.75891L36.9864 4.66422H35.0811V2.75891ZM12.2894 38.125C6.68898 38.125 2.13281 33.5688 2.13281 27.9684C2.13281 22.3681 6.68898 17.812 12.2894 17.812C17.8897 17.812 22.4459 22.3681 22.4459 27.9684C22.4459 33.5688 17.8896 38.125 12.2894 38.125ZM37.8439 32.9372H22.5554C23.2857 31.4345 23.6958 29.7485 23.6958 27.9684C23.6958 22.3263 19.5778 17.6287 14.1898 16.7212V1.90141C14.1898 1.88781 14.2027 1.875 14.2162 1.875H33.831V4.96352C33.831 5.48773 34.2575 5.91422 34.7817 5.91422H37.8702V32.9107C37.8703 32.9243 37.8575 32.9372 37.8439 32.9372ZM26.0302 16.9229C26.138 16.9229 26.246 16.895 26.3427 16.8391L31.7677 13.707C31.9611 13.5954 32.0802 13.3891 32.0802 13.1658V6.90141C32.0802 6.67812 31.9611 6.4718 31.7677 6.36016L26.3427 3.22797C26.1493 3.11633 25.911 3.11633 25.7177 3.22797L20.2925 6.36016C20.0991 6.4718 19.98 6.67812 19.98 6.90141V13.1657C19.98 13.389 20.0991 13.5953 20.2925 13.707L25.7176 16.8391C25.8143 16.895 25.9223 16.9229 26.0302 16.9229ZM23.7809 8.01336L27.956 5.60289L28.2792 5.78953L24.1041 8.2L23.7809 8.01336ZM23.1559 9.09586L23.4791 9.2825V10.3059L23.1559 10.1192V9.09586ZM29.5292 6.51117L30.2052 6.90141L26.0302 9.31188L25.3542 8.92164L29.5292 6.51117ZM26.6552 15.2154V10.3945L30.8302 7.98398V12.8049L26.6552 15.2154ZM26.0302 4.49094L26.706 4.88117L22.5309 7.29164L21.855 6.90141L26.0302 4.49094ZM21.23 7.98398L21.9059 8.37422V10.4802C21.9059 10.7034 22.025 10.9098 22.2184 11.0214L23.7916 11.9297C23.8883 11.9855 23.9962 12.0134 24.1041 12.0134C24.212 12.0134 24.32 11.9855 24.4166 11.9297C24.61 11.818 24.7291 11.6117 24.7291 11.3884V10.0041L25.4051 10.3944V15.2154L21.23 12.8049V7.98398ZM21.2555 27.9143C21.1859 27.6546 21.0197 27.4377 20.7875 27.3037C19.1959 26.3847 17.6115 25.5295 16.0792 24.7023C15.378 24.3238 14.6585 23.9352 13.9428 23.543C14.0406 23.4163 14.1398 23.295 14.2398 23.1788C14.305 23.1935 14.3713 23.2026 14.4382 23.2026C14.5176 23.2026 14.5975 23.1921 14.6763 23.171C14.9119 23.1079 15.1085 22.9571 15.2301 22.7464L15.6947 21.9417C15.8164 21.731 15.8487 21.4852 15.7855 21.2497C15.7223 21.0142 15.5716 20.8176 15.3609 20.6959L11.8242 18.654C11.8241 18.6539 11.8241 18.6539 11.8241 18.6539C11.3887 18.4027 10.8298 18.5523 10.5784 18.9877L10.1138 19.7927C9.99211 20.0033 9.95992 20.2491 10.023 20.4845C10.0621 20.63 10.1347 20.7605 10.234 20.8677C9.83617 22.0053 9.105 23.2739 8.31867 24.1909C8.17516 24.1577 8.02461 24.1601 7.87828 24.1994C7.64273 24.2625 7.44609 24.4132 7.3243 24.624L6.85984 25.4287C6.73813 25.6394 6.70586 25.8852 6.76906 26.1207C6.83219 26.3562 6.98289 26.5528 7.19367 26.6745L10.7301 28.7163C10.8704 28.7973 11.0262 28.8387 11.1841 28.8387C11.2635 28.8387 11.3434 28.8283 11.4222 28.8072C11.6577 28.7441 11.8544 28.5934 11.9762 28.3826L12.4406 27.5779C12.5623 27.3673 12.5946 27.1215 12.5315 26.886C12.4923 26.7395 12.4191 26.608 12.3186 26.5003C12.3692 26.3564 12.4246 26.2108 12.4853 26.0637C13.1833 26.4877 13.88 26.9169 14.5588 27.3352C16.0413 28.2485 17.5743 29.193 19.1662 30.1122C19.3207 30.2014 19.4923 30.247 19.6663 30.247C19.7538 30.247 19.842 30.2355 19.9289 30.2122C20.1887 30.1426 20.4055 29.9762 20.5395 29.7441L21.1555 28.6773C21.2897 28.445 21.3252 28.174 21.2555 27.9143ZM9.44297 24.7941C10.2041 23.8549 10.8879 22.6688 11.3185 21.5411L13.1136 22.5775C12.3523 23.5142 11.667 24.6995 11.2342 25.8282L9.44297 24.7941ZM11.492 19.9055L14.4433 21.6094L14.3166 21.8288L11.3655 20.1248L11.492 19.9055ZM11.0626 27.4649L8.11141 25.761L8.23805 25.5416L11.1892 27.2455L11.0626 27.4649ZM19.5795 28.9072C18.0781 28.0355 16.6235 27.1391 15.2146 26.271C14.5012 25.8314 13.768 25.3801 13.0329 24.9341C13.0988 24.8153 13.1669 24.6977 13.2368 24.5813C13.9905 24.9948 14.7481 25.4041 15.4855 25.8022C16.9417 26.5883 18.4453 27.3999 19.9507 28.2641L19.5795 28.9072ZM12.1625 30.8298H11.8832V29.9305C11.8832 29.5853 11.6034 29.3055 11.2582 29.3055H6.50594C6.16078 29.3055 5.88094 29.5853 5.88094 29.9305V30.8298H5.51688C5.06719 30.8298 4.70141 31.1957 4.70141 31.6453V33.4536C4.70141 33.9033 5.06727 34.2691 5.51688 34.2691H12.1624C12.6121 34.2691 12.978 33.9032 12.978 33.4536V31.6453C12.978 31.1957 12.6122 30.8298 12.1625 30.8298ZM7.13094 30.5555H10.6331V30.8298H7.13094V30.5555ZM11.728 33.0191H5.95141V32.0798H11.728V33.0191ZM35.2777 19.5635C35.2777 19.9087 34.9979 20.1885 34.6527 20.1885H22.7346C22.3895 20.1885 22.1096 19.9087 22.1096 19.5635C22.1096 19.2184 22.3895 18.9385 22.7346 18.9385H34.6527C34.9979 18.9385 35.2777 19.2184 35.2777 19.5635ZM35.2777 23.042C35.2777 23.3872 34.9979 23.667 34.6527 23.667H24.4575C24.1123 23.667 23.8325 23.3872 23.8325 23.042C23.8325 22.6969 24.1123 22.417 24.4575 22.417H34.6527C34.9979 22.417 35.2777 22.697 35.2777 23.042ZM35.2777 26.5205C35.2777 26.8657 34.9979 27.1455 34.6527 27.1455H25.3347C24.9895 27.1455 24.7097 26.8657 24.7097 26.5205C24.7097 26.1754 24.9895 25.8955 25.3347 25.8955H34.6527C34.9979 25.8955 35.2777 26.1754 35.2777 26.5205ZM35.2777 29.9991C35.2777 30.3442 34.9979 30.6241 34.6527 30.6241H25.258C24.9129 30.6241 24.633 30.3442 24.633 29.9991C24.633 29.6539 24.9129 29.3741 25.258 29.3741H34.6527C34.9979 29.3741 35.2777 29.6539 35.2777 29.9991Z" fill="#1C48A0"/>
</g>
<defs>
<clipPath id="clip0_2198_42143">
<rect width="40" height="40" fill="white"/>
</clipPath>
</defs>
</svg>
