<svg width="32" height="32" viewBox="0 0 32 32" fill="none" xmlns="http://www.w3.org/2000/svg">
<rect width="32" height="32" fill="#1C48A0"/>
<path d="M12.9831 9.771C10.9848 9.771 9.36426 11.3915 9.36426 13.3899V19.1801C9.36426 21.1784 10.9848 22.799 12.9831 22.799H18.7734C20.7717 22.799 22.3922 21.1784 22.3922 19.1801V13.3899C22.3922 11.3915 20.7717 9.771 18.7734 9.771H12.9831ZM20.2209 11.2186C20.6204 11.2186 20.9447 11.5428 20.9447 11.9423C20.9447 12.3419 20.6204 12.6661 20.2209 12.6661C19.8214 12.6661 19.4971 12.3419 19.4971 11.9423C19.4971 11.5428 19.8214 11.2186 20.2209 11.2186ZM15.8783 12.6661C17.8766 12.6661 19.4971 14.2866 19.4971 16.285C19.4971 18.2833 17.8766 19.9039 15.8783 19.9039C13.8799 19.9039 12.2594 18.2833 12.2594 16.285C12.2594 14.2866 13.8799 12.6661 15.8783 12.6661ZM15.8783 14.1137C15.3024 14.1137 14.7501 14.3424 14.3429 14.7496C13.9357 15.1568 13.7069 15.7091 13.7069 16.285C13.7069 16.8609 13.9357 17.4131 14.3429 17.8204C14.7501 18.2276 15.3024 18.4563 15.8783 18.4563C16.4541 18.4563 17.0064 18.2276 17.4136 17.8204C17.8208 17.4131 18.0496 16.8609 18.0496 16.285C18.0496 15.7091 17.8208 15.1568 17.4136 14.7496C17.0064 14.3424 16.4541 14.1137 15.8783 14.1137Z" fill="white"/>
</svg>
