<svg width="14" height="20" viewBox="0 0 14 20" fill="none" xmlns="http://www.w3.org/2000/svg">
<path d="M2.59158 1.15319L2.59132 1.15328C1.79144 1.40867 1.15357 2.10445 0.945118 3.0109L0.945079 3.01106C0.37656 5.48068 1.03624 8.60658 3.13083 12.4521C5.22673 16.2995 7.43606 18.4424 9.69845 19.1478L9.69894 19.148C10.4986 19.3979 11.3726 19.1818 11.9956 18.5568L2.59158 1.15319ZM2.59158 1.15319L3.66721 0.809309M2.59158 1.15319L3.66721 0.809309M3.66721 0.809309C3.66727 0.809291 3.66732 0.809274 3.66737 0.809257C3.66744 0.809234 3.66751 0.809212 3.66758 0.80919C4.2821 0.613292 4.97647 0.918533 5.26771 1.60462C5.26774 1.60468 5.26776 1.60473 5.26779 1.60479L6.12759 3.63232M3.66721 0.809309L6.12759 3.63232M6.12759 3.63232C6.38327 4.23598 6.23442 4.93933 5.78797 5.36374L6.12759 3.63232ZM4.84437 11.2573C4.19261 10.1359 3.79309 8.97785 3.66359 7.78688L3.62342 7.41749L3.89297 7.16174L5.78763 5.36406L4.84437 11.2573ZM4.84437 11.2573C5.46942 12.3515 6.30749 13.3092 7.30905 14.0739L7.62486 14.315L8.00174 14.1892L10.2771 13.4294L4.84437 11.2573ZM12.8126 17.7358L11.9959 18.5565L10.2777 13.4292C10.8064 13.2535 11.4018 13.4481 11.7499 13.9603L11.7503 13.9611L12.9831 15.7707C13.399 16.382 13.3181 17.2283 12.8128 17.7355L12.8126 17.7358Z" stroke="#1C48A0" stroke-width="1.5"/>
</svg>
