<svg width="20" height="20" viewBox="0 0 20 20" fill="none" xmlns="http://www.w3.org/2000/svg">
<path d="M10.317 5.04682L10.3172 5.04695C10.4251 5.13352 10.4883 5.26433 10.4883 5.40323V10.7694H11.2576C11.5094 10.7694 11.7141 10.9733 11.7141 11.2258V17.9677C11.7141 18.8954 10.9595 19.65 10.0318 19.65C9.10413 19.65 8.34956 18.8954 8.34956 17.9677V11.2258C8.34956 10.9733 8.55422 10.7694 8.80601 10.7694H9.57536V5.62241L8.21481 4.53397C8.2148 4.53396 8.21479 4.53395 8.21477 4.53394C8.01762 4.37672 7.98601 4.08912 8.1435 3.89243M10.317 5.04682L8.30832 4.41669C8.1762 4.31134 8.1548 4.11831 8.26059 3.98619L9.19831 2.8138C9.15859 2.78331 9.12052 2.75074 9.08427 2.71623M10.317 5.04682L9.1412 4.10626M10.317 5.04682L9.1412 4.10626M8.1435 3.89243L8.26059 3.98618L8.14345 3.89249L8.1435 3.89243ZM8.1435 3.89243L9.08427 2.71623M9.08427 2.71623C8.82252 2.46708 8.65601 2.11734 8.65601 1.72581C8.65601 0.966915 9.27292 0.35 10.0318 0.35C10.7907 0.35 11.4076 0.966915 11.4076 1.72581C11.4076 2.4847 10.7907 3.10161 10.0318 3.10161C10.004 3.10161 9.97547 3.09936 9.94919 3.09648L9.1412 4.10626M9.08427 2.71623L9.1412 4.10626M10.0318 1.2629C10.287 1.2629 10.4947 1.47062 10.4947 1.72581C10.4947 1.98099 10.287 2.18871 10.0318 2.18871C9.77663 2.18871 9.56891 1.98099 9.56891 1.72581C9.56891 1.47062 9.77663 1.2629 10.0318 1.2629ZM10.0318 18.7371C9.60784 18.7371 9.26246 18.3917 9.26246 17.9677V12.9081H10.8012V17.9677C10.8012 18.3917 10.4558 18.7371 10.0318 18.7371Z" fill="#333333" stroke="#333333" stroke-width="0.3"/>
<path d="M4.30645 2.48871H5.07581V10.7694H4.30645C4.05467 10.7694 3.85 10.9733 3.85 11.2258V17.9677C3.85 18.8954 4.60458 19.65 5.53226 19.65C6.45994 19.65 7.21452 18.8954 7.21452 17.9677V11.2258C7.21452 10.9733 7.00985 10.7694 6.75806 10.7694H5.98871V2.03226C5.98871 1.78033 5.78419 1.57581 5.53226 1.57581H4.7629V1.2629H6.45161H6.60161V1.1129V0.5V0.35H6.45161H4.30645C4.05452 0.35 3.85 0.554522 3.85 0.806452V2.03226C3.85 2.28419 4.05452 2.48871 4.30645 2.48871ZM5.53226 18.7371C5.10829 18.7371 4.7629 18.3917 4.7629 17.9677V12.9081H6.30161V17.9677C6.30161 18.3917 5.95623 18.7371 5.53226 18.7371Z" fill="#333333" stroke="#333333" stroke-width="0.3"/>
<path d="M15.7903 10.7694H15.0209V3.65137C15.7272 3.45194 16.2467 2.80223 16.2467 2.03226C16.2467 1.10458 15.4922 0.35 14.5645 0.35C13.6368 0.35 12.8822 1.10458 12.8822 2.03226C12.8822 2.80193 13.4018 3.45191 14.108 3.65137V10.7694H13.3387C13.0869 10.7694 12.8822 10.9733 12.8822 11.2258V17.9677C12.8822 18.8954 13.6368 19.65 14.5645 19.65C15.4922 19.65 16.2467 18.8954 16.2467 17.9677V11.2258C16.2467 10.9733 16.0421 10.7694 15.7903 10.7694ZM13.7951 2.03226C13.7951 1.60829 14.1405 1.2629 14.5645 1.2629C14.9885 1.2629 15.3338 1.60829 15.3338 2.03226C15.3338 2.45623 14.9885 2.80161 14.5645 2.80161C14.1405 2.80161 13.7951 2.45623 13.7951 2.03226ZM14.5645 18.7371C14.1405 18.7371 13.7951 18.3917 13.7951 17.9677V12.9081H15.3338V17.9677C15.3338 18.3917 14.9885 18.7371 14.5645 18.7371Z" fill="#333333" stroke="#333333" stroke-width="0.3"/>
</svg>
