<svg width="20" height="20" viewBox="0 0 20 20" fill="none" xmlns="http://www.w3.org/2000/svg">
<g clip-path="url(#clip0_1368_47475)">
<path d="M15.9405 9.59103L15.9405 9.59108C15.9586 9.65708 16.0573 9.90329 16.193 10.2304C16.3251 10.5487 16.4882 10.934 16.6345 11.2797L16.6405 11.2939C16.9067 11.9224 17.1831 12.5753 17.3164 12.9203C17.6284 13.7268 17.7017 14.618 17.7544 15.2574L17.7547 15.261C17.7669 15.4092 17.7803 15.5724 17.7964 15.7127C17.8045 15.7829 17.813 15.8461 17.8222 15.8982C17.8297 15.941 17.837 15.9722 17.8434 15.9925L19.6893 18.1716C19.8371 18.3455 19.8151 18.6058 19.6415 18.753C19.4675 18.9012 19.2073 18.8785 19.0603 18.7051L19.0603 18.7051L17.1791 16.4856C17.179 16.4855 17.1789 16.4854 17.1789 16.4853C17.123 16.42 17.0846 16.328 17.0564 16.2334C17.0275 16.1365 17.0063 16.0261 16.9901 15.916C16.964 15.7384 16.9499 15.5535 16.9396 15.4176C16.9372 15.3855 16.935 15.3561 16.9328 15.3302M15.9405 9.59103L9.06437 7.97326L9.1509 7.92312C9.15087 7.92309 9.15085 7.92305 9.15083 7.92301C8.73881 7.21187 8.39088 6.60135 8.15765 6.12524C8.04097 5.88705 7.9546 5.68568 7.90323 5.52415C7.85024 5.35755 7.84074 5.25157 7.85625 5.19391L7.85634 5.19356L7.85658 5.19267C7.85858 5.18509 7.85994 5.17996 7.86711 5.17055C7.87608 5.15877 7.89761 5.13656 7.94824 5.10747L7.94825 5.10746C7.9566 5.10266 7.96419 5.09846 7.97105 5.09477C7.97181 5.09554 7.97258 5.09632 7.97336 5.09712C7.99384 5.11812 8.01872 5.14775 8.04807 5.18668C8.10671 5.26448 8.17827 5.37276 8.26203 5.50814C8.4294 5.77865 8.64024 6.14868 8.88623 6.58056L8.88624 6.58058C8.89694 6.59936 8.90774 6.61832 8.91865 6.63746C9.09348 6.94426 9.29551 7.2988 9.5319 7.70682L9.53222 7.70736C9.63662 7.885 9.73792 8.06053 9.8364 8.23118C10.147 8.7694 10.4297 9.25918 10.6938 9.61423C10.8676 9.84786 11.0413 10.0346 11.2192 10.1383C11.4039 10.246 11.5983 10.2661 11.7907 10.1556L11.7908 10.1555C11.9286 10.0763 12.0151 9.96006 12.0562 9.81097C12.0961 9.6664 12.0924 9.49492 12.0617 9.3013C12.001 8.91717 11.8267 8.40487 11.6077 7.76111L11.6047 7.75232C11.6047 7.75231 11.6047 7.7523 11.6047 7.7523C11.45 7.29728 11.4217 7.21046 11.3796 7.08147C11.3576 7.01407 11.3319 6.93516 11.2824 6.7862C11.0061 5.94801 10.8331 5.40553 10.7772 5.04321C10.7494 4.86265 10.7528 4.73873 10.7797 4.65041C10.8 4.58377 10.8349 4.53316 10.8897 4.49141C10.8996 4.49927 10.9113 4.50995 10.9245 4.52437C10.957 4.55974 10.9931 4.61069 11.0323 4.6779C11.1106 4.81224 11.1943 4.9992 11.2827 5.22521C11.431 5.60402 11.588 6.08035 11.7523 6.57879C11.7839 6.67476 11.8158 6.77155 11.848 6.86861C12.0464 7.46739 12.2544 8.07617 12.4671 8.55651C12.5734 8.79657 12.6824 9.00816 12.7939 9.17167C12.9031 9.33191 13.0244 9.46076 13.1607 9.51366L13.1969 9.42044M15.9405 9.59103C15.7862 9.03206 15.6233 8.36612 15.465 7.71939L15.4621 7.70761L15.4621 7.7076M15.9405 9.59103L15.4621 7.7076M16.9328 15.3302L17.0325 15.322L16.9328 15.3302C16.9328 15.3302 16.9328 15.3302 16.9328 15.3302ZM16.9328 15.3302C16.8801 14.6907 16.8154 13.9121 16.5474 13.2193L16.5473 13.2193C16.419 12.8871 16.1464 12.2428 15.8813 11.6169L15.8813 11.6169C15.67 11.1177 15.4991 10.7127 15.3749 10.4107C15.252 10.1116 15.172 9.90664 15.1458 9.81216L15.1458 9.81204C14.991 9.25093 14.8294 8.59139 14.6728 7.95201L14.6613 7.90518L14.6613 7.90513C14.4027 6.8475 14.1372 5.76481 13.9217 5.19354L13.9217 5.19351C13.8295 4.94859 13.7542 4.81251 13.7033 4.73879C13.6972 4.7299 13.6914 4.72198 13.6861 4.71494C13.6833 4.72607 13.6805 4.73924 13.6779 4.75469C13.6684 4.80896 13.6622 4.87965 13.6591 4.96464C13.6529 5.13432 13.6596 5.3512 13.6738 5.58781C13.7022 6.06056 13.76 6.6022 13.8007 6.98295L13.8007 6.98297C13.8809 7.7353 13.936 8.29007 13.9226 8.68369C13.9093 9.07272 13.8283 9.34696 13.5907 9.48341C13.459 9.5596 13.3043 9.56989 13.1604 9.51356L13.1969 9.42044M13.1969 9.42044C12.7351 9.24113 12.2707 7.83232 11.8475 6.54826C11.4874 5.45579 11.1571 4.45362 10.8834 4.37576L13.7012 6.99357C13.8622 8.50357 13.9175 9.18044 13.5409 9.39669C13.4362 9.45732 13.3134 9.46607 13.1969 9.42044ZM15.4621 7.7076L15.4593 7.69611C15.1864 6.58157 14.9264 5.51957 14.6929 4.90081M15.4621 7.7076L14.6929 4.90081M10.5082 3.75661C10.7677 3.60702 10.999 3.64224 11.1465 3.69939L11.1465 3.69942C11.4117 3.80247 11.629 4.05273 11.8576 4.5108C12.0871 4.97082 12.3376 5.66077 12.6581 6.67369C12.804 7.13409 12.9374 7.51246 13.0546 7.81594C13.0316 7.55879 13.0035 7.29495 12.9793 7.06889L12.9793 7.06886C12.8877 6.21001 12.8207 5.52443 12.8402 5.01758C12.8594 4.51838 12.9633 4.14723 13.2615 3.97546C13.2615 3.97542 13.2616 3.97538 13.2617 3.97534L13.2621 3.9751C13.3403 3.92973 13.6073 3.77475 13.9288 3.89041M10.5082 3.75661L14.6929 4.90077C14.6929 4.90078 14.6929 4.9008 14.6929 4.90081M10.5082 3.75661C10.2815 3.88704 10.1244 4.049 10.0316 4.25195C9.9396 4.45334 9.91528 4.68564 9.93673 4.94982C9.97895 5.46994 10.2029 6.14924 10.493 7.02923L10.4978 7.04394L10.4979 7.04417M10.5082 3.75661L10.4979 7.04417M13.9288 3.89041L13.895 3.9845L13.9288 3.89037C13.9288 3.89039 13.9288 3.8904 13.9288 3.89041ZM13.9288 3.89041C14.2505 4.00581 14.4814 4.33933 14.6929 4.90081M10.4979 7.04417C10.5309 7.14353 10.5545 7.21555 10.5775 7.28553C10.6291 7.44325 10.6774 7.59056 10.8225 8.01703L10.824 8.02134C10.8874 8.20799 10.9574 8.41402 11.0226 8.61523C10.7908 8.24236 10.5415 7.80834 10.3398 7.45715C10.3069 7.39982 10.2752 7.3447 10.2451 7.29241L10.2449 7.29216M10.4979 7.04417L10.2449 7.29216M10.2449 7.29216C10.018 6.90065 9.82273 6.55813 9.65271 6.25985C9.63561 6.22987 9.61877 6.20032 9.60218 6.17122L9.59733 6.16271C9.21935 5.4992 8.9689 5.05955 8.7657 4.77385C8.56056 4.48541 8.39135 4.33569 8.16906 4.2752L8.1688 4.27513M10.2449 7.29216L8.1688 4.27513M8.1688 4.27513C7.90479 4.20406 7.683 4.30675 7.53609 4.39125M8.1688 4.27513L7.05871 4.97927M7.05871 4.97927L7.05871 4.97926C7.1254 4.73023 7.28968 4.53293 7.53609 4.39125M7.05871 4.97927C6.97281 5.30006 7.05455 5.67646 7.28085 6.19332C7.50818 6.71254 7.89148 7.3947 8.43659 8.33557C8.72961 8.84147 8.99246 9.36438 9.18752 9.79388C8.95222 9.53145 8.70447 9.22829 8.51213 8.99281L8.43468 9.05607M7.05871 4.97927L8.43468 9.05607M7.53609 4.39125L7.58593 4.47794L7.53607 4.39126C7.53608 4.39126 7.53608 4.39125 7.53609 4.39125ZM8.43468 9.05607L8.51213 8.99281L8.50896 8.98892C8.06234 8.44216 7.65391 7.94215 7.2786 7.62472C7.09009 7.46528 6.90264 7.34538 6.71579 7.29093C6.52487 7.23529 6.33622 7.24874 6.15602 7.35254C5.92573 7.48495 5.76633 7.68575 5.69997 7.9333L5.69997 7.93331C5.61015 8.26844 5.69688 8.64688 5.93129 9.05059C6.06242 9.27718 6.42814 9.75627 6.92369 10.4054L6.94426 10.4324L6.94427 10.4324C7.33034 10.9379 7.90464 11.6899 8.41585 12.4045C8.67148 12.7619 8.91069 13.109 9.10242 13.4107C9.21186 13.583 9.3045 13.7384 9.37569 13.8713C9.29165 13.8208 9.19985 13.7616 9.10442 13.6975C8.90091 13.5609 8.68778 13.4066 8.50936 13.2775L8.50647 13.2754L8.50644 13.2754L8.4981 13.2693C8.03411 12.9332 7.55304 12.5848 7.10508 12.368C6.65819 12.1517 6.21081 12.0499 5.83794 12.2644L5.83794 12.2644C5.51385 12.4509 5.30446 12.6986 5.23615 13.0046C5.18448 13.2351 5.19263 13.4209 5.27448 13.5924C5.35401 13.7591 5.4977 13.9001 5.68727 14.0535C5.79518 14.1409 5.92007 14.234 6.06268 14.3404C6.4289 14.6136 6.91199 14.974 7.52449 15.5469L7.5246 15.547C7.62645 15.642 7.72751 15.7377 7.82948 15.8344C8.46342 16.435 9.13273 17.0691 10.246 17.761L10.246 17.761C10.8477 18.1348 11.5259 18.3785 12.0722 18.5475C12.25 18.6025 12.4162 18.6502 12.5605 18.6917C12.6369 18.7137 12.7073 18.7339 12.77 18.7525C12.8617 18.7798 12.937 18.8035 12.9943 18.8247C13.0389 18.8413 13.0658 18.854 13.0802 18.8622C13.2235 19.1156 13.3285 19.4168 13.3551 19.4933C13.3565 19.4974 13.3577 19.5008 13.3587 19.5036L13.3587 19.5036C13.3991 19.6278 13.4796 19.7124 13.5787 19.7555C13.6756 19.7976 13.7833 19.7972 13.8778 19.7667C13.9722 19.7362 14.0598 19.6735 14.1136 19.5823C14.1685 19.4891 14.1837 19.3731 14.1432 19.2483L14.1432 19.2481L14.1431 19.2479C14.136 19.2264 13.9943 18.7935 13.7834 18.4294L13.7834 18.4294C13.6928 18.2731 13.5217 18.1674 13.3201 18.0813C13.1205 17.9962 12.8713 17.9225 12.5984 17.8418L12.5808 17.8366C12.0166 17.6698 11.3354 17.4663 10.6815 17.0599C9.65264 16.4203 9.01304 15.8163 8.36855 15.2076C8.27551 15.1198 8.18236 15.0318 8.08793 14.9436C7.49816 14.3922 6.35281 13.5014 6.04732 13.2658C6.03919 13.2399 6.03482 13.2099 6.04154 13.1822L5.94437 13.1586M8.43468 9.05607L10.6287 17.1448C9.59086 16.4997 8.94423 15.8889 8.29954 15.28C8.2066 15.1922 8.1137 15.1045 8.01968 15.0167C7.41843 14.4545 6.23156 13.5339 5.96374 13.3276C5.94749 13.2898 5.92812 13.2254 5.94437 13.1586M5.94437 13.1586C5.97249 13.0439 6.09874 12.9504 6.19937 12.8926C6.50187 12.7186 7.49031 13.4345 8.08093 13.8626L8.08284 13.864C8.95217 14.4939 9.58064 14.9493 10.0359 14.6864M5.94437 13.1586L6.04149 13.1824C6.04905 13.1516 6.07238 13.1156 6.11327 13.077C6.15319 13.0394 6.20268 13.0061 6.24919 12.9793L6.24924 12.9793C6.26397 12.9708 6.2906 12.9636 6.33629 12.9666C6.38154 12.9695 6.43814 12.9821 6.5056 13.0052C6.64059 13.0513 6.80419 13.1339 6.98145 13.238C7.3353 13.4459 7.72609 13.7289 8.02224 13.9436L8.02226 13.9436L8.03075 13.9498C8.45978 14.2606 8.83949 14.5358 9.16955 14.6993C9.50012 14.863 9.8126 14.9307 10.0858 14.7731M10.0359 14.6864L10.0858 14.7731M10.0359 14.6864C10.1462 14.6229 10.2212 14.5164 10.2472 14.3861L10.0359 14.6864ZM10.0858 14.7731C10.2223 14.6946 10.3139 14.5629 10.3452 14.4058M10.0858 14.7731L10.3452 14.4058M5.88781 12.3511C6.54108 11.9753 7.50797 12.6756 8.44441 13.3539L8.44781 13.3564L8.45138 13.359C8.75647 13.5798 9.16796 13.8776 9.4566 14.0326L5.88781 12.3511ZM5.88781 12.3511C5.58093 12.5276 5.39437 12.7548 5.33374 13.0264L5.88781 12.3511ZM10.3452 14.4058C10.3791 14.2373 10.3372 14.0323 10.2388 13.7907C10.1395 13.5468 9.97676 13.2518 9.75116 12.8972C9.29984 12.1878 8.58757 11.2256 7.59978 9.93224L7.52031 9.99294L7.59978 9.93224C7.37075 9.6324 7.15788 9.35364 6.98864 9.12635C6.81798 8.89715 6.6957 8.72557 6.64463 8.63748L6.64462 8.63745C6.58034 8.52664 6.53622 8.42498 6.51214 8.33865C6.48756 8.25053 6.48627 8.18709 6.49688 8.14766L6.49691 8.14755C6.50129 8.13119 6.50815 8.11334 6.5231 8.09627C6.53393 8.10056 6.54802 8.10721 6.56572 8.11742C6.60556 8.1404 6.65384 8.17555 6.70948 8.22225C6.82057 8.31548 6.95181 8.4469 7.09034 8.59679C7.3664 8.89549 7.66274 9.25805 7.87211 9.5142L7.87348 9.51589L7.8735 9.51592L7.87537 9.5182C8.30425 10.0433 8.69668 10.5237 9.05615 10.8294C9.23651 10.9828 9.41587 11.0987 9.59445 11.152C9.77705 11.2065 9.95773 11.1949 10.1298 11.0959C10.1298 11.0959 10.1298 11.0959 10.1299 11.0959L10.08 11.0092C10.1519 10.9679 10.2194 10.877 10.2409 10.7967L10.3375 10.8226C10.3375 10.8226 10.3375 10.8226 10.3375 10.8226L10.3452 14.4058ZM7.75968 5.16794C7.76656 5.14201 7.78093 5.08825 7.89843 5.02075L7.75968 5.16794ZM7.02374 10.3717C7.75027 11.3229 9.14764 13.1527 9.53291 13.9598L7.02374 10.3717Z" fill="#333333" stroke="#333333" stroke-width="0.2"/>
<path d="M10.0417 18.2278L10.0421 18.2277C10.2589 18.1602 10.4908 18.2798 10.5593 18.4975L10.5594 18.4976C10.6274 18.7145 10.5071 18.9463 10.2896 19.0148L10.2896 19.0148C8.42306 19.6023 6.86932 19.9438 6.03271 19.9438C5.81576 19.9438 5.63561 19.7756 5.62076 19.559L5.62075 19.5588C5.61276 19.4387 5.56138 19.171 5.48418 18.8199C5.40773 18.4722 5.30797 18.0513 5.20626 17.6303C5.15202 17.4058 5.09711 17.1808 5.0449 16.9669C4.90208 16.3817 4.7794 15.879 4.74561 15.6943L4.74559 15.6942C4.70479 15.47 4.85316 15.255 5.07729 15.2141L5.07838 15.214L5.07838 15.214C5.30308 15.1756 5.51636 15.3211 5.55735 15.5458L10.0417 18.2278ZM10.0417 18.2278C8.52745 18.7045 7.21626 19.0152 6.40698 19.0973M10.0417 18.2278L6.40698 19.0973M6.40698 19.0973C6.38409 18.9583 6.33712 18.7424 6.27807 18.4888C6.20129 18.159 6.10183 17.7564 6.00133 17.3549C5.95675 17.1768 5.91206 16.9993 5.86908 16.8285C5.71735 16.2258 5.58684 15.7073 5.55736 15.5458L6.40698 19.0973Z" fill="#333333" stroke="#333333" stroke-width="0.2"/>
<path d="M19.0194 12.2936L19.0195 12.2936L19.0276 12.304C19.2301 12.5628 19.4543 12.8492 19.7066 13.1929M19.0194 12.2936L18.5651 14.7852L18.6285 14.8625C19.1321 14.4493 19.5056 14.0391 19.7325 13.642L19.7326 13.6419C19.8132 13.5004 19.8036 13.3243 19.7066 13.1929M19.0194 12.2936C18.6301 11.7964 18.3335 11.4173 18.0635 10.9338C17.7938 10.4508 17.5489 9.86034 17.2695 8.94236C17.0725 8.29419 16.8634 7.34596 16.6409 6.33559L16.6407 6.33465C16.3847 5.17215 16.1106 3.92783 15.7955 2.85249C15.4817 1.78196 15.1222 0.859843 14.6872 0.355674C14.5459 0.191235 14.3008 0.164981 14.1276 0.29491L14.1276 0.294912M19.0194 12.2936L14.1276 0.294912M19.7066 13.1929L19.626 13.2521L19.7064 13.1927C19.7065 13.1927 19.7066 13.1928 19.7066 13.1929ZM14.1276 0.294912C12.8901 1.22307 11.4169 1.49999 9.96578 1.7713C9.96578 1.7713 9.96578 1.7713 9.96577 1.7713L9.96064 1.77226C8.86234 1.97747 7.71066 2.19265 6.66805 2.70225L6.66804 2.70226M14.1276 0.294912L6.66804 2.70226M6.66804 2.70226C6.07016 2.99454 5.28633 3.5958 4.39378 4.28045L4.38141 4.28994L4.3814 4.28995M6.66804 2.70226L4.3814 4.28995M4.3814 4.28995C3.7411 4.78124 3.06091 5.30304 2.39209 5.75565C1.7225 6.20878 1.06985 6.58867 0.485301 6.79894C0.311977 6.86126 0.201063 7.03119 0.213438 7.21476L0.21344 7.21479M4.3814 4.28995L0.21344 7.21479M0.21344 7.21479C0.305669 8.57749 1.17255 9.80383 2.14991 11.1865L2.16155 11.2029C2.16155 11.2029 2.16155 11.2029 2.16155 11.2029C3.06258 12.4779 4.07576 13.9121 4.76032 15.7689L4.76035 15.769M0.21344 7.21479L4.76035 15.769M4.76035 15.769C4.80564 15.8915 4.88943 15.9728 4.99011 16.012C5.08847 16.0503 5.19608 16.0459 5.28932 16.0118C5.38256 15.9777 5.4677 15.9117 5.51786 15.8186C5.56922 15.7233 5.57988 15.6069 5.53455 15.4838L5.53454 15.4838M4.76035 15.769L5.53454 15.4838M5.53454 15.4838C4.81206 13.5238 3.75986 12.0351 2.83804 10.7309L2.83519 10.7269C2.39839 10.1089 1.99321 9.53532 1.67692 8.98167C1.3761 8.45511 1.15915 7.95229 1.07224 7.45379C2.29653 6.92933 3.66754 5.87745 4.87576 4.95047L4.88346 4.94456L4.88347 4.94455M5.53454 15.4838L4.88347 4.94455M4.88347 4.94455C5.72617 4.29784 6.5085 3.69857 7.03026 3.4435L7.03027 3.44349M4.88347 4.94455L7.03027 3.44349M7.03027 3.44349C7.96938 2.98425 9.0043 2.79025 10.1169 2.58227L10.125 2.58076C11.5135 2.32126 12.9668 2.04967 14.2742 1.19807M7.03027 3.44349L14.2742 1.19807M14.2742 1.19807C14.5737 1.70799 14.8507 2.51817 15.1059 3.44611C15.3752 4.42543 15.617 5.52337 15.8349 6.51298L15.8349 6.51299L15.8391 6.53186C16.0622 7.54452 16.274 8.50572 16.48 9.18244C16.7787 10.1648 17.0501 10.8145 17.3489 11.3478C17.6469 11.8799 17.9706 12.293 18.3676 12.7998L18.3695 12.8022L18.3695 12.8022L18.3795 12.815C18.5309 13.0084 18.6936 13.2163 18.8715 13.4524L14.2742 1.19807ZM18.1054 14.2248L18.1688 14.3021L18.1054 14.2248C18.1054 14.2248 18.1054 14.2248 18.1054 14.2248Z" fill="#333333" stroke="#333333" stroke-width="0.2"/>
</g>
<defs>
<clipPath id="clip0_1368_47475">
<rect width="20" height="20" fill="white"/>
</clipPath>
</defs>
</svg>
