<svg width="156" height="31" viewBox="0 0 156 31" fill="none" xmlns="http://www.w3.org/2000/svg">
<path d="M58.423 0.415527C50.1936 0.415527 43.5234 7.16837 43.5234 15.4998C43.5234 23.8312 50.1936 30.5841 58.423 30.5841C66.6524 30.5841 73.3226 23.8312 73.3226 15.4998C73.3226 7.16837 66.6524 0.415527 58.423 0.415527ZM68.3602 23.067L59.4625 18.4064C59.0789 18.206 58.6086 18.2811 58.2992 18.5943L51.2207 25.7731C51.0846 25.911 50.8495 25.7481 50.9361 25.5727L55.5396 16.5647C55.7376 16.1763 55.6634 15.7003 55.354 15.387L48.2631 8.22076C48.127 8.08295 48.2878 7.84491 48.4611 7.93261L57.3587 12.5932C57.7424 12.7937 58.2126 12.7185 58.522 12.4053L65.6005 5.22646C65.7367 5.08864 65.9718 5.25152 65.8852 5.42691L61.294 14.4474C61.096 14.8358 61.1703 15.3119 61.4796 15.6251L68.5705 22.7914C68.7067 22.9292 68.5334 23.1547 68.3602 23.067Z" fill="#007BC2"/>
<path d="M74.4863 1.26733H83.9409V21.6637H93.8162L91.1555 29.9074H74.4863V1.26733Z" fill="#007BC2"/>
<path d="M0 1.26733V29.9074H21.3965V21.6637H9.45454V19.3334H19.8125V11.8664H9.45454V9.52359H21.3965V1.27986H0V1.26733Z" fill="#007BC2"/>
<path d="M38.8073 21.6637C34.8844 21.6637 32.001 19.4461 32.001 15.5874C32.001 11.7286 34.8349 9.51107 38.8073 9.51107H43.1509V1.26733H36.6416C27.1252 1.26733 22.002 7.3687 22.002 15.5874C22.002 23.806 27.1623 29.9074 36.6788 29.9074H43.1385V21.6637H38.8073Z" fill="#007BC2"/>
<path d="M125.422 1.25488H140.334C145.915 1.25488 149.244 4.48723 149.244 8.72185C149.244 12.3175 147.449 14.2845 145.135 15.0487V15.1239C147.784 15.9007 150.147 18.1307 150.147 21.7013C150.147 26.7754 146.781 29.895 140.272 29.895H125.422V1.25488ZM134.654 18.3562V23.3927H137.809C139.74 23.3927 140.581 22.5658 140.581 20.8745C140.581 19.2708 139.777 18.3562 137.809 18.3562H134.654ZM134.629 7.61935V11.9792H137.525C139.307 11.9792 139.987 11.1524 139.987 9.7993C139.987 8.346 139.282 7.61935 137.525 7.61935H134.629Z" fill="#007BC2"/>
<path d="M124.295 29.9076H114.012L112.997 26.0739H104.087L103.084 29.9076H92.8008L101.711 1.24243H115.422L124.295 29.9076ZM108.616 9.16042H108.492L105.943 18.9076H111.165L108.616 9.16042Z" fill="#007BC2"/>
<path d="M153.166 7.10571C151.557 7.10571 150.332 5.94057 150.332 4.23669C150.332 2.52029 151.557 1.36768 153.166 1.36768C154.775 1.36768 156 2.53282 156 4.23669C156 5.95309 154.775 7.10571 153.166 7.10571ZM153.166 1.731C151.78 1.731 150.716 2.75833 150.716 4.23669C150.716 5.71505 151.78 6.74239 153.166 6.74239C154.552 6.74239 155.616 5.71505 155.616 4.23669C155.616 2.75833 154.564 1.731 153.166 1.731ZM153.698 4.41209L154.391 5.77769H153.908L153.228 4.44968H152.547V5.77769H152.126V2.60799H153.401C153.97 2.60799 154.403 2.89615 154.403 3.52257C154.428 3.99865 154.144 4.31186 153.698 4.41209ZM153.401 2.97132H152.572V4.04877H153.352C153.797 4.04877 154.007 3.8859 154.007 3.52257C154.007 3.15924 153.785 2.97132 153.401 2.97132Z" fill="#007BC2"/>
</svg>
