<svg width="116" height="30" viewBox="0 0 116 30" fill="none" xmlns="http://www.w3.org/2000/svg">
<g clip-path="url(#clip0_1086_38638)">
<path d="M35.0232 20.9998C32.6419 20.9998 30.7148 19.0957 30.7148 16.3212C30.7148 13.4242 32.3666 11.3569 35.2296 11.3569C37.5146 11.3569 39.538 13.0842 39.538 16.0356C39.538 18.8645 37.9 20.9998 35.0232 20.9998ZM35.0507 13.0026C33.6605 13.0026 32.6557 14.1315 32.6557 16.0356C32.6557 18.2797 33.4815 19.3813 35.2021 19.3813C36.6612 19.3813 37.5972 18.3477 37.5972 16.294C37.5972 14.1043 36.6474 12.9917 35.0507 12.9917V13.0026Z" fill="#333333"/>
<path d="M46.6267 15.8587C46.379 15.4371 45.677 15.0971 44.6171 15.0971C44.0892 15.0948 43.5815 15.2973 43.2032 15.661C42.8248 16.0247 42.606 16.5206 42.5937 17.042C42.5937 18.3749 43.3921 19.2861 44.6446 19.2861C45.7045 19.2861 46.3377 18.9461 46.5992 18.6061H46.668V19.4493C46.668 20.3334 45.8009 20.9726 44.4657 20.9726C43.9728 20.9801 43.4832 20.8914 43.0251 20.7113C42.567 20.5313 42.1495 20.2636 41.7964 19.9237C41.4434 19.5837 41.1618 19.1781 40.968 18.7302C40.7741 18.2824 40.6717 17.8011 40.6667 17.314C40.6667 15.2195 42.1395 13.4242 44.6722 13.4242C45.8559 13.4242 46.6956 14.1315 46.6956 15.0019V15.8587H46.6267Z" fill="#333333"/>
<path d="M51.1415 20.9862C49.6687 20.9862 47.9619 20.5238 47.9619 18.5109V13.4922H48.2785C49.3521 13.4922 49.8064 13.941 49.8064 14.7979V16.09C50.2497 15.8454 50.7445 15.7057 51.2517 15.6819C53.0273 15.6819 54.2248 16.838 54.2248 18.3613C54.2248 19.8845 53.0686 20.9862 51.1415 20.9862ZM50.9626 17.0719C50.5545 17.0985 50.1584 17.2197 49.8064 17.4255V18.5544C49.8064 19.2616 50.5497 19.5336 51.1553 19.5336C51.8848 19.5336 52.3528 19.0984 52.3528 18.3096C52.3528 17.5207 51.7444 17.0719 50.9626 17.0719Z" fill="#333333"/>
<path d="M63.6261 20.8366C62.9516 20.8366 62.5111 20.483 62.5111 19.7485C62.5111 19.0141 62.3873 16.9468 62.2634 15.8179C62.1533 16.09 62.0156 16.4436 61.8642 16.8788C61.6027 17.6676 60.9007 19.8437 60.3776 20.823H59.9785C59.3591 20.823 58.9186 20.347 58.3955 18.8237C58.1615 18.1301 57.7211 16.5932 57.3632 15.7907C57.1842 17.314 57.0466 19.5173 57.0466 20.823H56.3446C56.1987 20.8275 56.0535 20.8025 55.9178 20.7494C55.7822 20.6963 55.6589 20.6163 55.5557 20.5144C55.4526 20.4124 55.3716 20.2907 55.3179 20.1566C55.2642 20.0225 55.2388 19.879 55.2434 19.7349C55.306 17.6313 55.5593 15.5375 56.0005 13.4786H56.6749C58.4506 13.4786 58.9874 15.7771 59.4554 17.1236C59.6068 17.5452 59.6756 17.9804 59.8546 18.3885C60.1987 17.382 60.6529 16.09 61.0246 15.1651C61.2627 14.5459 61.6124 13.9745 62.0569 13.4786H62.4423C63.4196 13.4786 63.8601 14.0635 63.984 15.0427C64.1767 16.634 64.4107 18.8781 64.4382 20.823L63.6261 20.8366Z" fill="#333333"/>
<path d="M69.5724 20.9318C67.0673 20.9318 65.9248 19.7893 65.9248 17.5044V13.4922H66.2414C67.315 13.4922 67.7693 13.941 67.7693 14.7979V17.5724C67.7693 18.8509 68.3611 19.3813 69.4761 19.3813C69.8565 19.3806 70.2354 19.335 70.6048 19.2453V13.4922H70.9214C71.995 13.4922 72.4492 13.941 72.4492 14.7979V20.5102C71.5149 20.7828 70.5466 20.9247 69.5724 20.9318Z" fill="#333333"/>
<path d="M80.3226 20.8366C79.4417 20.8366 78.9324 20.3878 78.9324 19.5309V17.722H76.0831V20.8366H75.6289C74.748 20.8366 74.2387 20.3878 74.2387 19.5309V13.4922H74.5553C75.6289 13.4922 76.0831 13.941 76.0831 14.7979V16.3076H78.9324V13.4922H79.249C80.3226 13.4922 80.7769 13.941 80.7769 14.7979V20.8366H80.3226Z" fill="#333333"/>
<path d="M85.7321 20.9998C83.5023 20.9998 82.2222 19.2453 82.2222 17.3004C82.2222 15.0971 83.5023 13.329 85.8973 13.329C88.1272 13.329 89.4073 15.0971 89.4073 17.042C89.4073 19.248 88.1272 20.9998 85.7321 20.9998ZM85.7321 14.9611C84.6723 14.9611 84.1354 15.8315 84.1354 17.042C84.1354 18.4973 84.6723 19.3677 85.8973 19.3677C86.971 19.3677 87.494 18.4973 87.494 17.3004C87.494 15.8315 86.9434 14.9611 85.7321 14.9611Z" fill="#333333"/>
<path d="M98.3405 16.8652C98.8534 17.6421 99.4142 18.387 100.02 19.0957C100.625 19.7485 100.873 19.8709 101.355 19.9797C101.259 20.551 100.956 20.891 100.171 20.891C99.9612 20.8935 99.7528 20.8538 99.5588 20.7743C99.3648 20.6948 99.1891 20.5772 99.0425 20.4286C98.134 19.4629 97.4045 18.3477 96.6199 17.2868V20.823H96.1657C95.2847 20.823 94.7755 20.3742 94.7755 19.5173V17.2732C93.9771 18.3341 93.2613 19.4493 92.3529 20.415C92.2029 20.5629 92.0246 20.6799 91.8285 20.7593C91.6324 20.8386 91.4223 20.8788 91.2104 20.8774C90.4258 20.8774 90.123 20.5374 90.0267 19.9661C90.5084 19.8573 90.7562 19.7349 91.3618 19.0821C91.9717 18.3768 92.5328 17.6316 93.0411 16.8516C92.1 15.6942 91.0877 14.595 90.0101 13.5602V13.4922H91.304C91.9372 13.4922 92.24 13.6418 92.4602 13.873C93.2968 14.7605 94.0739 15.7009 94.7865 16.6884V13.4922H95.1031C96.1767 13.4922 96.6309 13.941 96.6309 14.7979V16.702C97.3391 15.715 98.1116 14.7745 98.9434 13.8866C99.1774 13.6554 99.4802 13.5058 100.1 13.5058H101.407V13.5738C100.32 14.6103 99.2962 15.7093 98.3405 16.8652Z" fill="#333333"/>
<path d="M107.99 20.8801C107.536 20.8683 107.104 20.6887 106.778 20.3769C105.848 19.3903 104.984 18.3455 104.19 17.2487V20.8393H103.599C102.745 20.8393 102.332 20.4041 102.332 19.5472V13.4922H102.924C103.819 13.4922 104.19 13.9955 104.19 14.7027V16.634C104.876 15.6879 105.635 14.7966 106.462 13.9682C106.902 13.5602 107.343 13.4922 107.934 13.4922H109.005V13.5602C107.932 14.6121 106.92 15.7247 105.977 16.8924C106.569 17.6132 107.147 18.3613 107.808 19.0277C108.469 19.6941 108.785 19.8437 109.239 19.9797C109.049 20.5646 108.747 20.8801 107.99 20.8801Z" fill="#333333"/>
<path d="M113.193 20.959H112.821C111.059 20.959 109.848 19.9797 109.848 18.6333C109.848 17.3276 110.811 16.3348 113.537 16.3348H114.184V16.2396C114.184 15.2059 113.688 14.8795 112.587 14.8795C111.252 14.8795 110.508 15.3827 110.233 15.7227H110.164V15.1515C110.164 14.3355 110.908 13.3562 112.862 13.3562C114.514 13.3562 116.001 14.1179 116.001 16.6476V18.3341C116.001 19.8845 114.844 20.959 113.193 20.959ZM114.197 17.6404H113.537C112.133 17.6404 111.734 17.9668 111.734 18.5653C111.734 19.1637 112.202 19.4765 113.014 19.4765C113.826 19.4765 114.197 19.0957 114.197 18.3477V17.6404Z" fill="#333333"/>
<path d="M30.9297 26.8604V23.3535H31.3073V26.8604H30.9297Z" fill="#333333"/>
<path d="M33.7603 24.2052C33.978 24.2052 34.1685 24.2469 34.3318 24.3304C34.4985 24.4106 34.6277 24.5341 34.7196 24.7011C34.8148 24.8681 34.8625 25.0785 34.8625 25.3324V26.8604H34.5002V25.3674C34.5002 25.0902 34.4287 24.8815 34.2859 24.7412C34.1464 24.5976 33.9491 24.5258 33.694 24.5258C33.5035 24.5258 33.3368 24.5642 33.1939 24.641C33.0545 24.7145 32.9456 24.823 32.8674 24.9667C32.7926 25.1069 32.7551 25.2773 32.7551 25.4777V26.8604H32.3929V24.2302H32.7398V24.9516L32.6837 24.8164C32.7687 24.626 32.9048 24.4774 33.0919 24.3705C33.279 24.2603 33.5018 24.2052 33.7603 24.2052Z" fill="#333333"/>
<path d="M36.688 26.8854C36.4363 26.8854 36.2424 26.8186 36.1063 26.685C35.9703 26.5514 35.9022 26.3627 35.9022 26.1189V23.6491H36.2645V26.0989C36.2645 26.2525 36.3036 26.3711 36.3819 26.4546C36.4635 26.5381 36.5792 26.5798 36.7288 26.5798C36.8887 26.5798 37.0214 26.5347 37.1268 26.4446L37.2544 26.7001C37.183 26.7635 37.0962 26.8103 36.9942 26.8403C36.8955 26.8704 36.7935 26.8854 36.688 26.8854ZM35.4226 24.5258V24.2302H37.0809V24.5258H35.4226Z" fill="#333333"/>
<path d="M38.9571 26.8854C38.6781 26.8854 38.4332 26.8287 38.2223 26.7151C38.0114 26.5982 37.8464 26.4396 37.7274 26.2392C37.6083 26.0354 37.5488 25.8033 37.5488 25.5428C37.5488 25.2823 37.6049 25.0518 37.7172 24.8514C37.8328 24.651 37.9893 24.4941 38.1866 24.3805C38.3873 24.2636 38.6118 24.2052 38.8601 24.2052C39.1118 24.2052 39.3347 24.2619 39.5286 24.3755C39.7258 24.4857 39.8806 24.6427 39.9929 24.8464C40.1051 25.0468 40.1613 25.2789 40.1613 25.5428C40.1613 25.5595 40.1596 25.5779 40.1562 25.5979C40.1562 25.6146 40.1562 25.633 40.1562 25.653H37.8243V25.3875H39.9623L39.8194 25.4927C39.8194 25.3023 39.7769 25.1337 39.6918 24.9867C39.6102 24.8364 39.4979 24.7195 39.3551 24.636C39.2122 24.5525 39.0472 24.5108 38.8601 24.5108C38.6764 24.5108 38.5115 24.5525 38.3652 24.636C38.2189 24.7195 38.105 24.8364 38.0233 24.9867C37.9417 25.137 37.9009 25.309 37.9009 25.5027V25.5578C37.9009 25.7582 37.9451 25.9352 38.0335 26.0889C38.1254 26.2392 38.2512 26.3577 38.4111 26.4446C38.5744 26.5281 38.7598 26.5698 38.9673 26.5698C39.1306 26.5698 39.2819 26.5414 39.4214 26.4846C39.5643 26.4279 39.6867 26.341 39.7888 26.2241L39.9929 26.4546C39.8738 26.5949 39.7241 26.7017 39.5439 26.7752C39.367 26.8487 39.1714 26.8854 38.9571 26.8854Z" fill="#333333"/>
<path d="M42.0416 27.8574C41.7967 27.8574 41.562 27.8223 41.3375 27.7521C41.1129 27.682 40.931 27.5818 40.7915 27.4516L40.9752 27.181C41.101 27.2912 41.2558 27.3781 41.4395 27.4415C41.6266 27.5083 41.8239 27.5417 42.0314 27.5417C42.3716 27.5417 42.6216 27.4632 42.7815 27.3063C42.9413 27.1526 43.0213 26.9122 43.0213 26.5848V25.9286L43.0723 25.4777L43.0366 25.0268V24.2302H43.3835V26.5398C43.3835 26.994 43.2696 27.3263 43.0417 27.5367C42.8172 27.7505 42.4838 27.8574 42.0416 27.8574ZM41.9753 26.7602C41.7201 26.7602 41.4905 26.7068 41.2864 26.5999C41.0823 26.4897 40.9208 26.3377 40.8017 26.144C40.686 25.9503 40.6282 25.7282 40.6282 25.4777C40.6282 25.2272 40.686 25.0067 40.8017 24.8164C40.9208 24.6226 41.0823 24.4724 41.2864 24.3655C41.4905 24.2586 41.7201 24.2052 41.9753 24.2052C42.2134 24.2052 42.4277 24.2536 42.6182 24.3504C42.8087 24.4473 42.96 24.5909 43.0723 24.7813C43.1846 24.9717 43.2407 25.2038 43.2407 25.4777C43.2407 25.7515 43.1846 25.9837 43.0723 26.174C42.96 26.3644 42.8087 26.5097 42.6182 26.6099C42.4277 26.7101 42.2134 26.7602 41.9753 26.7602ZM42.011 26.4446C42.2083 26.4446 42.3835 26.4045 42.5365 26.3243C42.6896 26.2408 42.8104 26.1273 42.8988 25.9837C42.9873 25.8367 43.0315 25.668 43.0315 25.4777C43.0315 25.2873 42.9873 25.1203 42.8988 24.9767C42.8104 24.8331 42.6896 24.7212 42.5365 24.641C42.3835 24.5575 42.2083 24.5158 42.011 24.5158C41.8171 24.5158 41.6419 24.5575 41.4854 24.641C41.3324 24.7212 41.2116 24.8331 41.1232 24.9767C41.0381 25.1203 40.9956 25.2873 40.9956 25.4777C40.9956 25.668 41.0381 25.8367 41.1232 25.9837C41.2116 26.1273 41.3324 26.2408 41.4854 26.3243C41.6419 26.4045 41.8171 26.4446 42.011 26.4446Z" fill="#333333"/>
<path d="M44.3916 26.8604V24.2302H44.7386V24.9466L44.7029 24.8214C44.7777 24.621 44.9036 24.469 45.0805 24.3655C45.2574 24.2586 45.4768 24.2052 45.7387 24.2052V24.5508C45.7251 24.5508 45.7115 24.5508 45.6979 24.5508C45.6843 24.5475 45.6707 24.5458 45.6571 24.5458C45.3747 24.5458 45.1536 24.631 44.9937 24.8013C44.8339 24.9683 44.7539 25.2071 44.7539 25.5177V26.8604H44.3916Z" fill="#333333"/>
<path d="M47.8791 26.8604V26.2792L47.8638 26.1841V25.2121C47.8638 24.9884 47.7992 24.8164 47.6699 24.6961C47.5441 24.5759 47.3553 24.5158 47.1036 24.5158C46.9301 24.5158 46.7651 24.5442 46.6086 24.6009C46.4522 24.6577 46.3195 24.7329 46.2106 24.8264L46.0474 24.5609C46.1834 24.4473 46.3467 24.3605 46.5372 24.3003C46.7277 24.2369 46.9284 24.2052 47.1393 24.2052C47.4863 24.2052 47.7533 24.2903 47.9404 24.4607C48.1309 24.6277 48.2261 24.8832 48.2261 25.2272V26.8604H47.8791ZM46.9556 26.8854C46.7549 26.8854 46.5797 26.8537 46.43 26.7903C46.2838 26.7235 46.1715 26.6333 46.0933 26.5197C46.015 26.4028 45.9759 26.2692 45.9759 26.1189C45.9759 25.982 46.0082 25.8584 46.0729 25.7482C46.1409 25.6346 46.2498 25.5445 46.3994 25.4777C46.5525 25.4075 46.7566 25.3725 47.0117 25.3725H47.9353V25.638H47.0219C46.7634 25.638 46.5831 25.6831 46.4811 25.7732C46.3824 25.8634 46.3331 25.9753 46.3331 26.1089C46.3331 26.2592 46.3926 26.3794 46.5117 26.4696C46.6307 26.5598 46.7974 26.6049 47.0117 26.6049C47.2158 26.6049 47.391 26.5598 47.5373 26.4696C47.687 26.3761 47.7958 26.2425 47.8638 26.0688L47.9455 26.3143C47.8774 26.488 47.7584 26.6266 47.5883 26.7301C47.4216 26.8337 47.2107 26.8854 46.9556 26.8854Z" fill="#333333"/>
<path d="M50.0571 26.8854C49.8054 26.8854 49.6115 26.8186 49.4754 26.685C49.3394 26.5514 49.2713 26.3627 49.2713 26.1189V23.6491H49.6336V26.0989C49.6336 26.2525 49.6727 26.3711 49.751 26.4546C49.8326 26.5381 49.9483 26.5798 50.0979 26.5798C50.2578 26.5798 50.3905 26.5347 50.4959 26.4446L50.6235 26.7001C50.552 26.7635 50.4653 26.8103 50.3633 26.8403C50.2646 26.8704 50.1626 26.8854 50.0571 26.8854ZM48.7917 24.5258V24.2302H50.45V24.5258H48.7917Z" fill="#333333"/>
<path d="M52.2802 26.8854C52.0217 26.8854 51.7887 26.8287 51.5812 26.7151C51.3771 26.5982 51.2155 26.4396 51.0965 26.2392C50.9774 26.0354 50.9179 25.8033 50.9179 25.5428C50.9179 25.2789 50.9774 25.0468 51.0965 24.8464C51.2155 24.646 51.3771 24.4891 51.5812 24.3755C51.7853 24.2619 52.0183 24.2052 52.2802 24.2052C52.5456 24.2052 52.7803 24.2619 52.9844 24.3755C53.1919 24.4891 53.3534 24.646 53.4691 24.8464C53.5882 25.0468 53.6477 25.2789 53.6477 25.5428C53.6477 25.8033 53.5882 26.0354 53.4691 26.2392C53.3534 26.4396 53.1919 26.5982 52.9844 26.7151C52.7769 26.8287 52.5422 26.8854 52.2802 26.8854ZM52.2802 26.5698C52.4741 26.5698 52.6459 26.5281 52.7956 26.4446C52.9453 26.3577 53.0626 26.2375 53.1476 26.0839C53.2361 25.9269 53.2803 25.7465 53.2803 25.5428C53.2803 25.3357 53.2361 25.1554 53.1476 25.0017C53.0626 24.8481 52.9453 24.7295 52.7956 24.646C52.6459 24.5592 52.4758 24.5158 52.2853 24.5158C52.0948 24.5158 51.9248 24.5592 51.7751 24.646C51.6254 24.7295 51.5064 24.8481 51.4179 25.0017C51.3295 25.1554 51.2852 25.3357 51.2852 25.5428C51.2852 25.7465 51.3295 25.9269 51.4179 26.0839C51.5064 26.2375 51.6254 26.3577 51.7751 26.4446C51.9248 26.5281 52.0931 26.5698 52.2802 26.5698Z" fill="#333333"/>
<path d="M54.3873 26.8604V24.2302H54.7343V24.9466L54.6986 24.8214C54.7734 24.621 54.8993 24.469 55.0761 24.3655C55.253 24.2586 55.4724 24.2052 55.7344 24.2052V24.5508C55.7208 24.5508 55.7071 24.5508 55.6935 24.5508C55.6799 24.5475 55.6663 24.5458 55.6527 24.5458C55.3704 24.5458 55.1493 24.631 54.9894 24.8013C54.8295 24.9683 54.7496 25.2071 54.7496 25.5177V26.8604H54.3873Z" fill="#333333"/>
<path d="M58.3167 26.8604L57.3064 24.2302H57.6533L58.5718 26.67H58.4136L59.3576 24.2302H59.6688L60.6026 26.67H60.4444L61.3781 24.2302H61.7098L60.6944 26.8604H60.3525L59.4545 24.5659H59.5617L58.6585 26.8604H58.3167Z" fill="#333333"/>
<path d="M63.3184 26.8854C63.0395 26.8854 62.7945 26.8287 62.5836 26.7151C62.3727 26.5982 62.2078 26.4396 62.0887 26.2392C61.9696 26.0354 61.9101 25.8033 61.9101 25.5428C61.9101 25.2823 61.9662 25.0518 62.0785 24.8514C62.1941 24.651 62.3506 24.4941 62.5479 24.3805C62.7486 24.2636 62.9731 24.2052 63.2214 24.2052C63.4732 24.2052 63.696 24.2619 63.8899 24.3755C64.0872 24.4857 64.2419 24.6427 64.3542 24.8464C64.4664 25.0468 64.5226 25.2789 64.5226 25.5428C64.5226 25.5595 64.5209 25.5779 64.5175 25.5979C64.5175 25.6146 64.5175 25.633 64.5175 25.653H62.1856V25.3875H64.3236L64.1807 25.4927C64.1807 25.3023 64.1382 25.1337 64.0532 24.9867C63.9715 24.8364 63.8593 24.7195 63.7164 24.636C63.5735 24.5525 63.4085 24.5108 63.2214 24.5108C63.0378 24.5108 62.8728 24.5525 62.7265 24.636C62.5802 24.7195 62.4663 24.8364 62.3846 24.9867C62.303 25.137 62.2622 25.309 62.2622 25.5027V25.5578C62.2622 25.7582 62.3064 25.9352 62.3948 26.0889C62.4867 26.2392 62.6126 26.3577 62.7724 26.4446C62.9357 26.5281 63.1211 26.5698 63.3286 26.5698C63.4919 26.5698 63.6432 26.5414 63.7827 26.4846C63.9256 26.4279 64.048 26.341 64.1501 26.2241L64.3542 26.4546C64.2351 26.5949 64.0855 26.7017 63.9052 26.7752C63.7283 26.8487 63.5327 26.8854 63.3184 26.8854Z" fill="#333333"/>
<path d="M66.6427 26.8854C66.408 26.8854 66.1971 26.8337 66.01 26.7301C65.8229 26.6233 65.675 26.4696 65.5661 26.2692C65.4573 26.0688 65.4028 25.8267 65.4028 25.5428C65.4028 25.2556 65.4573 25.0134 65.5661 24.8164C65.6784 24.616 65.828 24.464 66.0151 24.3605C66.2022 24.2569 66.4114 24.2052 66.6427 24.2052C66.8979 24.2052 67.1258 24.2619 67.3265 24.3755C67.5306 24.4857 67.6904 24.641 67.8061 24.8414C67.9218 25.0418 67.9796 25.2756 67.9796 25.5428C67.9796 25.8066 67.9218 26.0404 67.8061 26.2442C67.6904 26.4446 67.5306 26.6015 67.3265 26.7151C67.1258 26.8287 66.8979 26.8854 66.6427 26.8854ZM65.26 26.8604V23.1431H65.6222V25.0067L65.5712 25.5378L65.6069 26.0688V26.8604H65.26ZM66.6172 26.5698C66.8077 26.5698 66.9778 26.5281 67.1275 26.4446C67.2771 26.3577 67.3962 26.2375 67.4846 26.0839C67.5731 25.9269 67.6173 25.7465 67.6173 25.5428C67.6173 25.3357 67.5731 25.1554 67.4846 25.0017C67.3962 24.8481 67.2771 24.7295 67.1275 24.646C66.9778 24.5592 66.8077 24.5158 66.6172 24.5158C66.4267 24.5158 66.2549 24.5592 66.1019 24.646C65.9522 24.7295 65.8331 24.8481 65.7447 25.0017C65.6597 25.1554 65.6171 25.3357 65.6171 25.5428C65.6171 25.7465 65.6597 25.9269 65.7447 26.0839C65.8331 26.2375 65.9522 26.3577 66.1019 26.4446C66.2549 26.5281 66.4267 26.5698 66.6172 26.5698Z" fill="#333333"/>
<path d="M70.8801 26.8904C70.6216 26.8904 70.3767 26.8504 70.1453 26.7702C69.9174 26.6867 69.7337 26.5765 69.5943 26.4396L69.7729 26.154C69.8885 26.2709 70.0433 26.3678 70.2372 26.4446C70.4345 26.5214 70.6488 26.5598 70.8801 26.5598C71.176 26.5598 71.4023 26.4963 71.5587 26.3694C71.7186 26.2425 71.7985 26.0722 71.7985 25.8584C71.7985 25.6447 71.7203 25.4743 71.5638 25.3474C71.4108 25.2205 71.1675 25.157 70.8342 25.157H70.5791V24.8915L71.6812 23.5338L71.7322 23.6741H69.7422V23.3535H72.0384V23.609L70.9362 24.9667L70.7576 24.8514H70.8954C71.324 24.8514 71.6438 24.9449 71.8547 25.132C72.069 25.319 72.1761 25.5595 72.1761 25.8534C72.1761 26.0505 72.1285 26.2275 72.0333 26.3845C71.938 26.5414 71.7934 26.665 71.5995 26.7552C71.4091 26.8454 71.1692 26.8904 70.8801 26.8904Z" fill="#333333"/>
<path d="M72.9693 26.8854C72.8945 26.8854 72.8299 26.8587 72.7754 26.8053C72.7244 26.7518 72.6989 26.6867 72.6989 26.6099C72.6989 26.5297 72.7244 26.4646 72.7754 26.4145C72.8299 26.3644 72.8945 26.3394 72.9693 26.3394C73.0442 26.3394 73.1071 26.3644 73.1581 26.4145C73.2125 26.4646 73.2398 26.5297 73.2398 26.6099C73.2398 26.6867 73.2125 26.7518 73.1581 26.8053C73.1071 26.8587 73.0442 26.8854 72.9693 26.8854Z" fill="#333333"/>
<path d="M75.1439 26.8904C74.8683 26.8904 74.6234 26.8203 74.4091 26.68C74.1948 26.5364 74.0264 26.3327 73.904 26.0688C73.7815 25.8016 73.7203 25.481 73.7203 25.1069C73.7203 24.7329 73.7815 24.4139 73.904 24.15C74.0264 23.8829 74.1948 23.6791 74.4091 23.5388C74.6234 23.3952 74.8683 23.3234 75.1439 23.3234C75.4194 23.3234 75.6643 23.3952 75.8786 23.5388C76.0929 23.6791 76.2613 23.8829 76.3838 24.15C76.5096 24.4139 76.5725 24.7329 76.5725 25.1069C76.5725 25.481 76.5096 25.8016 76.3838 26.0688C76.2613 26.3327 76.0929 26.5364 75.8786 26.68C75.6643 26.8203 75.4194 26.8904 75.1439 26.8904ZM75.1439 26.5598C75.3548 26.5598 75.5384 26.5047 75.6949 26.3945C75.8514 26.2809 75.9739 26.1173 76.0623 25.9035C76.1507 25.6864 76.195 25.4209 76.195 25.1069C76.195 24.793 76.1507 24.5291 76.0623 24.3154C75.9739 24.0983 75.8514 23.9346 75.6949 23.8244C75.5384 23.7109 75.3548 23.6541 75.1439 23.6541C74.9398 23.6541 74.7578 23.7109 74.5979 23.8244C74.438 23.9346 74.3139 24.0983 74.2254 24.3154C74.137 24.5291 74.0927 24.793 74.0927 25.1069C74.0927 25.4209 74.137 25.6864 74.2254 25.9035C74.3139 26.1173 74.438 26.2809 74.5979 26.3945C74.7578 26.5047 74.9398 26.5598 75.1439 26.5598Z" fill="#333333"/>
<path d="M35.6149 3.81408V7.71408H35.2193V4.59408L33.6872 7.21822H33.4922L31.96 4.61079V7.71408H31.5645V3.81408H31.9043L33.598 6.70565L35.275 3.81408H35.6149Z" fill="#333333"/>
<path d="M37.8272 4.76122C38.2097 4.76122 38.5032 4.85779 38.7075 5.05094C38.9117 5.24036 39.0139 5.52265 39.0139 5.89779V7.71408H38.635V7.25722C38.5459 7.40951 38.414 7.52836 38.2395 7.61379C38.0686 7.69922 37.8643 7.74194 37.6266 7.74194C37.2997 7.74194 37.0397 7.66394 36.8466 7.50794C36.6535 7.35194 36.5569 7.14579 36.5569 6.88951C36.5569 6.64065 36.646 6.44008 36.8243 6.28779C37.0063 6.13551 37.2942 6.05936 37.6879 6.05936H38.6183V5.88108C38.6183 5.62851 38.5477 5.43722 38.4066 5.30722C38.2655 5.17351 38.0593 5.10665 37.7882 5.10665C37.6025 5.10665 37.4242 5.13822 37.2533 5.20136C37.0825 5.26079 36.9357 5.34436 36.8132 5.45208L36.6349 5.15679C36.7835 5.03051 36.9617 4.93394 37.1697 4.86708C37.3777 4.79651 37.5969 4.76122 37.8272 4.76122ZM37.6879 7.42994C37.9107 7.42994 38.102 7.37979 38.2617 7.27951C38.4215 7.17551 38.5403 7.02694 38.6183 6.83379V6.35465H37.699C37.1976 6.35465 36.9469 6.52922 36.9469 6.87836C36.9469 7.04922 37.0119 7.18479 37.1419 7.28508C37.2719 7.38165 37.4539 7.42994 37.6879 7.42994Z" fill="#333333"/>
<path d="M42.7735 3.58008V7.71408H42.3946V7.13465C42.2758 7.33151 42.1179 7.48194 41.921 7.58594C41.7279 7.68994 41.5088 7.74194 41.2636 7.74194C40.9888 7.74194 40.7399 7.67879 40.517 7.55251C40.2942 7.42622 40.1196 7.24979 39.9933 7.02322C39.867 6.79665 39.8039 6.53851 39.8039 6.24879C39.8039 5.95908 39.867 5.70094 39.9933 5.47436C40.1196 5.24779 40.2942 5.07322 40.517 4.95065C40.7399 4.82436 40.9888 4.76122 41.2636 4.76122C41.5013 4.76122 41.7149 4.81136 41.9043 4.91165C42.0975 5.00822 42.2553 5.15122 42.3779 5.34065V3.58008H42.7735ZM41.297 7.39094C41.5013 7.39094 41.6852 7.34451 41.8486 7.25165C42.0158 7.15508 42.1458 7.01951 42.2386 6.84494C42.3352 6.67036 42.3835 6.47165 42.3835 6.24879C42.3835 6.02594 42.3352 5.82722 42.2386 5.65265C42.1458 5.47808 42.0158 5.34436 41.8486 5.25151C41.6852 5.15494 41.5013 5.10665 41.297 5.10665C41.089 5.10665 40.9015 5.15494 40.7343 5.25151C40.5709 5.34436 40.4409 5.47808 40.3443 5.65265C40.2515 5.82722 40.205 6.02594 40.205 6.24879C40.205 6.47165 40.2515 6.67036 40.3443 6.84494C40.4409 7.01951 40.5709 7.15508 40.7343 7.25165C40.9015 7.34451 41.089 7.39094 41.297 7.39094Z" fill="#333333"/>
<path d="M46.4268 6.37136H43.9754C43.9977 6.67594 44.1147 6.92294 44.3264 7.11236C44.5381 7.29808 44.8056 7.39094 45.1287 7.39094C45.3107 7.39094 45.4778 7.35936 45.6301 7.29622C45.7824 7.22936 45.9143 7.13279 46.0257 7.00651L46.2486 7.26279C46.1186 7.41879 45.9551 7.53765 45.7583 7.61936C45.5651 7.70108 45.3516 7.74194 45.1176 7.74194C44.8167 7.74194 44.5493 7.67879 44.3153 7.55251C44.085 7.42251 43.9048 7.24422 43.7748 7.01765C43.6448 6.79108 43.5798 6.53479 43.5798 6.24879C43.5798 5.96279 43.6411 5.70651 43.7637 5.47994C43.89 5.25336 44.0608 5.07694 44.2763 4.95065C44.4954 4.82436 44.7406 4.76122 45.0117 4.76122C45.2828 4.76122 45.5261 4.82436 45.7416 4.95065C45.957 5.07694 46.126 5.25336 46.2486 5.47994C46.3711 5.70279 46.4324 5.95908 46.4324 6.24879L46.4268 6.37136ZM45.0117 5.10108C44.7294 5.10108 44.4917 5.19208 44.2986 5.37408C44.1091 5.55236 44.0014 5.78636 43.9754 6.07608H46.0536C46.0276 5.78636 45.918 5.55236 45.7248 5.37408C45.5354 5.19208 45.2977 5.10108 45.0117 5.10108Z" fill="#333333"/>
<path d="M50.2056 4.76122C50.4804 4.76122 50.7293 4.82436 50.9522 4.95065C51.175 5.07322 51.3496 5.24779 51.4759 5.47436C51.6022 5.70094 51.6653 5.95908 51.6653 6.24879C51.6653 6.53851 51.6022 6.79665 51.4759 7.02322C51.3496 7.24979 51.175 7.42622 50.9522 7.55251C50.7293 7.67879 50.4804 7.74194 50.2056 7.74194C49.9604 7.74194 49.7394 7.68994 49.5426 7.58594C49.3494 7.48194 49.1934 7.33151 49.0746 7.13465V7.71408H48.6957V3.58008H49.0913V5.34065C49.2139 5.15122 49.3699 5.00822 49.5593 4.91165C49.7524 4.81136 49.9679 4.76122 50.2056 4.76122ZM50.1777 7.39094C50.382 7.39094 50.5677 7.34451 50.7349 7.25165C50.902 7.15508 51.032 7.01951 51.1249 6.84494C51.2214 6.67036 51.2697 6.47165 51.2697 6.24879C51.2697 6.02594 51.2214 5.82722 51.1249 5.65265C51.032 5.47808 50.902 5.34436 50.7349 5.25151C50.5677 5.15494 50.382 5.10665 50.1777 5.10665C49.9697 5.10665 49.7822 5.15494 49.615 5.25151C49.4516 5.34436 49.3216 5.47808 49.225 5.65265C49.1322 5.82722 49.0857 6.02594 49.0857 6.24879C49.0857 6.47165 49.1322 6.67036 49.225 6.84494C49.3216 7.01951 49.4516 7.15508 49.615 7.25165C49.7822 7.34451 49.9697 7.39094 50.1777 7.39094Z" fill="#333333"/>
<path d="M54.8526 4.78351L53.3873 8.06508C53.2685 8.33994 53.1311 8.53494 52.9751 8.65008C52.8191 8.76522 52.6315 8.82279 52.4123 8.82279C52.2712 8.82279 52.1393 8.80051 52.0168 8.75594C51.8942 8.71136 51.7883 8.64451 51.6992 8.55536L51.8831 8.26008C52.0316 8.40865 52.2099 8.48294 52.4179 8.48294C52.5516 8.48294 52.6649 8.44579 52.7578 8.37151C52.8543 8.29722 52.9435 8.17094 53.0252 7.99265L53.1533 7.70851L51.8441 4.78351H52.2563L53.3595 7.27394L54.4626 4.78351H54.8526Z" fill="#333333"/>
<path fill-rule="evenodd" clip-rule="evenodd" d="M23.7182 12.8485C23.7766 12.8063 23.8467 12.7835 23.9186 12.7834C23.9904 12.7833 24.0606 12.8058 24.1192 12.8478C24.1777 12.8898 24.2218 12.9492 24.2452 13.0177C24.2686 13.0861 24.2702 13.1603 24.2497 13.2297C24.2292 13.2991 24.1877 13.3603 24.1309 13.4048C24.0742 13.4493 24.0051 13.4748 23.9332 13.4778C23.8614 13.4807 23.7904 13.461 23.7303 13.4213C23.6701 13.3816 23.6238 13.324 23.5978 13.2565C23.5621 13.1859 23.5546 13.1042 23.577 13.0282C23.5995 12.9523 23.65 12.888 23.7182 12.8485ZM23.1353 11.0898C23.1964 10.9759 23.2914 10.884 23.4069 10.8272C23.5224 10.7704 23.6527 10.7514 23.7795 10.773C23.9062 10.7945 24.0231 10.8555 24.1138 10.9473C24.2044 11.0392 24.2642 11.1573 24.2848 11.2852C24.3054 11.413 24.2858 11.5441 24.2286 11.6601C24.1715 11.7761 24.0798 11.8712 23.9663 11.9321C23.8528 11.9929 23.7233 12.0165 23.5958 11.9994C23.4684 11.9823 23.3495 11.9255 23.2557 11.8368C23.1448 11.7513 23.0706 11.6263 23.0482 11.4874C23.0258 11.3485 23.057 11.2063 23.1353 11.0898ZM22.1775 11.2662C21.9641 11.2469 21.8054 11.0953 21.8218 10.9299C21.8433 10.8408 21.8986 10.7638 21.9758 10.7153C22.0531 10.6669 22.1462 10.6509 22.235 10.6708C22.4457 10.6901 22.6072 10.8417 22.5907 11.0071C22.5686 11.0958 22.5132 11.1724 22.4361 11.2208C22.359 11.2691 22.2663 11.2854 22.1775 11.2662ZM24.4543 14.4776C24.486 14.4591 24.5222 14.4499 24.5589 14.451C24.5955 14.4521 24.6311 14.4634 24.6617 14.4838C24.6923 14.5041 24.7166 14.5327 24.732 14.5662C24.7474 14.5997 24.7531 14.6369 24.7487 14.6736C24.7442 14.7102 24.7297 14.7449 24.7067 14.7737C24.6837 14.8024 24.6533 14.8242 24.6187 14.8365C24.5841 14.8488 24.5469 14.8511 24.511 14.8433C24.4752 14.8354 24.4423 14.8176 24.416 14.7919C24.3809 14.7446 24.3653 14.6856 24.3725 14.627C24.3796 14.5685 24.4089 14.5149 24.4543 14.4776ZM24.7882 12.4047C24.8596 12.3614 24.9428 12.3418 25.0259 12.3485C25.1091 12.3553 25.188 12.3881 25.2517 12.4423C25.3154 12.4965 25.3607 12.5695 25.3812 12.6509C25.4016 12.7324 25.3963 12.8182 25.3659 12.8964C25.3355 12.9747 25.2815 13.0414 25.2116 13.0872C25.1417 13.1329 25.0593 13.1555 24.9759 13.1518C24.8926 13.148 24.8126 13.1181 24.747 13.0661C24.6814 13.0142 24.6336 12.9429 24.6103 12.8623C24.5758 12.7776 24.575 12.6828 24.6081 12.5976C24.6413 12.5123 24.7057 12.4432 24.7882 12.4047ZM18.0098 4.37199C18.4751 4.9233 18.6858 5.85779 18.3355 7.34635C18.2671 6.9494 18.0427 5.6731 17.7663 5.14108L18.0098 4.3775V4.37199ZM16.8003 3.78208C15.6701 2.59674 13.8422 1.76425 11.1111 2.57469C11.1111 2.57469 12.8406 1.37833 14.893 1.74771C15.8449 1.94259 16.6989 2.46735 17.3066 3.23076L16.8003 3.78208ZM14.7233 10.0368C15.911 9.8769 17.4598 8.4352 17.4598 8.4352C17.4324 11.0429 15.2022 11.1725 14.7233 10.0368ZM14.6713 28.9911C14.6157 28.9739 14.569 28.9353 14.5414 28.8837C14.5137 28.8322 14.5073 28.7717 14.5236 28.7154C14.5213 28.6854 14.5259 28.6554 14.537 28.6274C14.548 28.5995 14.5652 28.5744 14.5872 28.5542C14.6093 28.5339 14.6356 28.519 14.6642 28.5104C14.6928 28.5019 14.723 28.5 14.7524 28.505C14.7819 28.5099 14.8098 28.5215 14.8341 28.539C14.8585 28.5564 14.8786 28.5791 14.8929 28.6055C14.9072 28.6319 14.9154 28.6612 14.9168 28.6912C14.9183 28.7212 14.9129 28.7512 14.9012 28.7788C14.8793 28.9167 14.7753 29.0131 14.6713 28.9938V28.9911ZM13.5165 27.1028C13.4691 27.1352 13.4136 27.1535 13.3564 27.1557C13.2991 27.1579 13.2424 27.1439 13.1927 27.1153C13.143 27.0867 13.1022 27.0446 13.075 26.9938C13.0478 26.943 13.0352 26.8856 13.0388 26.828C13.0424 26.7704 13.0619 26.715 13.0951 26.668C13.1283 26.621 13.174 26.5844 13.2268 26.5622C13.2797 26.54 13.3377 26.5332 13.3942 26.5425C13.4507 26.5518 13.5035 26.5769 13.5466 26.6149C13.6064 26.6838 13.6368 26.7737 13.6312 26.8651C13.6256 26.9565 13.5844 27.0419 13.5165 27.1028ZM13.8613 28.2578C13.8076 28.2585 13.755 28.2422 13.711 28.2112C13.6669 28.1803 13.6336 28.1362 13.6157 28.0852C13.5978 28.0341 13.5962 27.9788 13.6111 27.9268C13.626 27.8748 13.6567 27.8288 13.6989 27.7953C13.741 27.7618 13.7926 27.7424 13.8462 27.7399C13.8999 27.7374 13.953 27.7519 13.9981 27.7813C14.0432 27.8107 14.078 27.8536 14.0976 27.904C14.1172 27.9544 14.1207 28.0096 14.1076 28.0621C14.1001 28.1207 14.0701 28.174 14.0241 28.2105C13.978 28.2471 13.9196 28.2641 13.8613 28.2578ZM12.7859 25.8348C12.6576 25.8282 12.5345 25.7814 12.434 25.7008C12.3334 25.6203 12.2604 25.5101 12.2251 25.3857C12.1898 25.2612 12.1941 25.1288 12.2373 25.0069C12.2804 24.885 12.3604 24.7798 12.4659 24.706C12.5714 24.6321 12.6972 24.5934 12.8256 24.5952C12.9541 24.597 13.0788 24.6392 13.1822 24.7159C13.2857 24.7926 13.3627 24.9 13.4025 25.0231C13.4424 25.1461 13.443 25.2786 13.4043 25.402C13.3758 25.5402 13.2958 25.6621 13.1807 25.7426C13.0657 25.8231 12.9244 25.8561 12.7859 25.8348ZM12.8023 23.5303C12.83 23.4793 12.8714 23.4371 12.9217 23.4085C12.9721 23.38 13.0293 23.3662 13.087 23.3688C13.1447 23.3713 13.2005 23.3901 13.2482 23.423C13.2958 23.4558 13.3334 23.5015 13.3566 23.5547C13.3798 23.608 13.3878 23.6668 13.3796 23.7243C13.3713 23.7819 13.3472 23.836 13.3101 23.8805C13.2729 23.9251 13.2241 23.9582 13.1691 23.9762C13.1142 23.9942 13.0554 23.9963 12.9993 23.9824C12.9152 23.9468 12.8479 23.8801 12.8112 23.796C12.7745 23.7118 12.7713 23.6167 12.8023 23.5303ZM10.323 8.31942C10.323 8.31942 11.8582 9.86311 13.0458 10.023C12.567 11.1587 10.4982 11.2524 10.323 8.31942ZM18.7788 15.2578C18.8532 15.2778 18.9205 15.3184 18.9733 15.3749C19.026 15.4315 19.062 15.5017 19.0772 15.5778C19.0924 15.6538 19.0861 15.7326 19.0592 15.8053C19.0324 15.878 18.9858 15.9416 18.9249 15.9891C18.864 16.0366 18.7912 16.0659 18.7146 16.0739C18.638 16.0819 18.5607 16.0682 18.4914 16.0342C18.4222 16.0003 18.3637 15.9476 18.3226 15.882C18.2815 15.8164 18.2594 15.7405 18.2589 15.663C18.2766 15.5408 18.3407 15.4302 18.4376 15.3546C18.5346 15.2791 18.6569 15.2443 18.7788 15.2578ZM19.4082 17.3362C19.4997 17.3366 19.5888 17.3658 19.6629 17.4198C19.7371 17.4737 19.7926 17.5497 19.8217 17.6371C19.8507 17.7245 19.8519 17.8188 19.825 17.9069C19.7981 17.995 19.7445 18.0724 19.6717 18.1282C19.599 18.184 19.5106 18.2155 19.4192 18.2181C19.3277 18.2208 19.2378 18.1946 19.1619 18.1431C19.086 18.0916 19.0281 18.0174 18.9962 17.9311C18.9643 17.8447 18.96 17.7504 18.984 17.6615C18.999 17.5624 19.0516 17.4731 19.1308 17.4124C19.2099 17.3517 19.3094 17.3244 19.4082 17.3362ZM19.8023 16.104C19.8953 16.0754 19.9952 16.0788 20.0861 16.1138C20.177 16.1487 20.2537 16.2131 20.3043 16.2969C20.3548 16.3806 20.3762 16.4789 20.365 16.5763C20.3539 16.6737 20.3109 16.7645 20.2428 16.8345C20.1498 16.8631 20.0499 16.8597 19.959 16.8248C19.8681 16.7899 19.7913 16.7255 19.7408 16.6417C19.6903 16.5579 19.6689 16.4596 19.68 16.3623C19.6912 16.2649 19.7342 16.174 19.8023 16.104ZM8.66745 25.1374C8.62902 25.1751 8.57985 25.1998 8.52682 25.2079C8.47379 25.2161 8.41955 25.2073 8.37169 25.1829C8.32384 25.1585 8.28476 25.1196 8.25993 25.0717C8.2351 25.0238 8.22576 24.9693 8.23321 24.9158C8.24067 24.8622 8.26455 24.8124 8.30151 24.7732C8.33848 24.7341 8.38667 24.7075 8.43935 24.6973C8.49203 24.6871 8.54657 24.6938 8.59532 24.7163C8.64407 24.7389 8.6846 24.7762 8.71123 24.8231C8.74569 24.871 8.76038 24.9305 8.75221 24.9891C8.74405 25.0477 8.71367 25.1009 8.66745 25.1374ZM8.09826 22.4855C8.07472 22.4313 8.07298 22.37 8.09339 22.3144C8.1138 22.2589 8.15478 22.2135 8.20772 22.1878C8.22842 22.1649 8.25412 22.147 8.2828 22.1357C8.31148 22.1244 8.34237 22.1199 8.37306 22.1226C8.40374 22.1253 8.43338 22.1352 8.45968 22.1513C8.48597 22.1675 8.50819 22.1896 8.52461 22.2158C8.54104 22.2421 8.55121 22.2718 8.55434 22.3026C8.55748 22.3335 8.55348 22.3647 8.54267 22.3937C8.53186 22.4228 8.51452 22.4489 8.49202 22.4701C8.46952 22.4913 8.44246 22.507 8.41295 22.5159C8.36687 22.553 8.30825 22.5706 8.24951 22.5649C8.19077 22.5592 8.13653 22.5308 8.09826 22.4855ZM7.95596 23.9245C7.88028 23.998 7.78365 24.0458 7.67962 24.0612C7.57559 24.0766 7.46939 24.0588 7.37591 24.0103C7.28243 23.9618 7.20636 23.8851 7.15838 23.7908C7.1104 23.6966 7.09292 23.5896 7.10838 23.4848C7.12384 23.3801 7.17147 23.2828 7.24459 23.2067C7.31771 23.1306 7.41264 23.0794 7.51608 23.0604C7.61952 23.0414 7.72627 23.0555 7.82135 23.1007C7.91644 23.1459 7.99509 23.22 8.04627 23.3125C8.11324 23.4063 8.14128 23.5227 8.12442 23.637C8.10755 23.7512 8.04712 23.8544 7.95596 23.9245ZM7.09123 22.3532C7.01047 22.3776 6.92411 22.3757 6.84452 22.3477C6.76492 22.3196 6.69617 22.267 6.64811 22.1972C6.60004 22.1274 6.57513 22.0441 6.57693 21.9591C6.57874 21.8742 6.60716 21.7921 6.65815 21.7244C6.70913 21.6568 6.78005 21.6071 6.86076 21.5825C6.94148 21.5579 7.02784 21.5597 7.10749 21.5876C7.18713 21.6155 7.25599 21.668 7.30419 21.7377C7.35239 21.8074 7.37746 21.8906 7.37582 21.9756C7.38604 22.067 7.36068 22.1589 7.30505 22.2319C7.24943 22.3049 7.16788 22.3533 7.07755 22.367L7.09123 22.3532ZM7.98606 20.2444C8.01778 20.2259 8.05399 20.2167 8.09063 20.2178C8.12727 20.2188 8.16289 20.2302 8.19347 20.2506C8.22406 20.2709 8.2484 20.2995 8.26376 20.333C8.27912 20.3665 8.28489 20.4037 8.28042 20.4403C8.27595 20.477 8.26142 20.5117 8.23846 20.5404C8.21551 20.5692 8.18503 20.591 8.15047 20.6033C8.1159 20.6156 8.07862 20.6179 8.04281 20.61C8.007 20.6022 7.97408 20.5844 7.94775 20.5587C7.91269 20.5114 7.89709 20.4524 7.90423 20.3938C7.91137 20.3352 7.94069 20.2817 7.98606 20.2444ZM4.55723 17.8407C4.53173 17.8842 4.49485 17.9198 4.45062 17.9436C4.40639 17.9674 4.35652 17.9786 4.30644 17.9758C4.25636 17.973 4.20801 17.9564 4.16667 17.9278C4.12533 17.8992 4.09258 17.8597 4.07201 17.8136C4.05144 17.7675 4.04384 17.7166 4.05004 17.6665C4.05623 17.6163 4.07599 17.5689 4.10714 17.5293C4.1383 17.4897 4.17965 17.4595 4.2267 17.442C4.27374 17.4245 4.32466 17.4203 4.37389 17.43C4.45159 17.4608 4.51425 17.521 4.54851 17.5977C4.58276 17.6745 4.58589 17.7617 4.55723 17.8407ZM2.94817 18.1163C2.63347 18.188 2.30509 17.9124 2.21479 17.5044C2.12449 17.0964 2.30236 16.705 2.61432 16.6333C2.92628 16.5616 3.25739 16.8373 3.3477 17.2453C3.438 17.6532 3.26013 18.0447 2.94817 18.1163ZM2.40087 15.3598C2.43733 15.2951 2.49105 15.2421 2.55594 15.2068C2.62082 15.1714 2.69426 15.1551 2.76789 15.1597C2.84152 15.1643 2.91239 15.1897 2.97243 15.2328C3.03247 15.276 3.07927 15.3353 3.10751 15.404C3.13574 15.4726 3.14428 15.5479 3.13214 15.6212C3.12001 15.6945 3.08769 15.7629 3.03887 15.8186C2.99004 15.8743 2.92668 15.9151 2.85597 15.9363C2.78527 15.9575 2.71008 15.9583 2.63895 15.9386C2.53271 15.8918 2.44858 15.8054 2.4042 15.6975C2.35982 15.5896 2.35863 15.4685 2.40087 15.3598ZM25.6118 17.645C25.9785 17.8269 25.724 19.5167 24.4379 19.3982C23.1079 19.2714 23.7756 18.1935 24.8785 16.5258C27.5821 12.446 23.9426 9.13537 20.9598 10.1277C19.9238 10.5437 18.9743 11.1514 18.1604 11.9195C21.9367 5.73374 19.3261 -0.0165039 13.834 3.55931e-05H13.7437C13.0623 0.0138185 7.89302 0.490709 7.74525 6.34019C7.68231 8.59233 8.71671 10.0147 9.59786 11.9967C10.6569 14.3894 10.4407 17.0192 7.08302 16.5919C7.97512 16.4238 8.54978 16.0875 8.90553 15.6712C8.4841 15.6327 8.01343 15.346 7.57832 14.7588C6.9845 13.9566 6.91883 13.6341 6.27575 13.2675C3.62135 11.7569 0.901271 14.4253 1.58266 17.339C2.3352 20.5477 4.71868 20.8013 3.85121 22.5765C2.98375 24.3517 0.132316 23.0313 1.51698 20.6138C0.34029 21.6007 0.657723 23.2353 1.20776 24.0651C2.02871 25.3028 4.705 25.6473 5.8598 23.9906C5.08811 22.1603 4.25622 18.9626 7.5017 18.2762C11.3629 17.463 10.2081 17.6119 10.9853 16.8593C10.5036 18.8772 7.84924 17.9151 6.7519 19.2989C5.51227 20.8591 6.35785 22.9983 6.40163 23.1058C6.82579 24.0623 7.64947 25.1043 8.95478 26.138C9.35157 26.6039 9.69637 27.158 9.58418 27.8499C9.41998 28.8643 7.79724 28.8891 7.75072 27.5439C7.60843 28.0952 7.67684 29.1317 8.84532 29.3715C10.0138 29.6113 11.6749 27.916 11.2398 26.1932C10.8047 24.4703 10.624 24.2966 10.676 23.2794C10.7746 21.3498 12.8652 20.3161 13.5576 20.2885C10.1561 22.2347 11.3903 30 16.6443 30C21.0227 30 20.7491 24.9058 18.1467 25.2835C16.5048 25.5178 16.5321 26.6618 16.5321 26.6618C16.9725 26.5109 17.4449 26.4814 17.9004 26.5763C18.8664 26.874 19.0141 28.1889 17.9688 28.7568C16.6799 29.457 14.5865 28.2055 16.1983 25.2421C16.3488 25.0113 16.5333 24.8049 16.7456 24.6302C16.1381 24.5034 15.2706 24.0513 15.0325 22.5324C14.7315 20.6028 15.9055 19.0481 15.1612 19.0012C15.6838 17.849 17.2847 17.6009 16.5896 19.0922C16.3406 19.6214 13.834 22.7447 17.0056 24.3545C19.5012 25.0464 23.3378 22.3257 23.5567 24.5199C23.3898 25.4378 22.4101 25.832 21.934 25.6225C22.2432 25.7824 23.2475 26.2124 24.0876 25.4709C25.8882 23.8804 24.7608 21.1982 21.923 21.653C18.538 22.2044 18.2342 20.7544 19.7667 19.3954C21.0337 18.2707 21.373 17.1102 21.1514 16.1344C21.1281 16.1063 21.1096 16.0747 21.0966 16.0406C20.7491 14.8139 18.6666 12.7327 15.5361 15.5527C15.9629 15.062 17.0384 14.0311 18.4969 13.8133C19.4191 13.6782 20.6287 13.907 21.3046 14.6403C21.7807 13.7416 22.38 14.089 22.5114 14.5962C22.6619 15.1806 20.5958 18.4003 21.8327 19.7427C23.0696 21.0852 25.3163 20.6083 26.0141 19.7124C26.9308 18.5546 26.1154 17.8407 25.6091 17.6477L25.6118 17.645Z" fill="#333333"/>
</g>
<defs>
<clipPath id="clip0_1086_38638">
<rect width="115.286" height="30" fill="white" transform="translate(0.714844)"/>
</clipPath>
</defs>
</svg>
