<svg width="20" height="20" viewBox="0 0 20 20" fill="none" xmlns="http://www.w3.org/2000/svg">
<path d="M15.7233 0.9C13.976 0.9 12.5678 2.3196 12.5678 4.05556C12.5678 4.19932 12.5768 4.34373 12.5956 4.48397L6.88925 7.59595C6.25984 6.89722 5.34937 6.45664 4.33442 6.45664C2.42729 6.45664 0.9 7.99729 0.9 9.88672C0.9 11.776 2.42712 13.3211 4.33442 13.3211C5.35317 13.3211 6.26113 12.88 6.89034 12.1808L12.5956 15.2949C12.5768 15.4351 12.5677 15.5795 12.5677 15.7233C12.5677 17.4591 13.9684 18.8778 15.7233 18.8778C17.472 18.8778 18.8778 17.4592 18.8778 15.7233C18.8778 13.9874 17.4706 12.5678 15.7233 12.5678C14.5917 12.5678 13.607 13.1571 13.0479 14.0451L7.55998 11.0538C7.69313 10.6894 7.76884 10.2966 7.76884 9.88672C7.76884 9.4778 7.69356 9.08722 7.56102 8.724L13.0475 5.7309C13.6065 6.6189 14.59 7.21003 15.7233 7.21003C17.4658 7.21003 18.8778 5.79161 18.8778 4.05556C18.8778 2.31965 17.4706 0.9 15.7233 0.9ZM15.7233 2.21111C16.7338 2.21111 17.5667 3.03075 17.5667 4.05556C17.5667 5.08028 16.7337 5.89891 15.7233 5.89891C14.7128 5.89891 13.8789 5.08021 13.8789 4.05556C13.8789 3.03082 14.7127 2.21111 15.7233 2.21111ZM4.33442 7.76884C5.50069 7.76884 6.45664 8.7087 6.45664 9.88672C6.45664 11.0651 5.50247 12.01 4.33442 12.01C3.1647 12.01 2.21111 11.0651 2.21111 9.88672C2.21111 8.70877 3.16809 7.76884 4.33442 7.76884ZM15.7233 13.8789C16.7401 13.8789 17.5667 14.6983 17.5667 15.7233C17.5667 16.748 16.7337 17.5667 15.7233 17.5667C14.7128 17.5667 13.8789 16.748 13.8789 15.7233C13.8789 14.6984 14.7065 13.8789 15.7233 13.8789Z" fill="#2C2C2C" stroke="#2C2C2C" stroke-width="0.2"/>
</svg>
