<svg width="20" height="20" viewBox="0 0 20 20" fill="none" xmlns="http://www.w3.org/2000/svg">
<path fill-rule="evenodd" clip-rule="evenodd" d="M17.6004 3.5999C17.6004 3.2815 17.474 2.9767 17.2492 2.7511C17.0236 2.5263 16.7188 2.3999 16.4004 2.3999H3.60039C3.28199 2.3999 2.97719 2.5263 2.75159 2.7511C2.52679 2.9767 2.40039 3.2815 2.40039 3.5999V16.3999C2.40039 16.7183 2.52679 17.0231 2.75159 17.2487C2.97719 17.4735 3.28199 17.5999 3.60039 17.5999H16.4004C16.7188 17.5999 17.0236 17.4735 17.2492 17.2487C17.474 17.0231 17.6004 16.7183 17.6004 16.3999V3.5999ZM7.20039 3.1999H3.60039C3.49399 3.1999 3.39239 3.2423 3.31719 3.3167C3.24279 3.3919 3.20039 3.4935 3.20039 3.5999V16.3999C3.20039 16.5063 3.24279 16.6079 3.31719 16.6831C3.39239 16.7575 3.49399 16.7999 3.60039 16.7999H16.4004C16.5068 16.7999 16.6084 16.7575 16.6836 16.6831C16.758 16.6079 16.8004 16.5063 16.8004 16.3999V3.5999C16.8004 3.4935 16.758 3.3919 16.6836 3.3167C16.6084 3.2423 16.5068 3.1999 16.4004 3.1999H12.8004V8.3999C12.8004 8.5471 12.7196 8.6831 12.5892 8.7527C12.4588 8.8223 12.3012 8.8143 12.1788 8.7327L10.0004 7.2807L7.82199 8.7327C7.69959 8.8143 7.54199 8.8223 7.41159 8.7527C7.28119 8.6831 7.20039 8.5471 7.20039 8.3999V3.1999ZM13.6004 11.7655L13.4836 11.8831C13.3268 12.0391 13.074 12.0391 12.9172 11.8831C12.7612 11.7263 12.7612 11.4735 12.9172 11.3167L13.7172 10.5167C13.874 10.3607 14.1268 10.3607 14.2836 10.5167L15.0836 11.3167C15.2396 11.4735 15.2396 11.7263 15.0836 11.8831C14.9268 12.0391 14.674 12.0391 14.5172 11.8831L14.4004 11.7655V14.3999H14.8004C15.0212 14.3999 15.2004 14.5791 15.2004 14.7999C15.2004 15.0207 15.0212 15.1999 14.8004 15.1999H13.2004C12.9796 15.1999 12.8004 15.0207 12.8004 14.7999C12.8004 14.5791 12.9796 14.3999 13.2004 14.3999H13.6004V11.7655ZM10.4004 11.7655L10.2836 11.8831C10.1268 12.0391 9.87399 12.0391 9.71719 11.8831C9.56119 11.7263 9.56119 11.4735 9.71719 11.3167L10.5172 10.5167C10.674 10.3607 10.9268 10.3607 11.0836 10.5167L11.8836 11.3167C12.0396 11.4735 12.0396 11.7263 11.8836 11.8831C11.7268 12.0391 11.474 12.0391 11.3172 11.8831L11.2004 11.7655V14.3999H11.6004C11.8212 14.3999 12.0004 14.5791 12.0004 14.7999C12.0004 15.0207 11.8212 15.1999 11.6004 15.1999H10.0004C9.77959 15.1999 9.60039 15.0207 9.60039 14.7999C9.60039 14.5791 9.77959 14.3999 10.0004 14.3999H10.4004V11.7655ZM8.00039 3.1999V7.6527L9.77879 6.4671C9.91319 6.3775 10.0876 6.3775 10.222 6.4671L12.0004 7.6527V3.1999H8.00039Z" fill="#B3B3B3"/>
</svg>
