<svg width="18" height="18" viewBox="0 0 18 18" fill="none" xmlns="http://www.w3.org/2000/svg">
<path d="M13.5946 1.9C12.2068 1.9 11.0884 3.0275 11.0884 4.40625C11.0884 4.51539 11.0949 4.62507 11.1086 4.73194L6.64229 7.16765C6.14323 6.62035 5.42539 6.27585 4.62585 6.27585C3.11222 6.27585 1.9 7.49867 1.9 8.99829C1.9 10.4977 3.11205 11.7241 4.62585 11.7241C5.42837 11.7241 6.14427 11.3792 6.64316 10.8315L11.1086 13.2689C11.0949 13.3758 11.0884 13.4855 11.0884 13.5946C11.0884 14.9732 12.2008 16.1 13.5946 16.1C14.9835 16.1 16.1 14.9733 16.1 13.5946C16.1 12.2159 14.9824 11.0884 13.5946 11.0884C12.7031 11.0884 11.9262 11.549 11.4804 12.2449L7.19217 9.90741C7.29396 9.62311 7.35171 9.31725 7.35171 8.99829C7.35171 8.68008 7.29429 8.37591 7.19298 8.09258L11.4801 5.75376C11.9258 6.44957 12.7017 6.91165 13.5946 6.91165C14.9785 6.91165 16.1 5.7851 16.1 4.40625C16.1 3.02755 14.9824 1.9 13.5946 1.9ZM13.5946 2.975C14.3787 2.975 15.025 3.61105 15.025 4.40625C15.025 5.20138 14.3787 5.83665 13.5946 5.83665C12.8105 5.83665 12.1634 5.2013 12.1634 4.40625C12.1634 3.61112 12.8104 2.975 13.5946 2.975ZM4.62585 7.35171C5.53269 7.35171 6.27585 8.08247 6.27585 8.99829C6.27585 9.91449 5.53402 10.6491 4.62585 10.6491C3.71638 10.6491 2.975 9.91447 2.975 8.99829C2.975 8.08254 3.71895 7.35171 4.62585 7.35171ZM13.5946 12.1634C14.3836 12.1634 15.025 12.7992 15.025 13.5946C15.025 14.3897 14.3787 15.025 13.5946 15.025C12.8105 15.025 12.1634 14.3897 12.1634 13.5946C12.1634 12.7993 12.8055 12.1634 13.5946 12.1634Z" fill="#333333" stroke="#333333" stroke-width="0.2"/>
</svg>
