<svg width="20" height="20" viewBox="0 0 20 20" fill="none" xmlns="http://www.w3.org/2000/svg">
<path d="M10.7946 13.191H11.2067V14.0486C11.2067 14.1334 11.2734 14.2001 11.3583 14.2001H11.9764C12.0613 14.2001 12.128 14.1334 12.128 14.0486V13.191H12.5401C12.6007 13.191 12.6552 13.1547 12.6795 13.0971C12.7037 13.0395 12.6886 12.9759 12.6461 12.9334L11.7734 12.0607C11.7128 12.0001 11.6189 12.0001 11.5583 12.0607L10.6855 12.9334C10.6431 12.9759 10.628 13.0425 10.6522 13.0971C10.6764 13.1516 10.734 13.191 10.7946 13.191ZM11.6673 12.3819L12.1734 12.888H11.9764C11.8916 12.888 11.8249 12.9547 11.8249 13.0395V13.8971H11.5098V13.0395C11.5098 12.9547 11.4431 12.888 11.3583 12.888H11.1613L11.6673 12.3819Z" fill="#B3B3B3"/>
<path d="M3.54684 12.0607C3.48624 12.0001 3.3923 12.0001 3.33169 12.0607L2.45897 12.9334C2.41654 12.9759 2.40139 13.0425 2.42563 13.1001C2.44987 13.1577 2.50442 13.194 2.56503 13.194H2.97715V14.0516C2.97715 14.1365 3.04381 14.2031 3.12866 14.2031H3.74684C3.83169 14.2031 3.89836 14.1365 3.89836 14.0516V13.194H4.31048C4.37109 13.194 4.42563 13.1577 4.44987 13.1001C4.47412 13.0425 4.45897 12.9789 4.41654 12.9365L3.54684 12.0607ZM3.74987 12.888C3.66503 12.888 3.59836 12.9547 3.59836 13.0395V13.8971H3.28321V13.0395C3.28321 12.9547 3.21654 12.888 3.13169 12.888H2.93169L3.43775 12.3819L3.94381 12.888H3.74987Z" fill="#B3B3B3"/>
<mask id="path-3-outside-1_1549_59175" maskUnits="userSpaceOnUse" x="-0.544922" y="7.18188" width="21" height="12" fill="black">
<rect fill="white" x="-0.544922" y="7.18188" width="21" height="12"/>
<path d="M19.3945 16.5304C19.4793 16.5304 19.546 16.4637 19.546 16.3789V15.1667C19.546 15.0819 19.4793 15.0152 19.3945 15.0152H18.1248C18.2824 14.8455 18.3823 14.6213 18.3823 14.3728V9.13037C18.3823 8.60916 17.9581 8.18492 17.4369 8.18492H10.7945C10.4611 8.18492 10.1672 8.36067 10.0005 8.62128C9.83084 8.35764 9.53993 8.18188 9.20659 8.18188H2.56417C2.04296 8.18188 1.61871 8.60613 1.61871 9.12734V14.3698C1.61871 14.6182 1.71871 14.8425 1.87629 15.0122H0.606593C0.521745 15.0122 0.455078 15.0789 0.455078 15.1637V16.3758C0.455078 16.4607 0.521745 16.5273 0.606593 16.5273H1.6672V17.1334H0.606593C0.521745 17.1334 0.455078 17.2001 0.455078 17.2849V18.497C0.455078 18.5819 0.521745 18.6486 0.606593 18.6486H19.3945C19.4793 18.6486 19.546 18.5819 19.546 18.497V17.2849C19.546 17.2001 19.4793 17.1334 19.3945 17.1334H18.3339V16.5273H19.3945V16.5304ZM15.6157 8.48492V9.4334L15.2157 9.81522L14.7702 9.38795C14.7399 9.36067 14.7036 9.34552 14.6642 9.34552C14.6248 9.34552 14.5884 9.36067 14.5581 9.38795L14.1127 9.81522L13.6702 9.38795C13.6127 9.33037 13.5187 9.33037 13.4611 9.38795L13.0157 9.81522L12.6187 9.4334V8.48492H15.6157ZM10.7945 8.48492H12.3127V9.49704C12.3127 9.53946 12.3308 9.57885 12.3581 9.60613L12.9066 10.1334C12.9642 10.191 13.0581 10.191 13.1157 10.1334L13.5611 9.70613L14.0036 10.1334C14.0339 10.1607 14.0702 10.1758 14.1096 10.1758C14.149 10.1758 14.1854 10.1607 14.2157 10.1334L14.6611 9.70613L15.1066 10.1334C15.1642 10.191 15.2581 10.191 15.3157 10.1334L15.8672 9.60613C15.8975 9.57885 15.9127 9.53946 15.9127 9.49704V8.48492H17.4308C17.7854 8.48492 18.0733 8.77279 18.0733 9.12734V14.3698C18.0733 14.7243 17.7854 15.0122 17.4308 15.0122H10.7945C10.4399 15.0122 10.152 14.7243 10.152 14.3698V9.12734C10.152 8.77279 10.4399 8.48492 10.7945 8.48492ZM10.1066 15.0152H9.8975C9.9369 14.9728 9.97023 14.9304 10.0036 14.8819C10.0308 14.9273 10.0672 14.9728 10.1066 15.0152ZM7.38538 8.48492V9.4334L6.98538 9.81522L6.53993 9.38795C6.50962 9.36067 6.47326 9.34552 6.43387 9.34552C6.39447 9.34552 6.35811 9.36067 6.3278 9.38795L5.88235 9.81522L5.43993 9.38795C5.38235 9.33037 5.28841 9.33037 5.23084 9.38795L4.78538 9.81522L4.38841 9.4334V8.48492H7.38538ZM1.92174 14.3698V9.12734C1.92174 8.77279 2.20962 8.48492 2.56417 8.48492H4.08235V9.49704C4.08235 9.53946 4.10053 9.57885 4.1278 9.60613L4.67629 10.1334C4.73387 10.191 4.82781 10.191 4.88538 10.1334L5.33084 9.70613L5.77326 10.1334C5.80356 10.1607 5.83993 10.1758 5.87932 10.1758C5.91871 10.1758 5.95508 10.1607 5.98538 10.1334L6.43084 9.70613L6.87629 10.1334C6.93387 10.191 7.0278 10.191 7.08538 10.1334L7.6369 9.60613C7.6672 9.57885 7.68235 9.53946 7.68235 9.49704V8.48492H9.20053C9.55508 8.48492 9.84296 8.77279 9.84296 9.12734V14.3698C9.84296 14.7243 9.55508 15.0122 9.20053 15.0122H2.56417C2.20962 15.0152 1.92174 14.7243 1.92174 14.3698ZM18.1824 17.4395H19.243V18.3486H0.758108V17.4395H1.81871C1.90356 17.4395 1.97023 17.3728 1.97023 17.2879V16.3789C1.97023 16.294 1.90356 16.2273 1.81871 16.2273H0.758108V15.3182H19.243V16.2273H18.1824C18.0975 16.2273 18.0308 16.294 18.0308 16.3789V17.2879C18.0308 17.3698 18.0975 17.4395 18.1824 17.4395Z"/>
</mask>
<path d="M19.3945 16.5304C19.4793 16.5304 19.546 16.4637 19.546 16.3789V15.1667C19.546 15.0819 19.4793 15.0152 19.3945 15.0152H18.1248C18.2824 14.8455 18.3823 14.6213 18.3823 14.3728V9.13037C18.3823 8.60916 17.9581 8.18492 17.4369 8.18492H10.7945C10.4611 8.18492 10.1672 8.36067 10.0005 8.62128C9.83084 8.35764 9.53993 8.18188 9.20659 8.18188H2.56417C2.04296 8.18188 1.61871 8.60613 1.61871 9.12734V14.3698C1.61871 14.6182 1.71871 14.8425 1.87629 15.0122H0.606593C0.521745 15.0122 0.455078 15.0789 0.455078 15.1637V16.3758C0.455078 16.4607 0.521745 16.5273 0.606593 16.5273H1.6672V17.1334H0.606593C0.521745 17.1334 0.455078 17.2001 0.455078 17.2849V18.497C0.455078 18.5819 0.521745 18.6486 0.606593 18.6486H19.3945C19.4793 18.6486 19.546 18.5819 19.546 18.497V17.2849C19.546 17.2001 19.4793 17.1334 19.3945 17.1334H18.3339V16.5273H19.3945V16.5304ZM15.6157 8.48492V9.4334L15.2157 9.81522L14.7702 9.38795C14.7399 9.36067 14.7036 9.34552 14.6642 9.34552C14.6248 9.34552 14.5884 9.36067 14.5581 9.38795L14.1127 9.81522L13.6702 9.38795C13.6127 9.33037 13.5187 9.33037 13.4611 9.38795L13.0157 9.81522L12.6187 9.4334V8.48492H15.6157ZM10.7945 8.48492H12.3127V9.49704C12.3127 9.53946 12.3308 9.57885 12.3581 9.60613L12.9066 10.1334C12.9642 10.191 13.0581 10.191 13.1157 10.1334L13.5611 9.70613L14.0036 10.1334C14.0339 10.1607 14.0702 10.1758 14.1096 10.1758C14.149 10.1758 14.1854 10.1607 14.2157 10.1334L14.6611 9.70613L15.1066 10.1334C15.1642 10.191 15.2581 10.191 15.3157 10.1334L15.8672 9.60613C15.8975 9.57885 15.9127 9.53946 15.9127 9.49704V8.48492H17.4308C17.7854 8.48492 18.0733 8.77279 18.0733 9.12734V14.3698C18.0733 14.7243 17.7854 15.0122 17.4308 15.0122H10.7945C10.4399 15.0122 10.152 14.7243 10.152 14.3698V9.12734C10.152 8.77279 10.4399 8.48492 10.7945 8.48492ZM10.1066 15.0152H9.8975C9.9369 14.9728 9.97023 14.9304 10.0036 14.8819C10.0308 14.9273 10.0672 14.9728 10.1066 15.0152ZM7.38538 8.48492V9.4334L6.98538 9.81522L6.53993 9.38795C6.50962 9.36067 6.47326 9.34552 6.43387 9.34552C6.39447 9.34552 6.35811 9.36067 6.3278 9.38795L5.88235 9.81522L5.43993 9.38795C5.38235 9.33037 5.28841 9.33037 5.23084 9.38795L4.78538 9.81522L4.38841 9.4334V8.48492H7.38538ZM1.92174 14.3698V9.12734C1.92174 8.77279 2.20962 8.48492 2.56417 8.48492H4.08235V9.49704C4.08235 9.53946 4.10053 9.57885 4.1278 9.60613L4.67629 10.1334C4.73387 10.191 4.82781 10.191 4.88538 10.1334L5.33084 9.70613L5.77326 10.1334C5.80356 10.1607 5.83993 10.1758 5.87932 10.1758C5.91871 10.1758 5.95508 10.1607 5.98538 10.1334L6.43084 9.70613L6.87629 10.1334C6.93387 10.191 7.0278 10.191 7.08538 10.1334L7.6369 9.60613C7.6672 9.57885 7.68235 9.53946 7.68235 9.49704V8.48492H9.20053C9.55508 8.48492 9.84296 8.77279 9.84296 9.12734V14.3698C9.84296 14.7243 9.55508 15.0122 9.20053 15.0122H2.56417C2.20962 15.0152 1.92174 14.7243 1.92174 14.3698ZM18.1824 17.4395H19.243V18.3486H0.758108V17.4395H1.81871C1.90356 17.4395 1.97023 17.3728 1.97023 17.2879V16.3789C1.97023 16.294 1.90356 16.2273 1.81871 16.2273H0.758108V15.3182H19.243V16.2273H18.1824C18.0975 16.2273 18.0308 16.294 18.0308 16.3789V17.2879C18.0308 17.3698 18.0975 17.4395 18.1824 17.4395Z" fill="#B3B3B3"/>
<path d="M19.3945 16.5304C19.4793 16.5304 19.546 16.4637 19.546 16.3789V15.1667C19.546 15.0819 19.4793 15.0152 19.3945 15.0152H18.1248C18.2824 14.8455 18.3823 14.6213 18.3823 14.3728V9.13037C18.3823 8.60916 17.9581 8.18492 17.4369 8.18492H10.7945C10.4611 8.18492 10.1672 8.36067 10.0005 8.62128C9.83084 8.35764 9.53993 8.18188 9.20659 8.18188H2.56417C2.04296 8.18188 1.61871 8.60613 1.61871 9.12734V14.3698C1.61871 14.6182 1.71871 14.8425 1.87629 15.0122H0.606593C0.521745 15.0122 0.455078 15.0789 0.455078 15.1637V16.3758C0.455078 16.4607 0.521745 16.5273 0.606593 16.5273H1.6672V17.1334H0.606593C0.521745 17.1334 0.455078 17.2001 0.455078 17.2849V18.497C0.455078 18.5819 0.521745 18.6486 0.606593 18.6486H19.3945C19.4793 18.6486 19.546 18.5819 19.546 18.497V17.2849C19.546 17.2001 19.4793 17.1334 19.3945 17.1334H18.3339V16.5273H19.3945V16.5304ZM15.6157 8.48492V9.4334L15.2157 9.81522L14.7702 9.38795C14.7399 9.36067 14.7036 9.34552 14.6642 9.34552C14.6248 9.34552 14.5884 9.36067 14.5581 9.38795L14.1127 9.81522L13.6702 9.38795C13.6127 9.33037 13.5187 9.33037 13.4611 9.38795L13.0157 9.81522L12.6187 9.4334V8.48492H15.6157ZM10.7945 8.48492H12.3127V9.49704C12.3127 9.53946 12.3308 9.57885 12.3581 9.60613L12.9066 10.1334C12.9642 10.191 13.0581 10.191 13.1157 10.1334L13.5611 9.70613L14.0036 10.1334C14.0339 10.1607 14.0702 10.1758 14.1096 10.1758C14.149 10.1758 14.1854 10.1607 14.2157 10.1334L14.6611 9.70613L15.1066 10.1334C15.1642 10.191 15.2581 10.191 15.3157 10.1334L15.8672 9.60613C15.8975 9.57885 15.9127 9.53946 15.9127 9.49704V8.48492H17.4308C17.7854 8.48492 18.0733 8.77279 18.0733 9.12734V14.3698C18.0733 14.7243 17.7854 15.0122 17.4308 15.0122H10.7945C10.4399 15.0122 10.152 14.7243 10.152 14.3698V9.12734C10.152 8.77279 10.4399 8.48492 10.7945 8.48492ZM10.1066 15.0152H9.8975C9.9369 14.9728 9.97023 14.9304 10.0036 14.8819C10.0308 14.9273 10.0672 14.9728 10.1066 15.0152ZM7.38538 8.48492V9.4334L6.98538 9.81522L6.53993 9.38795C6.50962 9.36067 6.47326 9.34552 6.43387 9.34552C6.39447 9.34552 6.35811 9.36067 6.3278 9.38795L5.88235 9.81522L5.43993 9.38795C5.38235 9.33037 5.28841 9.33037 5.23084 9.38795L4.78538 9.81522L4.38841 9.4334V8.48492H7.38538ZM1.92174 14.3698V9.12734C1.92174 8.77279 2.20962 8.48492 2.56417 8.48492H4.08235V9.49704C4.08235 9.53946 4.10053 9.57885 4.1278 9.60613L4.67629 10.1334C4.73387 10.191 4.82781 10.191 4.88538 10.1334L5.33084 9.70613L5.77326 10.1334C5.80356 10.1607 5.83993 10.1758 5.87932 10.1758C5.91871 10.1758 5.95508 10.1607 5.98538 10.1334L6.43084 9.70613L6.87629 10.1334C6.93387 10.191 7.0278 10.191 7.08538 10.1334L7.6369 9.60613C7.6672 9.57885 7.68235 9.53946 7.68235 9.49704V8.48492H9.20053C9.55508 8.48492 9.84296 8.77279 9.84296 9.12734V14.3698C9.84296 14.7243 9.55508 15.0122 9.20053 15.0122H2.56417C2.20962 15.0152 1.92174 14.7243 1.92174 14.3698ZM18.1824 17.4395H19.243V18.3486H0.758108V17.4395H1.81871C1.90356 17.4395 1.97023 17.3728 1.97023 17.2879V16.3789C1.97023 16.294 1.90356 16.2273 1.81871 16.2273H0.758108V15.3182H19.243V16.2273H18.1824C18.0975 16.2273 18.0308 16.294 18.0308 16.3789V17.2879C18.0308 17.3698 18.0975 17.4395 18.1824 17.4395Z" stroke="#B3B3B3" stroke-width="0.3" mask="url(#path-3-outside-1_1549_59175)"/>
<path d="M16.1909 16.1773H11.3C11.1875 16.1773 11.0984 16.2663 11.0984 16.3788V17.2879C11.0984 17.4004 11.1875 17.4894 11.3 17.4894H16.1909C16.3033 17.4894 16.3924 17.4004 16.3924 17.2879V16.3788C16.3924 16.2663 16.3033 16.1773 16.1909 16.1773ZM15.9893 17.0864H11.5015V16.5803H15.9893V17.0864Z" fill="#B3B3B3" stroke="#B3B3B3" stroke-width="0.1"/>
<path d="M8.70063 16.1773H3.80972C3.69726 16.1773 3.6082 16.2663 3.6082 16.3788V17.2879C3.6082 17.4004 3.69726 17.4894 3.80972 17.4894H8.70063C8.81309 17.4894 8.90214 17.4004 8.90214 17.2879V16.3788C8.90214 16.2663 8.81309 16.1773 8.70063 16.1773ZM8.49911 17.0864H4.01123V16.5803H8.49911V17.0864Z" fill="#B3B3B3" stroke="#B3B3B3" stroke-width="0.1"/>
<path d="M7.24302 7.36978H7.8612C7.94605 7.36978 8.01272 7.30312 8.01272 7.21827V6.36069H8.42484C8.48545 6.36069 8.53999 6.32433 8.56423 6.26675C8.58848 6.20918 8.57332 6.14554 8.5309 6.10312L7.65817 5.23039C7.59757 5.16979 7.50363 5.16979 7.44302 5.23039L6.57029 6.10312C6.52787 6.14554 6.51272 6.21221 6.53696 6.26675C6.5612 6.3213 6.61575 6.36069 6.67635 6.36069H7.08848V7.21827C7.09151 7.30009 7.1612 7.36978 7.24302 7.36978ZM7.04605 6.05766L7.55211 5.5516L8.05817 6.05766H7.8612C7.77635 6.05766 7.70969 6.12433 7.70969 6.20918V7.06675H7.39454V6.20918C7.39454 6.12433 7.32787 6.05766 7.24302 6.05766H7.04605Z" fill="#B3B3B3"/>
<path d="M5.96772 7.94554L5.96835 7.94537C6.08999 7.91384 6.16289 7.79129 6.13122 7.6691L6.13123 7.6691L6.13088 7.66785C6.1176 7.62003 6.11241 7.57528 6.11241 7.53641V2.29702C6.11241 1.98389 6.36671 1.72959 6.67983 1.72959H8.12301V2.66671C8.12301 2.73033 8.15004 2.78845 8.19043 2.82884L8.19042 2.82885L8.19149 2.82987L8.73949 3.35668C8.8262 3.44277 8.96674 3.44279 9.05347 3.35671L9.4465 2.97973L9.83954 3.35673C9.92625 3.44277 10.0667 3.44277 10.1535 3.35673L10.5465 2.97973L10.94 3.3572L10.94 3.35723L10.9418 3.35882C10.9844 3.39719 11.0382 3.4205 11.098 3.4205C11.1578 3.4205 11.2116 3.39719 11.2542 3.35882L11.2543 3.35885L11.2559 3.35729L11.8067 2.8307C11.8546 2.78705 11.876 2.72644 11.876 2.66671V1.72656H13.3192C13.6323 1.72656 13.8866 1.98086 13.8866 2.29399V7.53641C13.8866 7.57528 13.8815 7.62003 13.8682 7.66785L13.8678 7.6691C13.8358 7.79279 13.9136 7.91384 14.03 7.9452L14.0299 7.94554L14.0372 7.94675C14.0391 7.94706 14.0414 7.9475 14.0442 7.94802C14.0561 7.95025 14.0754 7.95384 14.092 7.95384C14.1913 7.95384 14.2856 7.88677 14.3129 7.78318C14.3358 7.69794 14.3457 7.61563 14.3457 7.53944V2.29702C14.3457 1.73438 13.8879 1.27656 13.3253 1.27656H6.67983C6.1172 1.27656 5.65937 1.73438 5.65937 2.29702V7.53944C5.65937 7.61833 5.66923 7.69715 5.69186 7.7817C5.72057 7.90637 5.84529 7.97614 5.96772 7.94554ZM10.7075 2.50047L10.7075 2.50044L10.7058 2.49885C10.6631 2.46048 10.6093 2.43717 10.5495 2.43717C10.4897 2.43717 10.4359 2.46048 10.3933 2.49885L10.3933 2.49882L10.3915 2.50047L9.99801 2.87794L9.60498 2.50096C9.51827 2.4149 9.37775 2.4149 9.29104 2.50096L8.89808 2.87787L8.57604 2.56812V1.72656H11.426V2.56795L11.1012 2.87806L10.7075 2.50047Z" fill="#B3B3B3" stroke="#B3B3B3" stroke-width="0.15"/>
</svg>
