<svg width="33" height="32" viewBox="0 0 33 32" fill="none" xmlns="http://www.w3.org/2000/svg">
<path d="M26.9754 10.5L20.9254 4.45001C20.8504 4.37501 20.7254 4.32501 20.6254 4.32501H11.9004C10.7004 4.32501 9.72539 5.30001 9.72539 6.50001V14.925H7.15039C6.45039 14.925 5.90039 15.475 5.90039 16.175V23.5C5.90039 24.2 6.45039 24.75 7.15039 24.75H9.72539V25.55C9.72539 26.75 10.7004 27.725 11.9004 27.725H24.9504C26.1504 27.725 27.1254 26.75 27.1254 25.55V10.8C27.1004 10.7 27.0504 10.575 26.9754 10.5ZM25.6004 10.375H22.3254C21.6254 10.375 21.0254 9.80001 21.0254 9.07501V5.80001L25.6004 10.375ZM6.77539 23.475V16.15C6.77539 15.95 6.95039 15.775 7.15039 15.775H19.8004C20.0004 15.775 20.1754 15.95 20.1754 16.15V23.475C20.1754 23.675 20.0004 23.85 19.8004 23.85H7.15039C6.95039 23.85 6.77539 23.675 6.77539 23.475ZM24.9504 26.8H11.9004C11.2004 26.8 10.6004 26.225 10.6004 25.5V24.7H19.7754C20.4754 24.7 21.0254 24.15 21.0254 23.45V16.15C21.0254 15.45 20.4754 14.9 19.7754 14.9H10.6004V6.47501C10.6004 5.77501 11.1754 5.17501 11.9004 5.17501H20.1754V9.07501C20.1754 10.275 21.1504 11.25 22.3504 11.25H26.2504V25.525C26.2254 26.225 25.6504 26.8 24.9504 26.8Z" fill="#333333"/>
<path d="M11.0746 19.225C11.0746 18.5 10.4996 18 9.72461 18H8.09961V21.6H8.87461V20.425H9.72461C10.4996 20.45 11.0746 19.95 11.0746 19.225ZM9.62461 19.725H8.84961V18.7H9.62461C9.99961 18.7 10.2746 18.9 10.2746 19.2C10.2746 19.5 9.99961 19.725 9.62461 19.725Z" fill="#333333"/>
<path d="M15.1992 19.8C15.1992 18.75 14.3492 18 13.1242 18H11.8242V21.6H13.1242C14.3492 21.625 15.1992 20.875 15.1992 19.8ZM12.6242 18.7H13.2492C13.8492 18.65 14.3742 19.125 14.4242 19.725C14.4742 20.4 13.9242 20.95 13.2492 20.9H12.6242V18.7Z" fill="#333333"/>
<path d="M16.8492 20.2H18.6492V19.5H16.8492V18.7H18.8492V18H16.0742V21.625H16.8492V20.2Z" fill="#333333"/>
</svg>
