<svg width="18" height="28" viewBox="0 0 18 28" fill="none" xmlns="http://www.w3.org/2000/svg">
<path d="M3.57596 0.5H3.07596V1V17.1889H1.99414H1.49414V17.6889V19.4617V19.9617H1.99414H3.07596V27V27.5H3.57596H5.21232H5.71232V27V19.9617H10.7735H11.2735V19.4617V17.6889V17.1889H10.7735H5.71232V15.8253H9.68254C13.5017 15.8253 16.5049 12.3274 16.5049 8.16188C16.5049 3.99704 13.5016 0.5 9.68254 0.5H3.57596ZM5.71232 3.27273H9.68259C11.927 3.27273 13.8686 5.39847 13.8686 8.16188C13.8686 10.9263 11.9269 13.0526 9.68259 13.0526H5.71232V3.27273Z" fill="#B3B3B3" stroke="#B3B3B3"/>
</svg>
