<svg width="40" height="40" viewBox="0 0 40 40" fill="none" xmlns="http://www.w3.org/2000/svg">
<g clip-path="url(#clip0_2198_17190)">
<path d="M6.05896 15.115L5.77616 15.3035C5.37899 15.5683 4.85013 15.5159 4.5126 15.1784L4.35324 15.019C4.07968 14.7455 3.92599 14.3745 3.92599 13.9876C3.92599 12.9893 3.20426 12.1373 2.21955 11.9732L1.93235 11.9253C1.03621 11.776 0.147444 12.2285 -0.258852 13.0411C-0.822061 14.1676 -0.257035 15.5317 0.937712 15.9299L1.34731 16.0664C1.86857 16.2402 2.2776 16.6492 2.45136 17.1705L2.56723 17.5181C2.68816 17.8809 2.63482 18.2792 2.42269 18.5974L2.26477 18.8343C1.82595 19.4925 1.59179 20.2659 1.59179 21.057V21.6464C1.59179 22.3298 1.20569 22.9545 0.594453 23.2602L-0.322571 23.7187C-0.591387 23.8531 -0.902586 23.8752 -1.18771 23.7802L-1.34313 23.7284C-2.00295 23.5084 -2.72409 23.8071 -3.03513 24.4292C-3.38032 25.1196 -3.10049 25.9591 -2.41011 26.3043L-2.30366 26.3575C-1.71979 26.6494 -1.01461 26.535 -0.553011 26.0734L-0.410222 25.9306C-0.245741 25.7661 -0.0396507 25.6494 0.186015 25.593L0.902829 25.4138C1.67392 25.221 2.48546 25.5092 2.96235 26.145L3.29223 26.5849C3.70901 27.1406 4.24945 27.5916 4.87076 27.9023C5.69109 28.3124 6.13541 29.2209 5.95554 30.1203L5.75146 31.1407C5.70236 31.3861 5.5926 31.6154 5.43218 31.8076L5.15263 32.1425C4.76509 32.6067 4.70303 33.2615 4.99646 33.7903C5.37675 34.4756 6.23842 34.7352 6.93942 34.3847C7.561 34.0739 7.89092 33.3693 7.72238 32.6951L7.58085 32.129C7.48229 31.7347 7.53954 31.3177 7.74068 30.9646L8.17264 30.2064C8.42239 29.768 8.93213 29.5478 9.42255 29.6664L9.72469 29.7395C10.4829 29.923 11.2833 29.7403 11.8869 29.246C12.3366 28.8776 12.9924 28.9102 13.4035 29.3212L14.693 30.6108C14.8982 30.8159 15.0134 31.0942 15.0134 31.3844C15.0134 32.1331 15.5547 32.7721 16.2933 32.8952L16.6003 32.9463C17.6025 33.1133 18.5147 32.3405 18.5147 31.3246C18.5147 30.5655 17.9951 29.9051 17.2573 29.7266L16.9011 29.6404C16.4467 29.5304 16.0691 29.2159 15.8789 28.7889L15.4499 27.826C15.1805 27.2213 15.2597 26.518 15.6569 25.9883L15.8141 25.7788C16.4307 24.9566 16.7641 23.9566 16.7641 22.9288V22.7095C16.7641 22.0261 17.1502 21.4013 17.7614 21.0957L18.6375 20.6577C18.9325 20.5102 19.2741 20.4859 19.5871 20.5902L19.8862 20.6899C20.4546 20.8794 21.0795 20.665 21.4119 20.1665C21.7632 19.6395 21.6937 18.9378 21.2459 18.49L21.1407 18.3849C20.6318 17.8759 19.8343 17.7969 19.2354 18.1962L18.7443 18.5236C18.5924 18.6249 18.4242 18.6993 18.2471 18.7436L17.5882 18.9083C16.7657 19.1139 15.9108 18.7207 15.5317 17.9624C15.1932 17.2855 14.6688 16.7192 14.0198 16.3298L13.2762 15.8837C12.575 15.4629 12.2313 14.6331 12.4296 13.8397L12.593 13.186C12.6494 12.9603 12.7661 12.7543 12.9306 12.5898L12.973 12.5474C13.4946 12.0258 13.6239 11.2291 13.294 10.5693L13.1709 10.3231C12.8836 9.7486 12.2359 9.45068 11.6128 9.60647C10.9031 9.78389 10.4579 10.4874 10.6013 11.2047L10.7904 12.1502C10.8789 12.5926 10.788 13.052 10.5377 13.4274L10.2196 13.9047C9.93338 14.334 9.45162 14.5918 8.93572 14.5918H7.78694C7.17193 14.5918 6.57068 14.7738 6.05896 15.115Z" stroke="#1C48A0" stroke-width="1.5"/>
<path d="M6.09592 20.4288C6.09592 20.6592 5.90918 20.8459 5.67882 20.8459C5.44846 20.8459 5.26172 20.6592 5.26172 20.4288C5.26172 20.1985 5.44846 20.0117 5.67882 20.0117C5.90918 20.0117 6.09592 20.1985 6.09592 20.4288Z" fill="#1C48A0" stroke="#1C48A0" stroke-width="1.5"/>
<path d="M11.9319 25.6788C11.9319 25.9092 11.7451 26.0959 11.5148 26.0959C11.2844 26.0959 11.0977 25.9092 11.0977 25.6788C11.0977 25.4485 11.2844 25.2617 11.5148 25.2617C11.7451 25.2617 11.9319 25.4485 11.9319 25.6788Z" fill="#1C48A0" stroke="#1C48A0" stroke-width="1.5"/>
<path d="M11.9319 18.6769C11.9319 18.9072 11.7451 19.094 11.5148 19.094C11.2844 19.094 11.0977 18.9072 11.0977 18.6769C11.0977 18.4465 11.2844 18.2598 11.5148 18.2598C11.7451 18.2598 11.9319 18.4465 11.9319 18.6769Z" fill="#1C48A0" stroke="#1C48A0" stroke-width="1.5"/>
<path d="M9.59679 22.7632C9.59679 22.6713 9.67131 22.5968 9.76324 22.5968C9.85517 22.5968 9.92969 22.6713 9.92969 22.7632C9.92969 22.8552 9.85517 22.9297 9.76324 22.9297C9.67131 22.9297 9.59679 22.8552 9.59679 22.7632Z" fill="#1C48A0" stroke="#1C48A0" stroke-width="1.5"/>
<path d="M6.08897 25.0953C6.08897 25.0033 6.1635 24.9288 6.25542 24.9288C6.34735 24.9288 6.42188 25.0033 6.42188 25.0953C6.42188 25.1872 6.34735 25.2617 6.25542 25.2617C6.1635 25.2617 6.08897 25.1872 6.08897 25.0953Z" fill="#1C48A0" stroke="#1C48A0" stroke-width="1.5"/>
<path d="M24.7044 3.67509L24.5245 3.79506C24.2717 3.96356 23.9352 3.93024 23.7204 3.71544L23.619 3.61403C23.4449 3.43995 23.3471 3.20384 23.3471 2.95765C23.3471 2.32237 22.8878 1.7802 22.2612 1.67576L22.0784 1.6453C21.5081 1.55026 20.9425 1.83826 20.684 2.35537C20.3256 3.07218 20.6852 3.94024 21.4454 4.19367L21.7061 4.28056C22.0378 4.39113 22.2981 4.65142 22.4087 4.98313L22.4824 5.20434C22.5594 5.43521 22.5254 5.68868 22.3904 5.89117L22.2899 6.04192C22.0107 6.46078 21.8617 6.95293 21.8617 7.45635V7.83147C21.8617 8.26635 21.616 8.6639 21.227 8.85839L20.6434 9.15017C20.4724 9.2357 20.2743 9.24977 20.0929 9.18929L19.994 9.15632C19.5741 9.01636 19.1152 9.20645 18.9173 9.60232C18.6976 10.0417 18.8757 10.5759 19.315 10.7955L19.3828 10.8294C19.7543 11.0152 20.2031 10.9424 20.4968 10.6486L20.5877 10.5578C20.6923 10.4531 20.8235 10.3788 20.9671 10.3429L21.4232 10.2289C21.9139 10.1062 22.4304 10.2896 22.7339 10.6942L22.9438 10.9741C23.209 11.3277 23.5529 11.6148 23.9483 11.8125C24.4703 12.0735 24.7531 12.6516 24.6386 13.2239L24.5087 13.8733C24.4775 14.0295 24.4076 14.1754 24.3056 14.2977L24.1277 14.5108C23.8811 14.8062 23.8416 15.2229 24.0283 15.5594C24.2703 15.9955 24.8186 16.1607 25.2647 15.9376C25.6603 15.7398 25.8702 15.2915 25.763 14.8624L25.6729 14.5022C25.6102 14.2513 25.6466 13.9859 25.7746 13.7612L26.0495 13.2787C26.2084 12.9997 26.5328 12.8596 26.8449 12.9351L27.0372 12.9816C27.5197 13.0984 28.029 12.9821 28.4131 12.6675C28.6993 12.4331 29.1166 12.4538 29.3782 12.7154L30.1988 13.536C30.3294 13.6666 30.4027 13.8437 30.4027 14.0283C30.4027 14.5048 30.7472 14.9114 31.2172 14.9897L31.4126 15.0223C32.0503 15.1286 32.6308 14.6368 32.6308 13.9903C32.6308 13.5072 32.3001 13.087 31.8306 12.9734L31.6039 12.9185C31.3148 12.8486 31.0745 12.6484 30.9535 12.3767L30.6805 11.7639C30.509 11.3791 30.5594 10.9316 30.8122 10.5945L30.9122 10.4612C31.3047 9.93794 31.5168 9.30155 31.5168 8.64752V8.50793C31.5168 8.07305 31.7625 7.6755 32.1515 7.48101L32.7089 7.20228C32.8967 7.1084 33.1141 7.09295 33.3132 7.15933L33.5036 7.22279C33.8653 7.34336 34.263 7.20692 34.4744 6.88968C34.698 6.55433 34.6538 6.10781 34.3688 5.82283L34.3019 5.75593C33.978 5.43204 33.4705 5.38179 33.0894 5.63587L32.7769 5.84421C32.6802 5.90866 32.5732 5.956 32.4605 5.98418L32.0412 6.08901C31.5178 6.21986 30.9738 5.96963 30.7325 5.4871C30.5171 5.05635 30.1834 4.69594 29.7704 4.44816L29.2972 4.16425C28.851 3.89649 28.6322 3.36844 28.7585 2.86356L28.8625 2.44756C28.8984 2.30396 28.9726 2.17281 29.0773 2.06814L29.1043 2.04117C29.4362 1.70927 29.5184 1.20223 29.3085 0.782403L29.2302 0.62571C29.0474 0.260116 28.6352 0.0705338 28.2387 0.16967C27.787 0.282574 27.5037 0.730277 27.595 1.18675L27.7153 1.7884C27.7716 2.06994 27.7138 2.36231 27.5546 2.6012L27.3521 2.90491C27.17 3.17807 26.8634 3.34215 26.5351 3.34215H25.804C25.4127 3.34215 25.0301 3.458 24.7044 3.67509Z" stroke="#1C48A0" stroke-width="1.5"/>
<path d="M24.4581 7.05331C24.4581 7.05328 24.4581 7.05326 24.4581 7.05325C24.4581 7.05323 24.4581 7.05321 24.4581 7.05318C24.4581 7.05281 24.4583 7.0516 24.4589 7.05018C24.4595 7.04876 24.4601 7.0482 24.4602 7.04808C24.4603 7.04797 24.4609 7.04743 24.4623 7.04683C24.4637 7.04623 24.4649 7.04603 24.4653 7.04597C24.4653 7.04597 24.4653 7.04596 24.4654 7.04596C24.4654 7.04596 24.4654 7.04597 24.4654 7.04597C24.4658 7.04603 24.467 7.04623 24.4684 7.04683C24.4698 7.04743 24.4704 7.04797 24.4705 7.04808C24.4706 7.0482 24.4712 7.04876 24.4718 7.05018C24.4724 7.0516 24.4726 7.05281 24.4726 7.05318C24.4726 7.05321 24.4726 7.05323 24.4726 7.05325C24.4726 7.05326 24.4726 7.05328 24.4726 7.05331C24.4726 7.05368 24.4724 7.05489 24.4718 7.05632C24.4712 7.05773 24.4706 7.05829 24.4705 7.05841C24.4704 7.05852 24.4698 7.05907 24.4684 7.05967C24.467 7.06027 24.4658 7.06046 24.4654 7.06052C24.4654 7.06053 24.4654 7.06053 24.4654 7.06053C24.4653 7.06053 24.4653 7.06053 24.4653 7.06052C24.4649 7.06046 24.4637 7.06027 24.4623 7.05967C24.4609 7.05907 24.4603 7.05852 24.4602 7.05841C24.4601 7.05829 24.4595 7.05773 24.4589 7.05632C24.4583 7.05489 24.4581 7.05368 24.4581 7.05331Z" fill="#1C48A0" stroke="#1C48A0" stroke-width="1.5"/>
<path d="M28.1612 10.3971C28.1612 10.397 28.1612 10.397 28.1612 10.397C28.1612 10.397 28.1612 10.397 28.1612 10.3969C28.1613 10.3966 28.1615 10.3953 28.1621 10.3939C28.1627 10.3925 28.1632 10.392 28.1633 10.3918C28.1634 10.3917 28.164 10.3912 28.1654 10.3906C28.1668 10.39 28.168 10.3898 28.1684 10.3897C28.1684 10.3897 28.1685 10.3897 28.1685 10.3897C28.1685 10.3897 28.1685 10.3897 28.1685 10.3897C28.1689 10.3898 28.1701 10.39 28.1716 10.3906C28.173 10.3912 28.1735 10.3917 28.1736 10.3918C28.1738 10.392 28.1743 10.3925 28.1749 10.3939C28.1755 10.3953 28.1757 10.3966 28.1758 10.3969C28.1758 10.397 28.1758 10.397 28.1758 10.397C28.1758 10.397 28.1758 10.397 28.1758 10.3971C28.1757 10.3974 28.1755 10.3986 28.1749 10.4001C28.1743 10.4015 28.1738 10.402 28.1736 10.4022C28.1735 10.4023 28.173 10.4028 28.1716 10.4034C28.1701 10.404 28.1689 10.4042 28.1685 10.4043C28.1685 10.4043 28.1685 10.4043 28.1685 10.4043C28.1685 10.4043 28.1684 10.4043 28.1684 10.4043C28.168 10.4042 28.1668 10.404 28.1654 10.4034C28.164 10.4028 28.1634 10.4023 28.1633 10.4022C28.1632 10.402 28.1627 10.4015 28.1621 10.4001C28.1615 10.3986 28.1613 10.3974 28.1612 10.3971Z" fill="#1C48A0" stroke="#1C48A0" stroke-width="1.5"/>
<path d="M28.1612 5.94003C28.1612 5.94 28.1612 5.93998 28.1612 5.93997C28.1612 5.93995 28.1612 5.93993 28.1612 5.9399C28.1613 5.93953 28.1615 5.93832 28.1621 5.93689C28.1627 5.93548 28.1632 5.93492 28.1633 5.9348C28.1634 5.93469 28.164 5.93415 28.1654 5.93355C28.1668 5.93294 28.168 5.93275 28.1684 5.93269C28.1684 5.93269 28.1685 5.93268 28.1685 5.93268C28.1685 5.93268 28.1685 5.93269 28.1685 5.93269C28.1689 5.93275 28.1701 5.93294 28.1716 5.93355C28.173 5.93415 28.1735 5.93469 28.1736 5.9348C28.1738 5.93492 28.1743 5.93548 28.1749 5.93689C28.1755 5.93832 28.1757 5.93953 28.1758 5.9399C28.1758 5.93993 28.1758 5.93995 28.1758 5.93997C28.1758 5.93998 28.1758 5.94 28.1758 5.94003C28.1757 5.9404 28.1755 5.94161 28.1749 5.94304C28.1743 5.94445 28.1738 5.94501 28.1736 5.94513C28.1735 5.94524 28.173 5.94579 28.1716 5.94638C28.1701 5.94699 28.1689 5.94718 28.1685 5.94724C28.1685 5.94724 28.1685 5.94725 28.1685 5.94725C28.1685 5.94725 28.1684 5.94724 28.1684 5.94724C28.168 5.94718 28.1668 5.94699 28.1654 5.94638C28.164 5.94579 28.1634 5.94524 28.1633 5.94513C28.1632 5.94501 28.1627 5.94445 28.1621 5.94304C28.1615 5.94161 28.1613 5.9404 28.1612 5.94003Z" fill="#1C48A0" stroke="#1C48A0" stroke-width="1.5"/>
<path d="M27.4341 8.54152C27.4341 8.74661 27.2678 8.91287 27.0628 8.91287C26.8577 8.91287 26.6914 8.74661 26.6914 8.54152C26.6914 8.33643 26.8577 8.17017 27.0628 8.17017C27.2678 8.17017 27.4341 8.33643 27.4341 8.54152Z" fill="#1C48A0" stroke="#1C48A0" stroke-width="1.5"/>
<path d="M25.2075 10.0256C25.2075 10.2307 25.0413 10.397 24.8362 10.397C24.6311 10.397 24.4648 10.2307 24.4648 10.0256C24.4648 9.82056 24.6311 9.6543 24.8362 9.6543C25.0413 9.6543 25.2075 9.82056 25.2075 10.0256Z" fill="#1C48A0" stroke="#1C48A0" stroke-width="1.5"/>
<path d="M31.4932 22.733L31.2375 22.7406C30.8785 22.7512 30.5619 22.5069 30.4811 22.1569L30.4429 21.9916C30.3774 21.708 30.4273 21.4099 30.5816 21.163C30.9797 20.5259 30.8588 19.6944 30.2959 19.197L30.1317 19.052C29.6194 18.5993 28.8717 18.5337 28.2884 18.8902C27.4798 19.3845 27.2964 20.4803 27.9 21.2109L28.107 21.4614C28.3703 21.7801 28.4683 22.2043 28.3713 22.6062L28.3066 22.8742C28.2391 23.154 28.0462 23.3869 27.784 23.5054L27.5887 23.5936C27.0462 23.8386 26.5884 24.2388 26.2729 24.7436L26.0379 25.1198C25.7654 25.5559 25.2698 25.8006 24.7579 25.7519L23.9898 25.6789C23.7647 25.6574 23.5573 25.5475 23.4132 25.3731L23.3347 25.2781C23.0013 24.8746 22.422 24.7776 21.9754 25.0506C21.4799 25.3535 21.3237 26.0008 21.6266 26.4964L21.6733 26.5729C21.9295 26.992 22.4251 27.2002 22.9038 27.0897L23.0519 27.0555C23.2224 27.0161 23.4005 27.0238 23.567 27.0778L24.0959 27.2493C24.6648 27.4338 25.0678 27.9412 25.1186 28.5372L25.1537 28.9494C25.1981 29.4703 25.3631 29.9736 25.6357 30.4196C25.9957 31.0085 25.917 31.7654 25.4435 32.2676L24.9064 32.8374C24.7772 32.9745 24.6157 33.0771 24.4367 33.1357L24.1248 33.238C23.6923 33.3797 23.3916 33.7728 23.368 34.2273C23.3374 34.8163 23.7838 35.3255 24.3709 35.3814C24.8915 35.4309 25.383 35.1128 25.5443 34.6153L25.6798 34.1976C25.7741 33.9068 25.9769 33.6635 26.2461 33.5183L26.8241 33.2067C27.1583 33.0265 27.5714 33.0893 27.837 33.3605L28.0007 33.5277C28.4114 33.9471 28.9951 34.1497 29.5773 34.0749C30.0113 34.0192 30.4168 34.3015 30.5152 34.7277L30.8239 36.0649C30.873 36.2776 30.8356 36.5012 30.7199 36.6863C30.4213 37.1642 30.512 37.7878 30.9342 38.1608L31.1097 38.3159C31.6827 38.8222 32.573 38.6928 32.9781 38.0444C33.2808 37.56 33.2126 36.9313 32.8129 36.5232L32.62 36.3261C32.3738 36.0748 32.2583 35.7235 32.3072 35.3751L32.4174 34.5896C32.4866 34.0962 32.8176 33.679 33.2823 33.4994L33.4662 33.4284C34.1876 33.1496 34.7991 32.6443 35.2089 31.9884L35.2964 31.8484C35.5689 31.4123 36.0644 31.1676 36.5764 31.2163L37.3101 31.2861C37.5572 31.3096 37.7849 31.4304 37.943 31.6218L38.0941 31.8047C38.3813 32.1522 38.8656 32.2646 39.2765 32.079C39.7108 31.8828 39.9463 31.4073 39.8391 30.9429L39.8139 30.8339C39.6921 30.3061 39.2146 29.9378 38.6732 29.9537L38.2293 29.9668C38.0919 29.9709 37.9549 29.9513 37.8243 29.9089L37.3381 29.7513C36.7312 29.5545 36.3424 28.9627 36.4029 28.3276C36.4568 27.7607 36.348 27.1901 36.0891 26.6828L35.7925 26.1016C35.5127 25.5535 35.6243 24.8869 36.0672 24.4596L36.4322 24.1076C36.5582 23.9861 36.7149 23.9011 36.8854 23.8618L36.9294 23.8516C37.4702 23.7267 37.8704 23.2698 37.923 22.7173L37.9426 22.5111C37.9884 22.0299 37.6938 21.5815 37.234 21.4324C36.7104 21.2626 36.1457 21.534 35.9512 22.049L35.6949 22.7278C35.5749 23.0454 35.3337 23.3023 35.0243 23.4421L34.631 23.6198C34.2772 23.7796 33.8669 23.7521 33.5377 23.5463L32.8046 23.0882C32.4121 22.843 31.9558 22.7194 31.4932 22.733Z" stroke="#1C48A0" stroke-width="1.5"/>
<path d="M29.2475 26.0379C29.21 26.098 29.1309 26.1163 29.0708 26.0787C29.0107 26.0412 28.9925 25.9621 29.03 25.902C29.0675 25.8419 29.1467 25.8237 29.2067 25.8612C29.2668 25.8987 29.2851 25.9779 29.2475 26.0379Z" fill="#1C48A0" stroke="#1C48A0" stroke-width="1.5"/>
<path d="M30.853 31.7098C30.8155 31.7699 30.7363 31.7881 30.6763 31.7506C30.6162 31.7131 30.5979 31.634 30.6355 31.5739C30.673 31.5138 30.7521 31.4955 30.8122 31.5331C30.8723 31.5706 30.8905 31.6497 30.853 31.7098Z" fill="#1C48A0" stroke="#1C48A0" stroke-width="1.5"/>
<path d="M33.6499 27.243C33.6123 27.3031 33.5332 27.3213 33.4732 27.2838C33.4131 27.2463 33.3948 27.1672 33.4324 27.1071C33.4699 27.047 33.549 27.0287 33.6091 27.0663C33.6691 27.1038 33.6874 27.1829 33.6499 27.243Z" fill="#1C48A0" stroke="#1C48A0" stroke-width="1.5"/>
<path d="M30.5479 28.9247C30.6389 28.7791 30.8307 28.7349 30.9763 28.8258C31.1219 28.9168 31.1662 29.1086 31.0752 29.2542C30.9842 29.3998 30.7924 29.4441 30.6468 29.3531C30.5012 29.2621 30.457 29.0703 30.5479 28.9247Z" fill="#1C48A0" stroke="#1C48A0" stroke-width="1.5"/>
<path d="M27.3878 29.0204C27.4788 28.8748 27.6706 28.8306 27.8162 28.9215C27.9618 29.0125 28.006 29.2043 27.9151 29.3499C27.8241 29.4955 27.6323 29.5398 27.4867 29.4488C27.3411 29.3578 27.2968 29.166 27.3878 29.0204Z" fill="#1C48A0" stroke="#1C48A0" stroke-width="1.5"/>
</g>
<defs>
<clipPath id="clip0_2198_17190">
<rect width="40" height="40" fill="white"/>
</clipPath>
</defs>
</svg>
