<svg width="133" height="60" viewBox="0 0 133 60" fill="none" xmlns="http://www.w3.org/2000/svg">
<path d="M19.4076 24.4911L17.3684 19.2506H10.6578L8.6422 24.4911H6.48438L13.1001 7.48926H15.0208L21.6129 24.4911H19.4076ZM14.8311 12.2317C14.7837 12.1053 14.7047 11.8761 14.594 11.5441C14.4834 11.2121 14.3727 10.8722 14.262 10.5244C14.1672 10.1609 14.0882 9.88421 14.0249 9.69451C13.9459 10.0107 13.8589 10.3347 13.7641 10.6667C13.685 10.9829 13.5981 11.2753 13.5032 11.5441C13.4242 11.8128 13.3531 12.042 13.2898 12.2317L11.3691 17.3536H16.7281L14.8311 12.2317Z" fill="white"/>
<path d="M24.6403 24.4911V7.5604H34.6944V9.43368H26.7744V14.7215H29.2879C30.9794 14.7215 32.2915 14.935 33.2242 15.3618C34.1569 15.7728 34.805 16.3419 35.1686 17.0691C35.5322 17.7804 35.714 18.6025 35.714 19.5352C35.714 20.5627 35.5085 21.448 35.0975 22.1909C34.7023 22.9339 34.0541 23.503 33.153 23.8982C32.252 24.2934 31.0664 24.4911 29.5962 24.4911H24.6403ZM29.3828 22.6652C30.9004 22.6652 31.9674 22.4123 32.5839 21.9064C33.2005 21.3847 33.5087 20.5943 33.5087 19.5352C33.5087 18.808 33.3586 18.231 33.0582 17.8042C32.7736 17.3615 32.2994 17.0454 31.6355 16.8557C30.9873 16.666 30.1179 16.5711 29.0271 16.5711H26.7744V22.6652H29.3828Z" fill="white"/>
<path d="M47.1963 9.19655C46.2953 9.19655 45.4811 9.35464 44.754 9.6708C44.0268 9.97116 43.4103 10.4217 42.9044 11.0224C42.3985 11.6073 42.0112 12.3266 41.7425 13.1802C41.4738 14.0181 41.3394 14.9666 41.3394 16.0257C41.3394 17.4169 41.5528 18.6262 41.9796 19.6537C42.4222 20.6813 43.0704 21.4717 43.924 22.025C44.7935 22.5783 45.8764 22.8549 47.1726 22.8549C47.9156 22.8549 48.6191 22.7917 49.283 22.6652C49.947 22.5387 50.5951 22.3806 51.2275 22.1909V24.0405C50.5951 24.2776 49.9391 24.4515 49.2593 24.5622C48.5954 24.6728 47.7971 24.7282 46.8644 24.7282C45.1413 24.7282 43.7027 24.3725 42.5487 23.6611C41.3947 22.9497 40.5253 21.938 39.9404 20.6259C39.3713 19.3138 39.0867 17.7725 39.0867 16.002C39.0867 14.7215 39.2606 13.5517 39.6084 12.4926C39.972 11.4334 40.4936 10.5165 41.1734 9.74194C41.869 8.96733 42.7226 8.37452 43.7343 7.96351C44.7461 7.53668 45.908 7.32327 47.2201 7.32327C48.0895 7.32327 48.9274 7.41022 49.7336 7.58411C50.5398 7.758 51.2591 8.00303 51.8914 8.31919L51.0378 10.1213C50.5161 9.88421 49.9312 9.6708 49.283 9.4811C48.6507 9.2914 47.9551 9.19655 47.1963 9.19655Z" fill="white"/>
<path d="M86.1327 24.4911H83.9986V9.43368H78.6395C78.5289 10.3031 78.4103 11.22 78.2839 12.1843C78.1574 13.1328 78.023 14.0734 77.8807 15.0061C77.7543 15.9388 77.6278 16.8161 77.5014 17.6382C77.3749 18.4602 77.2484 19.1795 77.122 19.796C76.9164 20.8552 76.6635 21.7562 76.3632 22.4992C76.0628 23.2422 75.6597 23.8034 75.1538 24.1828C74.6638 24.5622 74.0156 24.7519 73.2094 24.7519C72.9407 24.7519 72.664 24.7203 72.3795 24.657C72.1107 24.6096 71.8736 24.5464 71.6681 24.4673V22.6889C71.842 22.768 72.0396 22.8391 72.2609 22.9023C72.4822 22.9497 72.7193 22.9735 72.9723 22.9735C73.4465 22.9735 73.818 22.7838 74.0868 22.4044C74.3713 22.0092 74.5926 21.527 74.7507 20.9579C74.9088 20.373 75.0432 19.796 75.1538 19.2269C75.2487 18.7685 75.3593 18.1598 75.4858 17.401C75.6123 16.6264 75.7466 15.7254 75.8889 14.6978C76.047 13.6703 76.2051 12.5558 76.3632 11.3544C76.5371 10.1371 76.703 8.87248 76.8611 7.5604H86.1327V24.4911Z" fill="white"/>
<path d="M112.62 16.002C112.62 17.3141 112.462 18.5076 112.145 19.5826C111.829 20.6575 111.355 21.5823 110.723 22.3569C110.09 23.1157 109.308 23.7006 108.375 24.1117C107.458 24.5227 106.383 24.7282 105.15 24.7282C103.538 24.7282 102.178 24.3962 101.072 23.7323C99.9809 23.0683 99.1431 22.1277 98.5581 20.9105C97.9732 19.6932 97.6492 18.2547 97.5859 16.5948H93.5785V24.4911H91.4444V7.5604H93.5785V14.7215H97.6334C97.744 13.2198 98.0918 11.9156 98.6767 10.809C99.2616 9.68661 100.092 8.82506 101.167 8.22434C102.241 7.60782 103.554 7.29956 105.103 7.29956C106.731 7.29956 108.098 7.66315 109.205 8.39033C110.327 9.1017 111.173 10.1134 111.742 11.4255C112.327 12.7218 112.62 14.2473 112.62 16.002ZM99.8149 16.002C99.8149 17.4248 99.9967 18.6499 100.36 19.6774C100.74 20.705 101.317 21.4954 102.091 22.0487C102.882 22.602 103.878 22.8786 105.079 22.8786C106.312 22.8786 107.316 22.602 108.091 22.0487C108.881 21.4954 109.458 20.705 109.822 19.6774C110.201 18.6499 110.391 17.4248 110.391 16.002C110.391 14.5793 110.209 13.362 109.845 12.3503C109.482 11.3228 108.913 10.5403 108.138 10.0028C107.363 9.44949 106.36 9.17284 105.126 9.17284C103.909 9.17284 102.905 9.44949 102.115 10.0028C101.325 10.5403 100.74 11.3228 100.36 12.3503C99.9967 13.362 99.8149 14.5793 99.8149 16.002Z" fill="white"/>
<path d="M121.737 24.4911H119.603V9.43368H114.315V7.5604H127.001V9.43368H121.737V24.4911Z" fill="white"/>
<path d="M71.0338 15.928C71.0338 11.1989 67.1998 7.36548 62.4707 7.36548C60.0975 7.36548 57.9496 8.33161 56.3985 9.89163H62.6637C63.0019 10.2322 63.312 10.5996 63.5892 10.9928H55.473C55.1868 11.3979 54.9353 11.8299 54.722 12.2822H64.3403C64.5075 12.6365 64.6509 13.0045 64.7686 13.3839H54.293C54.1633 13.7998 54.0653 14.2305 54.0002 14.6721H65.062C65.1152 15.0324 65.1456 15.4004 65.1522 15.7732H53.91C53.9094 15.8246 53.9082 15.8766 53.9082 15.928C53.9082 16.3122 53.9339 16.691 53.9829 17.0626H65.0793C65.0291 17.4378 64.9551 17.8059 64.8589 18.1638H54.2034C54.3234 18.6089 54.4776 19.0391 54.6646 19.4519H64.397C64.2237 19.8355 64.0236 20.203 63.7977 20.5537H55.2639C55.5614 21.0161 55.902 21.4481 56.2802 21.8431H62.782C62.3925 22.2511 61.9629 22.6204 61.4998 22.9454H57.563C58.9527 23.9187 60.6448 24.4911 62.4707 24.4911C67.1998 24.4911 71.0338 20.6577 71.0338 15.928Z" fill="white"/>
<path d="M21.7232 48.8453L16.7075 35.011H16.6221C16.6506 35.3057 16.6719 35.6814 16.6861 36.1381C16.7146 36.5948 16.7359 37.0958 16.7502 37.6409C16.7644 38.1713 16.7715 38.7164 16.7715 39.2762V48.8453H15V33.0663H17.8387L22.5342 45.9945H22.6196L27.4005 33.0663H30.2178V48.8453H28.3183V39.1436C28.3183 38.628 28.3254 38.1197 28.3396 37.6188C28.3538 37.1031 28.3752 36.6243 28.4036 36.1823C28.4321 35.7256 28.4534 35.3425 28.4677 35.0331H28.3823L23.3026 48.8453H21.7232Z" fill="white"/>
<path d="M43.5196 48.8453H35.0036V33.0663H43.5196V34.8122H36.9245V39.7403H43.1354V41.4641H36.9245V47.0994H43.5196V48.8453Z" fill="white"/>
<path d="M57.7698 33.0663V47.0773H59.712V53H57.8765V48.8453H47.3969V53H45.5614V47.0773H46.7352C47.2475 46.1639 47.7313 45.14 48.1866 44.0055C48.6561 42.8711 49.0688 41.6851 49.4245 40.4475C49.7802 39.1952 50.0719 37.9429 50.2996 36.6906C50.5272 35.4383 50.6695 34.2302 50.7264 33.0663H57.7698ZM52.4126 34.8564C52.3557 35.7109 52.2134 36.6759 51.9857 37.7514C51.7723 38.8269 51.4948 39.9319 51.1533 41.0663C50.826 42.186 50.4561 43.2689 50.0435 44.3149C49.645 45.361 49.2182 46.2818 48.7629 47.0773H55.8702V34.8564H52.4126Z" fill="white"/>
<path d="M62.9222 33.0663H64.715V41.7293C64.715 42.0976 64.7079 42.5028 64.6937 42.9447C64.6937 43.372 64.6866 43.7993 64.6723 44.2265C64.6581 44.6538 64.6368 45.0368 64.6083 45.3757C64.5941 45.6998 64.5798 45.9503 64.5656 46.1271H64.651L73.0389 33.0663H75.1733V48.8453H73.3804V40.2707C73.3804 39.8729 73.3875 39.4457 73.4018 38.9889C73.416 38.5175 73.4302 38.0681 73.4444 37.6409C73.4729 37.1989 73.4942 36.8085 73.5085 36.4696C73.5227 36.1308 73.5369 35.8803 73.5512 35.7182H73.4658L65.0565 48.8453H62.9222V33.0663Z" fill="white"/>
<path d="M91.0437 48.8453H88.7386L81.8447 40.8453V48.8453H79.9238V33.0663H81.8447V40.7127L88.5679 33.0663H90.7449L84.1285 40.7348L91.0437 48.8453Z" fill="white"/>
<path d="M103.32 48.8453L101.484 43.9613H95.4439L93.6298 48.8453H91.6875L97.6423 33H99.3711L105.305 48.8453H103.32ZM99.2004 37.4199C99.1577 37.302 99.0865 37.0884 98.9869 36.779C98.8873 36.4696 98.7877 36.1529 98.6881 35.8287C98.6028 35.4899 98.5316 35.232 98.4747 35.0552C98.4035 35.3499 98.3253 35.6519 98.2399 35.9613C98.1688 36.256 98.0905 36.5285 98.0051 36.779C97.934 37.0295 97.87 37.2431 97.8131 37.4199L96.0842 42.1934H100.908L99.2004 37.4199Z" fill="white"/>
<path d="M119 48.8453H117.079V34.8122H112.256C112.156 35.6225 112.049 36.477 111.935 37.3757C111.822 38.2597 111.701 39.1363 111.573 40.0055C111.459 40.8748 111.345 41.6924 111.231 42.4586C111.117 43.2247 111.003 43.895 110.89 44.4696C110.705 45.4567 110.477 46.2965 110.207 46.9889C109.936 47.6814 109.573 48.2044 109.118 48.558C108.677 48.9116 108.094 49.0884 107.368 49.0884C107.126 49.0884 106.877 49.0589 106.621 49C106.379 48.9558 106.166 48.8969 105.981 48.8232V47.1657C106.137 47.2394 106.315 47.3057 106.514 47.3646C106.713 47.4088 106.927 47.4309 107.154 47.4309C107.581 47.4309 107.916 47.2541 108.158 46.9006C108.414 46.5322 108.613 46.0829 108.755 45.5525C108.897 45.0074 109.018 44.4696 109.118 43.9392C109.203 43.512 109.303 42.9448 109.417 42.2376C109.531 41.5157 109.652 40.6759 109.78 39.7182C109.922 38.7606 110.064 37.7219 110.207 36.6022C110.363 35.4678 110.512 34.2891 110.655 33.0663H119V48.8453Z" fill="white"/>
</svg>
