<svg width="10" height="17" viewBox="0 0 10 17" fill="none" xmlns="http://www.w3.org/2000/svg">
<path d="M1.74597 0.600049H1.54597V0.800049V10.6134H0.796875H0.596875V10.8134V11.877V12.077H0.796875H1.54597V16.4V16.6H1.74597H2.72778H2.92778V16.4V12.077H6.06449H6.26449V11.877V10.8134V10.6134H6.06449H2.92778V9.59522H5.40992C7.63481 9.59522 9.40333 7.55339 9.40333 5.09718C9.40333 2.64142 7.63478 0.600049 5.40992 0.600049H1.74597ZM2.92778 2.06369H5.40995C6.82447 2.06369 8.02155 3.39749 8.02155 5.09718C8.02155 6.79742 6.82442 8.13159 5.40995 8.13159H2.92778V2.06369Z" fill="#333333" stroke="#333333" stroke-width="0.4"/>
</svg>
