<svg width="40" height="40" viewBox="0 0 40 40" fill="none" xmlns="http://www.w3.org/2000/svg">
<g clip-path="url(#clip0_2198_2263)">
<path d="M10.2317 35.2313V0.992432H9.26953C7.06039 0.992432 5.26953 2.78329 5.26953 4.99243V35.2313C5.26953 36.6015 6.38035 37.7124 7.75061 37.7124C9.12087 37.7124 10.2317 36.6015 10.2317 35.2313Z" stroke="#1C48A0" stroke-width="1.5"/>
<path d="M5.26953 16.8713H10.2317M5.26953 21.3373H10.2317M5.26953 26.2994H10.2317" stroke="#1C48A0" stroke-width="1.5"/>
<path d="M29.5847 29.2767V12.3389C29.5847 7.64067 27.6028 3.16039 24.1263 0V0V0C20.6499 3.16039 18.668 7.64066 18.668 12.3389V29.2767" stroke="#1C48A0" stroke-width="1.5"/>
<circle cx="19.6614" cy="33.7434" r="4.21215" stroke="#1C48A0" stroke-width="1.5"/>
<circle cx="29.5832" cy="33.7434" r="4.21215" stroke="#1C48A0" stroke-width="1.5"/>
<circle cx="19.6606" cy="33.7427" r="1.23486" stroke="#1C48A0" stroke-width="1.5"/>
<circle cx="29.5825" cy="33.7427" r="1.23486" stroke="#1C48A0" stroke-width="1.5"/>
<path d="M18.668 15.3828V15.3828C18.668 17.9071 20.6029 20.01 23.1185 20.2196L24.6226 20.345V33.2466" stroke="#1C48A0" stroke-width="1.5"/>
<path d="M29.5859 16.8711V16.8711C29.5859 14.285 27.7365 12.0689 25.192 11.6063L24.1276 11.4127V-0.000224888" stroke="#1C48A0" stroke-width="1.5"/>
<path d="M25.1177 15.8791C25.1177 16.4273 24.6733 16.8716 24.1252 16.8716C23.5771 16.8716 23.1328 16.4273 23.1328 15.8791C23.1328 15.331 23.5771 14.8867 24.1252 14.8867C24.6733 14.8867 25.1177 15.331 25.1177 15.8791Z" fill="#1C48A0"/>
</g>
<defs>
<clipPath id="clip0_2198_2263">
<rect width="40" height="40" fill="white"/>
</clipPath>
</defs>
</svg>
