<svg width="40" height="40" viewBox="0 0 40 40" fill="none" xmlns="http://www.w3.org/2000/svg">
<g clip-path="url(#clip0_2198_14283)">
<path d="M31.0205 0H9.5625V33.2598H35.312V4.29159M31.0205 0L35.312 4.29159M31.0205 0V4.29159H35.312M14.3905 4.82804H26.1924M14.3905 9.11963H31.0205M14.3905 12.8748H31.0205M14.3905 16.6299H31.0205M14.3905 20.3851H31.0205M14.3905 24.1402H31.0205M14.3905 28.4318H31.0205" stroke="#1C48A0" stroke-width="1.5"/>
<path d="M5.26953 4.29102H26.7275L31.0191 8.58261V37.5508H5.26953V4.29102Z" fill="#F9F9F9"/>
<path d="M26.7275 4.29102H5.26953V37.5508H31.0191V8.58261M26.7275 4.29102L31.0191 8.58261M26.7275 4.29102V8.58261H31.0191M10.0976 9.11906H21.8994M10.0976 13.4106H26.7275M10.0976 17.1658H26.7275M10.0976 20.9209H26.7275M10.0976 24.6761H26.7275M10.0976 28.4312H26.7275M10.0976 32.7228H26.7275" stroke="#1C48A0" stroke-width="1.5"/>
<circle cx="30.4829" cy="30.5767" r="8.36963" fill="#F9F9F9" stroke="#1C48A0" stroke-width="1.5"/>
<path d="M34.0431 27.8948L29.7515 32.1864L27.8008 30.2356" stroke="#1C48A0" stroke-width="1.5" stroke-linecap="round" stroke-linejoin="round"/>
</g>
<defs>
<clipPath id="clip0_2198_14283">
<rect width="40" height="40" fill="white"/>
</clipPath>
</defs>
</svg>
