<svg width="20" height="20" viewBox="0 0 20 20" fill="none" xmlns="http://www.w3.org/2000/svg">
<path d="M18.9283 6.01707L18.9282 6.01709C18.9413 6.18699 19.1891 9.75003 17.7279 13.0738C17.6538 13.2873 17.2976 14.2772 16.774 15.2739C16.509 15.7783 16.1978 16.291 15.8546 16.707C15.5151 17.1184 15.1247 17.4595 14.6954 17.5818L14.6871 17.5841L14.6871 17.584C14.4354 17.6441 14.0649 17.6428 13.7112 17.469C13.3494 17.2913 13.0246 16.9424 12.8619 16.3442L12.8618 16.3435C12.6263 15.4661 11.9482 13.6545 11.7433 13.1135L11.7428 13.1121C11.6982 12.9916 11.6375 12.8777 11.5625 12.7735C11.4898 12.6742 11.36 12.5128 11.2019 12.3814C11.0384 12.2456 10.8774 12.1688 10.7366 12.1776C10.5769 12.1887 10.3991 12.2969 10.2234 12.4867C10.0529 12.6707 9.90865 12.9059 9.81309 13.1139L8.45702 16.5503L8.45696 16.5505C8.2277 17.1301 7.78763 17.5901 7.2311 17.6787C6.66111 17.7694 6.06274 17.4579 5.5527 16.6939L5.71454 16.566C5.70223 16.5392 5.67382 16.484 5.63237 16.4046C5.61427 16.4137 5.59617 16.4264 5.57886 16.444C5.5204 16.5033 5.52132 16.574 5.52145 16.5846L5.52146 16.5853C5.52161 16.6057 5.52497 16.6213 5.5262 16.6267C5.52782 16.6339 5.5295 16.6393 5.53041 16.6422C5.53223 16.6479 5.53376 16.6516 5.53389 16.6519C5.53408 16.6523 5.53406 16.6523 5.53376 16.6516C5.53338 16.6508 5.53257 16.649 5.53115 16.646L5.5214 16.626C5.50425 16.5915 5.47558 16.5363 5.4363 16.4613C5.41632 16.4231 5.39378 16.3802 5.36897 16.333C5.29719 16.1964 5.20639 16.0236 5.10355 15.8251C4.82669 15.2907 4.46017 14.5653 4.13048 13.8345C3.80228 13.107 3.50478 12.3616 3.37227 11.7909C3.30708 11.5101 3.27495 11.2446 3.3171 11.0381C3.33883 10.9317 3.38351 10.8249 3.46945 10.7435C3.55858 10.6591 3.67206 10.621 3.79326 10.6187L3.80124 10.6186L3.80124 10.6187C3.86855 10.6201 3.93493 10.6347 3.99658 10.6618C4.05824 10.6888 4.11396 10.7278 4.16057 10.7763C4.20718 10.8249 4.24376 10.8822 4.26823 10.9449C4.29269 11.0077 4.30456 11.0746 4.30316 11.1419L4.30316 11.142C4.2998 11.3 4.36562 11.5863 4.49868 11.9776C4.62871 12.3599 4.81377 12.8171 5.0282 13.304C5.45493 14.273 5.99285 15.3481 6.42982 16.1621C6.7387 16.5944 6.95157 16.677 7.06853 16.664C7.12728 16.6574 7.19577 16.625 7.27368 16.5426C7.35197 16.4598 7.43065 16.3354 7.50589 16.1682L8.86132 12.7326L8.86303 12.7283L8.86308 12.7283C9.0411 12.3061 9.32081 11.9168 9.63855 11.6316C9.95183 11.3505 10.3271 11.1491 10.6967 11.1538L10.6994 11.1538L10.6994 11.1538C11.7735 11.1823 12.394 12.044 12.6984 12.7414L12.7024 12.7505L12.7021 12.7506C12.9638 13.4421 13.604 15.1597 13.8487 16.0668C13.9558 16.3352 14.0666 16.4783 14.1621 16.5466C14.2476 16.6077 14.3336 16.6188 14.4385 16.5854C14.5541 16.5485 14.6924 16.456 14.8486 16.3013C15.0025 16.1487 15.1619 15.9476 15.3214 15.7129C15.9626 14.7695 16.5515 13.366 16.7708 12.7087L16.7738 12.6999L16.7775 12.6914C18.1212 9.63802 17.9172 6.25723 17.9076 6.11137C17.7467 4.77786 17.049 4.09371 16.3828 3.7347C15.7053 3.36969 15.0524 3.33808 15.0096 3.33651L14.9964 3.33603L14.9833 3.33381C14.7936 3.30151 14.5402 3.33502 14.2356 3.43114C13.9345 3.52613 13.6018 3.67629 13.2614 3.85738C12.704 4.15389 12.1392 4.52626 11.6795 4.85403C12.3564 5.10324 13.0824 5.19652 13.8032 5.12493C13.8689 5.11689 13.9356 5.12168 13.9995 5.13903C14.0645 5.15665 14.1253 5.18691 14.1786 5.22806C14.2319 5.26921 14.2765 5.32045 14.3099 5.37885C14.3434 5.43726 14.365 5.50168 14.3736 5.56845C14.3821 5.63521 14.3774 5.70301 14.3598 5.76795C14.3421 5.83291 14.3118 5.89375 14.2707 5.94699C14.2295 6.00024 14.1782 6.04485 14.1198 6.07828L14.0205 5.90469L14.1198 6.07828C14.0629 6.11085 14.0003 6.13218 13.9353 6.14114C12.6803 6.35983 11.3359 5.88368 10.313 5.35087C9.79702 5.08209 9.35365 4.79407 9.03187 4.56052C8.87103 4.44377 8.73928 4.33972 8.64319 4.25749C8.59532 4.21652 8.55478 4.17968 8.52335 4.1485C8.50577 4.13105 8.48136 4.10621 8.46066 4.07838C7.80456 3.45356 7.11905 3.36161 6.52168 3.50463C5.90716 3.65176 5.37728 4.05111 5.08052 4.41003C5.08049 4.41008 5.08045 4.41012 5.08042 4.41016L4.92627 4.28273C4.8735 4.34667 4.79749 4.38703 4.71496 4.39493C4.63243 4.40283 4.55015 4.37762 4.4862 4.32485C4.42226 4.27208 4.3819 4.19607 4.374 4.11354C4.3661 4.03101 4.39131 3.94872 4.44409 3.88478L18.9283 6.01707ZM18.9283 6.01707L18.9273 6.00876C18.7264 4.3243 17.8381 3.39753 16.9583 2.89642C16.1012 2.40827 15.2586 2.32638 15.0814 2.31412L18.9283 6.01707Z" fill="#333333" stroke="#333333" stroke-width="0.4"/>
<path d="M4.64484 9.03598L4.64486 9.03598V9.03403V8.04897H5.63007V8.04899L5.63202 8.04895C5.74002 8.04684 5.84289 8.00245 5.91853 7.92533C5.99416 7.8482 6.03653 7.74448 6.03652 7.63646C6.03652 7.52843 5.99415 7.42472 5.91851 7.34759C5.84287 7.27047 5.73999 7.22609 5.63199 7.22399L5.63199 7.22397H5.63004H4.64486V6.23877C4.64486 6.12937 4.6014 6.02445 4.52404 5.94709C4.44668 5.86973 4.34176 5.82627 4.23236 5.82627C4.12296 5.82627 4.01804 5.86973 3.94068 5.94709C3.86332 6.02445 3.81986 6.12937 3.81986 6.23877V7.22397H2.83496C2.72556 7.22397 2.62064 7.26743 2.54328 7.34479C2.46592 7.42215 2.42246 7.52707 2.42246 7.63647C2.42246 7.74587 2.46592 7.85079 2.54328 7.92815C2.62064 8.00551 2.72556 8.04897 2.83496 8.04897H3.81986V9.03402H3.81984L3.81988 9.03597C3.82198 9.14398 3.86637 9.24685 3.94349 9.32248C4.02062 9.39812 4.12433 9.44049 4.23236 9.44049C4.34038 9.44049 4.4441 9.39812 4.52123 9.32249C4.59835 9.24685 4.64274 9.14398 4.64484 9.03598Z" fill="#333333" stroke="#333333" stroke-width="0.2"/>
</svg>
