<svg width="20" height="20" viewBox="0 0 20 20" fill="none" xmlns="http://www.w3.org/2000/svg">
<path d="M17.1694 1.66533H2.82984C2.61857 1.6655 2.41598 1.74939 2.26644 1.89864C2.11696 2.04782 2.03267 2.25015 2.03203 2.46134V5.28096H17.9672L17.9672 2.46158L17.9672 2.46104M17.1694 1.66533L17.1695 1.46533C17.4337 1.46554 17.6871 1.57045 17.8741 1.75708C18.0611 1.94371 18.1665 2.19684 18.1672 2.46104H17.9672M17.1694 1.66533C17.1694 1.66533 17.1694 1.66533 17.1694 1.66533M17.1694 1.66533L17.1694 1.66533M17.9672 2.46104C17.9665 2.24996 17.8822 2.04775 17.7328 1.89864C17.5833 1.74941 17.3807 1.66552 17.1694 1.66533M17.9672 2.46104L17.1694 1.66533M17.1697 0.874707H17.1695L2.82969 0.874707L2.82952 0.874707C2.40882 0.875061 2.00542 1.04219 1.70773 1.33946C1.41005 1.63672 1.24235 2.03989 1.24141 2.46059V2.46104L1.24141 17.5392L1.24141 17.5394C1.24188 17.9604 1.40934 18.3641 1.70706 18.6618C2.00478 18.9595 2.40843 19.127 2.82946 19.1274H2.82969H17.1695H17.1698C17.5908 19.127 17.9944 18.9595 18.2922 18.6618C18.5899 18.3641 18.7573 17.9604 18.7578 17.5394V17.5392V2.46104L18.7578 2.46059C18.7569 2.03989 18.5892 1.63672 18.2915 1.33946C17.9938 1.04219 17.5904 0.875061 17.1697 0.874707ZM17.1695 18.5349V18.5356H16.9695V18.5349V18.3356H17.1693H17.1695V18.5349ZM2.82969 18.5356L2.82992 18.3356H2.82969V18.5356ZM17.9672 17.5385C17.9672 17.5387 17.9672 17.5389 17.9672 17.5391V17.5392H18.1672L17.9672 17.5385ZM17.9672 6.07314H18.1672V5.87314H17.9672V6.07314ZM2.03203 6.07314V5.87314H1.83203V6.07314H2.03203ZM2.03203 17.5392V17.5389C2.03203 17.5388 2.03203 17.5388 2.03203 17.5387L1.83203 17.5392H2.03203Z" fill="#333333" stroke="#333333" stroke-width="0.4"/>
<path d="M4.0293 4.7978H8.02109C8.09942 4.7978 8.17453 4.76669 8.22991 4.71131C8.28529 4.65593 8.31641 4.58081 8.31641 4.50249V2.98413C8.31641 2.90581 8.28529 2.8307 8.22991 2.77531C8.17453 2.71993 8.09942 2.68882 8.02109 2.68882H4.0293C3.95097 2.68882 3.87586 2.71993 3.82048 2.77531C3.7651 2.8307 3.73398 2.90581 3.73398 2.98413V4.50249C3.73398 4.58081 3.7651 4.65593 3.82048 4.71131C3.87586 4.76669 3.95097 4.7978 4.0293 4.7978ZM4.32461 3.27944H7.72578V4.20718H4.32461V3.27944Z" fill="#333333" stroke="#333333" stroke-width="0.2"/>
<path d="M11.0903 5.03013H11.0904C11.345 5.03013 11.5938 4.95464 11.8055 4.81321C12.0172 4.67178 12.1821 4.47076 12.2796 4.23557C12.377 4.00038 12.4025 3.74159 12.3528 3.49192C12.3031 3.24224 12.1806 3.0129 12.0006 2.83289C11.8205 2.65289 11.5912 2.5303 11.3415 2.48064C11.0919 2.43098 10.8331 2.45647 10.5979 2.55388C10.3627 2.6513 10.1617 2.81627 10.0202 3.02794C9.87881 3.2396 9.80332 3.48845 9.80332 3.74302L9.80332 3.74312C9.80366 4.08435 9.93936 4.41151 10.1806 4.6528C10.4219 4.89409 10.7491 5.02979 11.0903 5.03013ZM11.0904 3.04653C11.2282 3.04653 11.3628 3.08738 11.4774 3.16391C11.5919 3.24044 11.6812 3.34922 11.7339 3.47648C11.7866 3.60375 11.8004 3.74379 11.7735 3.8789C11.7467 4.014 11.6803 4.1381 11.5829 4.23551C11.4855 4.33291 11.3614 4.39925 11.2263 4.42612C11.0912 4.45299 10.9512 4.4392 10.8239 4.38649C10.6966 4.33377 10.5879 4.2445 10.5113 4.12996C10.4348 4.01543 10.3939 3.88077 10.3939 3.74302H10.2939L10.3939 3.74316C10.3942 3.55849 10.4677 3.38146 10.5983 3.25087C10.7289 3.12029 10.9059 3.0468 11.0906 3.04653L11.0904 2.94653V3.04653Z" fill="#333333" stroke="#333333" stroke-width="0.2"/>
<path d="M14.978 5.03013H14.9781C15.2327 5.03013 15.4815 4.95464 15.6932 4.81321C15.9049 4.67178 16.0698 4.47076 16.1673 4.23557C16.2647 4.00039 16.2902 3.74159 16.2405 3.49192C16.1908 3.24224 16.0683 3.0129 15.8882 2.83289C15.7082 2.65289 15.4789 2.5303 15.2292 2.48064C14.9796 2.43098 14.7208 2.45647 14.4856 2.55388C14.2504 2.6513 14.0494 2.81627 13.9079 3.02794C13.7665 3.2396 13.691 3.48845 13.691 3.74302L13.691 3.74312C13.6914 4.08435 13.8271 4.41151 14.0683 4.6528C14.3096 4.89409 14.6368 5.02979 14.978 5.03013ZM14.9781 3.04653C15.1159 3.04653 15.2505 3.08738 15.3651 3.16391C15.4796 3.24044 15.5689 3.34922 15.6216 3.47648C15.6743 3.60375 15.6881 3.74379 15.6612 3.8789C15.6344 4.014 15.568 4.1381 15.4706 4.23551C15.3732 4.33291 15.2491 4.39925 15.114 4.42612C14.9789 4.45299 14.8389 4.4392 14.7116 4.38649C14.5843 4.33377 14.4756 4.2445 14.399 4.12996C14.3225 4.01543 14.2816 3.88077 14.2816 3.74302H14.1816L14.2816 3.74312C14.2818 3.55843 14.3553 3.38135 14.4859 3.25076C14.6165 3.12016 14.7935 3.04671 14.9782 3.04653L14.9781 2.94653V3.04653Z" fill="#333333" stroke="#333333" stroke-width="0.2"/>
<path d="M10 7.8C7.6841 7.8 5.8 9.6834 5.8 11.9993C5.8 14.3151 7.68401 16.2 10 16.2C12.3159 16.2 14.2 14.3163 14.2 12.0007C14.2 9.68523 12.316 7.8 10 7.8ZM9.99983 15.5121C9.30533 15.512 8.62643 15.3061 8.04896 14.9204C7.47145 14.5346 7.02131 13.9863 6.75546 13.3448C6.48961 12.7032 6.41998 11.9973 6.55538 11.3162C6.69078 10.6351 7.02512 10.0095 7.51615 9.51833C8.00717 9.0272 8.63282 8.69266 9.314 8.55702C9.99518 8.42138 10.7013 8.49072 11.3431 8.75628C11.9848 9.02184 12.5334 9.47169 12.9195 10.049C13.3055 10.6262 13.5117 11.3049 13.512 11.9993C13.5115 12.9305 13.1414 13.8235 12.4829 14.4822C11.8244 15.1408 10.9313 15.5113 9.99983 15.5121Z" fill="#333333" stroke="#333333" stroke-width="0.4"/>
<path d="M14 11.9999C13 11.3332 10.7 10.3999 9.5 11.9999C8.3 13.5999 6.66667 12.3333 6 11.5" stroke="#333333"/>
</svg>
