<svg width="20" height="20" viewBox="0 0 20 20" fill="none" xmlns="http://www.w3.org/2000/svg">
<g clip-path="url(#clip0_1365_46390)">
<path d="M11.8358 12.9844L11.8357 12.9844C11.6909 12.992 11.5743 13.054 11.4972 13.1503C11.4224 13.2438 11.3919 13.3605 11.3975 13.4705C11.4032 13.5805 11.4457 13.6935 11.5298 13.7786C11.6156 13.8656 11.7366 13.9149 11.8794 13.9085H17.8118L17.8144 13.9086C17.8176 13.9088 17.823 13.9091 17.8303 13.9097C17.8448 13.911 17.8664 13.9133 17.8924 13.9178C17.9453 13.927 18.012 13.9443 18.0747 13.9756L18.0748 13.9757C18.1365 14.0065 18.1873 14.047 18.2238 14.1046C18.2602 14.162 18.2894 14.2477 18.2894 14.3805C18.2894 14.5146 18.2601 14.6009 18.2237 14.6587C18.1872 14.7164 18.1364 14.7569 18.0748 14.7877L18.0748 14.7877C18.012 14.8191 17.9453 14.8363 17.8924 14.8455C17.8664 14.85 17.8448 14.8524 17.8303 14.8536C17.823 14.8543 17.8176 14.8546 17.8143 14.8547L17.8118 14.8548H16.5637H16.4137V15.0048V15.6292V15.7792H16.5637H17.8135L17.814 15.7792L17.8179 15.7792L17.8306 15.779C17.8413 15.7788 17.8561 15.7783 17.8746 15.7772C17.9116 15.7749 17.9634 15.7702 18.0255 15.7602C18.149 15.7404 18.3162 15.6993 18.4879 15.6136L18.4879 15.6136C18.8373 15.4392 19.2123 15.0734 19.2123 14.3805C19.2123 13.6896 18.8371 13.3241 18.4879 13.1497C18.3162 13.064 18.149 13.023 18.0255 13.0031C17.9634 12.9932 17.9116 12.9884 17.8746 12.9862C17.8561 12.9851 17.8413 12.9846 17.8306 12.9843L17.8179 12.9842L17.814 12.9842L17.8135 12.9842H11.8793C11.8647 12.9836 11.8502 12.9837 11.8358 12.9844Z" fill="#1C48A0" stroke="#1C48A0" stroke-width="0.3"/>
<path d="M16.5616 16.7278L16.5642 16.7277C16.5674 16.7276 16.5729 16.7272 16.5801 16.7266C16.5946 16.7254 16.6162 16.723 16.6422 16.7185C16.6951 16.7093 16.7618 16.692 16.8246 16.6607C16.8246 16.6607 16.8246 16.6607 16.8246 16.6607L16.5616 16.7278ZM16.5616 16.7278H15.3136H15.1636V16.8778V17.5021V17.6521H15.3136H16.5634L16.5639 17.6521L16.5678 17.6521L16.5806 17.652C16.5912 17.6518 16.6062 17.6513 16.6248 17.6502C16.662 17.6479 16.7141 17.6432 16.7764 17.6332C16.9004 17.6134 17.0683 17.5724 17.2401 17.4866L17.2401 17.4866C17.5895 17.3122 17.9645 16.9459 17.9645 16.2535C17.9645 15.5621 17.5892 15.197 17.2401 15.0227C17.0686 14.9371 16.9009 14.8955 16.7771 14.8751C16.7149 14.8648 16.6629 14.8598 16.6258 14.8573C16.6072 14.856 16.5923 14.8554 16.5816 14.8551L16.5689 14.8549L16.565 14.8549L16.5638 14.8549L16.5637 14.8549L16.5633 14.8549L16.5631 14.8549L16.563 14.8549L11.8761 14.8549C11.7313 14.8549 11.6116 14.9106 11.5296 15.0027C11.45 15.0921 11.4135 15.207 11.4135 15.317C11.4135 15.4271 11.45 15.542 11.5296 15.6314C11.6116 15.7235 11.7313 15.7792 11.8761 15.7792H16.5604L16.5622 15.7793C16.5656 15.7795 16.571 15.7799 16.5784 15.7806C16.593 15.782 16.6147 15.7847 16.6409 15.7894L16.5616 16.7278Z" fill="#1C48A0" stroke="#1C48A0" stroke-width="0.3"/>
<path d="M7.49981 19.525L7.4996 19.525L7.49803 19.525L7.49218 19.525L7.47164 19.5246C7.45416 19.5241 7.42922 19.5232 7.39786 19.5211C7.3352 19.517 7.24663 19.5086 7.14053 19.4913C6.92898 19.4568 6.64414 19.3865 6.35522 19.2422C5.77006 18.9501 5.1625 18.3459 5.1625 17.191V11.5724C5.1625 10.9803 5.3397 10.5321 5.60532 10.1965C5.86911 9.86315 6.21332 9.64914 6.53657 9.51081C6.86041 9.37222 7.17856 9.30447 7.4146 9.27115C7.53296 9.25444 7.63157 9.24627 7.70112 9.24227C7.73592 9.24027 7.76351 9.23931 7.78273 9.23885L7.80516 9.23847L7.81141 9.23844L7.81325 9.23844L7.81335 9.23844H7.81361H11.8756L11.8762 9.23843L11.8801 9.23843L11.8929 9.23859C11.9035 9.23881 11.9185 9.23932 11.9371 9.24045C11.9743 9.24272 12.0264 9.24748 12.0887 9.25746C12.2127 9.27732 12.3806 9.31841 12.5524 9.40418C12.9018 9.57861 13.277 9.94496 13.277 10.6374C13.277 10.8343 13.2461 10.9895 13.2064 11.1115H17.1884L17.1889 11.1115L17.1928 11.1115L17.2055 11.1116C17.2161 11.1118 17.231 11.1123 17.2495 11.1134C17.2865 11.1156 17.3384 11.1203 17.4004 11.1302C17.524 11.15 17.6912 11.1909 17.863 11.2767L17.7968 11.4093L17.863 11.2767C18.2118 11.4508 18.59 11.8169 18.59 12.5098C18.59 13.2018 18.2116 13.5666 17.863 13.7406L7.49981 19.525ZM7.49981 19.525L15.3141 19.525V19.375C15.3141 19.375 15.6137 19.3798 15.9226 19.2257C16.2316 19.0714 16.5642 18.7508 16.5642 18.1267C16.5642 17.5025 16.2316 17.1819 15.9226 17.0277C15.6137 16.8734 15.3141 16.8777 15.3141 16.8777M7.49981 19.525L15.3117 19.525L15.3118 19.525L15.312 19.525L15.3125 19.525L15.3138 19.525L15.3176 19.525L15.3304 19.5249C15.3411 19.5247 15.356 19.5242 15.3746 19.5231C15.4117 19.5209 15.4638 19.5162 15.5261 19.5063C15.65 19.4866 15.8178 19.4456 15.9896 19.3599L15.9896 19.3599C16.3391 19.1854 16.7142 18.8184 16.7142 18.1267C16.7142 17.4349 16.3391 17.0679 15.9896 16.8935C15.8179 16.8077 15.6502 16.7666 15.5262 16.7468C15.464 16.7368 15.412 16.732 15.3748 16.7298C15.3563 16.7286 15.3413 16.7281 15.3307 16.7279L15.3179 16.7277L15.314 16.7277L15.3134 16.7277M15.3141 16.8777V16.7277H15.3134M15.3141 16.8777H11.8762C11.4594 16.8777 11.4594 17.5019 11.8762 17.5019H15.3141L15.3134 16.7277M15.3141 16.8777L15.312 16.7278L15.3121 16.7278L15.3123 16.7278L15.3128 16.7278L15.3134 16.7277M15.5743 17.7215C15.6362 17.7524 15.687 17.7928 15.7235 17.8502C15.7599 17.9076 15.7891 17.9933 15.7891 18.1267C15.7891 18.2601 15.7599 18.3464 15.7233 18.4043C15.6867 18.4624 15.6357 18.503 15.5742 18.5337C15.5114 18.5651 15.4448 18.5824 15.392 18.5915C15.3661 18.596 15.3446 18.5984 15.3301 18.5996C15.3228 18.6003 15.3174 18.6006 15.3142 18.6007L15.3117 18.6008H7.50075L7.49865 18.6008L7.48764 18.6004C7.47753 18.6 7.46206 18.5992 7.44201 18.5976C7.40185 18.5945 7.34365 18.5884 7.27367 18.5765C7.13293 18.5526 6.94876 18.506 6.76881 18.4161L6.7688 18.4161C6.58882 18.3262 6.42114 18.1999 6.29764 18.0113C6.17451 17.8232 6.08817 17.5622 6.08817 17.191V11.5724C6.08817 11.219 6.1857 10.9655 6.32997 10.778C6.47585 10.5884 6.67759 10.4559 6.9012 10.3602C7.12424 10.2647 7.35342 10.2149 7.52864 10.1892C7.61581 10.1764 7.68855 10.1697 7.73904 10.1663C7.76426 10.1645 7.78386 10.1636 7.79686 10.1631L7.81125 10.1627L7.81446 10.1626H11.8739L11.8764 10.1627C11.8797 10.1629 11.8851 10.1632 11.8924 10.1638C11.9069 10.165 11.9285 10.1674 11.9545 10.1719L15.5743 17.7215ZM12.137 10.2297C12.1984 10.2603 12.2491 10.3009 12.2856 10.359C12.3221 10.417 12.3513 10.5035 12.3513 10.6374C12.3513 10.7705 12.3222 10.8561 12.2859 10.9134C12.2496 10.9708 12.1989 11.0111 12.137 11.042C12.0737 11.0736 12.0064 11.0915 11.9531 11.1012C11.9269 11.1061 11.9052 11.1087 11.8905 11.1101C11.8832 11.1108 11.8777 11.1112 11.8744 11.1114L11.8726 11.1115H8.75033V11.1109L8.73707 11.1121C8.5913 11.125 8.47251 11.1831 8.39194 11.276C8.31248 11.3677 8.27967 11.4824 8.28529 11.592C8.2965 11.8105 8.46415 12.0273 8.74588 12.0356L8.74587 12.0357H8.75033H17.1869L17.1894 12.0358C17.1927 12.036 17.1981 12.0363 17.2054 12.0369C17.22 12.0381 17.2415 12.0405 17.2676 12.045C17.3205 12.0542 17.3873 12.0714 17.45 12.1028L17.45 12.1028C17.5116 12.1336 17.5625 12.1741 17.5991 12.232C17.6356 12.2898 17.6649 12.3761 17.6649 12.5099C17.6649 12.6429 17.6357 12.7286 17.5992 12.7861C17.5627 12.8437 17.5118 12.8842 17.45 12.9151C17.3869 12.9466 17.3197 12.9643 17.2665 12.974C17.2403 12.9787 17.2187 12.9813 17.204 12.9826C17.1967 12.9833 17.1912 12.9837 17.1879 12.9839L17.1849 12.9841L17.1848 12.9841L17.1847 12.9841L17.1846 12.9841L17.1844 12.9841L17.1843 12.9841L17.0392 12.9883V13.134V13.7588V13.9078L17.1883 13.9088L17.1892 13.7588L17.1884 13.9088L17.1885 13.9088L17.1887 13.9088L17.1891 13.9088H17.1904L17.1942 13.9088L17.2069 13.9085C17.2175 13.9082 17.2323 13.9076 17.2508 13.9063C17.2877 13.9038 17.3394 13.8987 17.4014 13.8884C17.5247 13.8679 17.6916 13.8262 17.863 13.7406L12.137 10.2297Z" fill="#1C48A0" stroke="#1C48A0" stroke-width="0.3"/>
<path d="M5.79121 6.79642C5.25129 6.80658 5.16346 7.57612 5.68781 7.70675L10.153 8.89974L10.2977 8.9384L10.3365 8.79373L10.498 8.19245L10.537 8.04747L10.392 8.00864L5.92625 6.81321C5.88234 6.801 5.83683 6.79533 5.79121 6.79642ZM5.79121 6.79642C5.79103 6.79642 5.79085 6.79643 5.79067 6.79643L5.79442 6.94638L5.79173 6.79641C5.79156 6.79641 5.79139 6.79641 5.79121 6.79642Z" fill="#1C48A0" stroke="#1C48A0" stroke-width="0.3"/>
<path d="M2.3414 6.33164L2.3414 6.33166L0.885645 11.7593C0.588264 12.8675 1.01569 13.6145 1.50554 14.0483C1.74721 14.2623 2.00405 14.4039 2.19939 14.492C2.29736 14.5362 2.3807 14.5673 2.44013 14.5875C2.46987 14.5976 2.4937 14.605 2.51047 14.61L2.5302 14.6157L2.53583 14.6172L2.53754 14.6177L2.53755 14.6177L2.53813 14.6178L2.53835 14.6179L2.53844 14.6179L5.50442 15.4102L5.64914 15.4488L5.688 15.3042L5.84949 14.7029L5.88842 14.5579L5.74344 14.5191L2.77854 13.7248L2.77848 13.7248L2.7784 13.7248L2.77835 13.7248L2.77825 13.7248L2.77791 13.7247L2.77607 13.7241L2.76555 13.7209C2.75592 13.7178 2.74122 13.713 2.7223 13.7063C2.6844 13.6928 2.62988 13.6718 2.56549 13.6421C2.43597 13.5823 2.27033 13.4894 2.11969 13.356C1.96839 13.2221 1.839 13.059 1.76859 12.8468C1.69839 12.6351 1.68242 12.3613 1.77984 11.9983L1.77985 11.9982L3.2356 6.57065C3.2356 6.57065 3.2356 6.57064 3.2356 6.57064C3.33286 6.20819 3.50605 5.98676 3.69893 5.84696C3.89465 5.70512 4.12127 5.63973 4.33483 5.60901C4.57502 5.57445 4.80922 5.58555 4.98503 5.60598C5.0725 5.61614 5.14444 5.62848 5.19407 5.63817C5.21886 5.64301 5.23802 5.64718 5.25068 5.65006L5.26469 5.65334L5.2678 5.65411L5.26783 5.65411L5.26833 5.65424L5.2684 5.65426L9.18824 6.70357L9.19043 6.70427C9.19358 6.70531 9.19878 6.70706 9.20566 6.70957C9.21948 6.71463 9.23979 6.72263 9.26386 6.73387C9.31282 6.75673 9.37303 6.79098 9.42567 6.83759C9.47795 6.88388 9.51646 6.9355 9.53667 6.9998C9.55686 7.06406 9.56302 7.1545 9.52789 7.28539C9.493 7.41543 9.44258 7.49074 9.39287 7.53655C9.34315 7.58236 9.284 7.60801 9.21593 7.62192C9.14659 7.63609 9.07686 7.63598 9.02273 7.63163C8.99612 7.62949 8.97439 7.62643 8.95979 7.624C8.95252 7.62279 8.94709 7.62176 8.94381 7.6211L8.94074 7.62047L8.94068 7.62045L8.94063 7.62044L8.94054 7.62042L8.94052 7.62041L8.94036 7.62038L8.94019 7.62034L8.79956 7.58769L8.76196 7.72767L8.60046 8.32895L8.56229 8.47106L8.70365 8.51195L8.74533 8.36786L8.70373 8.51197L8.70381 8.512L8.704 8.51205L8.70447 8.51218L8.70571 8.51254L8.70945 8.51356L8.72181 8.51678C8.73215 8.51937 8.74666 8.5228 8.76486 8.52659C8.80122 8.53416 8.8526 8.54322 8.91521 8.54986C9.03983 8.56309 9.21228 8.56712 9.40057 8.52864C9.5877 8.49041 9.79785 8.41111 9.98502 8.25205C10.1734 8.09195 10.3303 7.85795 10.4198 7.5244C10.5965 6.86594 10.3327 6.40696 10.0398 6.14763C9.89609 6.02036 9.74465 5.93739 9.63006 5.88625C9.57249 5.86055 9.52343 5.84255 9.48814 5.8308C9.47047 5.82492 9.45618 5.82058 9.44593 5.81762L9.43363 5.81418L9.43009 5.81325L9.42989 5.81319L9.42864 5.81287L9.42818 5.81275L5.50697 4.76306L5.50688 4.76304L5.50668 4.76298L5.5061 4.76283L5.50578 4.76274L5.50433 4.76235L5.49829 4.76075L5.47659 4.75526C5.45796 4.7507 5.43115 4.74444 5.39712 4.73732C5.32911 4.72308 5.23201 4.70533 5.11363 4.69071C4.87755 4.66158 4.55323 4.64448 4.20444 4.69466C3.4487 4.80339 2.635 5.2375 2.3414 6.33164Z" fill="#1C48A0" stroke="#1C48A0" stroke-width="0.3"/>
<path d="M11.5161 3.62197C10.7471 3.62197 10.1156 4.24916 10.1156 5.0183C10.1156 5.78707 10.7467 6.41692 11.5161 6.41692C12.2854 6.41692 12.9165 5.78707 12.9165 5.0183C12.9165 4.24916 12.285 3.62197 11.5161 3.62197ZM11.5161 4.54629C11.7831 4.54629 11.9913 4.75366 11.9913 5.0183C11.9913 5.28366 11.7823 5.49261 11.5161 5.49261C11.2498 5.49261 11.0408 5.28366 11.0408 5.0183C11.0408 4.75366 11.2491 4.54629 11.5161 4.54629Z" fill="#1C48A0" stroke="#1C48A0" stroke-width="0.3"/>
<path d="M13.128 8.2935C13.0155 8.44018 12.8263 8.5057 12.6471 8.46024L13.128 8.2935ZM13.128 8.2935C13.3909 7.95239 13.7958 7.75371 14.2275 7.75297C14.9996 7.753 15.6183 8.37103 15.6185 9.14145C15.6182 9.18377 15.6162 9.22678 15.6122 9.26792L15.6122 9.26797C15.5957 9.4381 15.6746 9.60341 15.8172 9.69777L15.8177 9.69809C16.4728 10.1279 16.8598 10.8077 16.8689 11.5787L16.8707 11.7279L17.0198 11.7269L13.128 8.2935ZM10.9995 8.56428C11.4812 8.34541 12.0614 8.31228 12.647 8.46021L17.4942 11.573C17.5788 11.572 17.6414 11.571 17.644 11.5701C17.6441 11.5701 17.6442 11.57 17.6441 11.57L17.7941 11.5706C17.7941 11.5695 17.7941 11.5684 17.7941 11.5673C17.7974 10.4229 17.141 9.51986 16.5425 9.0792C16.5199 8.31835 16.1744 7.74965 15.7229 7.37519C15.2613 6.99236 14.6851 6.80913 14.2229 6.82871C13.4807 6.84123 12.9559 7.15186 12.5974 7.5049C11.9645 7.3935 11.2531 7.4344 10.6147 7.72442C9.90841 8.04534 9.32106 8.65937 9.00149 9.54478L8.95036 9.68645L9.09223 9.737L9.68053 9.94664L9.82125 9.99679L9.87197 9.85627C10.1155 9.18141 10.5202 8.78204 10.9995 8.56428Z" fill="#1C48A0" stroke="#1C48A0" stroke-width="0.3"/>
<path d="M17.2481 2.99771C16.4784 2.99771 15.85 3.62791 15.85 4.39633C15.85 5.16511 16.4788 5.79265 17.2481 5.79265C18.0171 5.79265 18.6485 5.16547 18.6485 4.39633C18.6485 3.62755 18.0175 2.99771 17.2481 2.99771ZM17.2481 3.92202C17.5144 3.92202 17.7233 4.13097 17.7233 4.39633C17.7233 4.66097 17.5151 4.86834 17.2481 4.86834C16.9818 4.86834 16.7752 4.6617 16.7752 4.39633C16.7752 4.13024 16.9826 3.92202 17.2481 3.92202Z" fill="#1C48A0" stroke="#1C48A0" stroke-width="0.3"/>
<path d="M14.0896 0.475C13.1338 0.475 12.35 1.25446 12.35 2.20997C12.35 3.16521 13.1335 3.94725 14.0896 3.94725C15.0459 3.94725 15.8268 3.16492 15.8268 2.20997C15.8268 1.25474 15.0456 0.475 14.0896 0.475ZM14.0896 1.39931C14.5426 1.39931 14.9016 1.75815 14.9016 2.20997C14.9016 2.66226 14.5421 3.02294 14.0896 3.02294C13.6366 3.02294 13.2752 2.66179 13.2752 2.20997C13.2752 1.75862 13.6361 1.39931 14.0896 1.39931Z" fill="#1C48A0" stroke="#1C48A0" stroke-width="0.3"/>
</g>
<defs>
<clipPath id="clip0_1365_46390">
<rect width="20" height="20" fill="white"/>
</clipPath>
</defs>
</svg>
