<svg width="14" height="14" viewBox="0 0 14 14" fill="none" xmlns="http://www.w3.org/2000/svg">
<path d="M3.98217 0.770996C1.98382 0.770996 0.363281 2.39153 0.363281 4.38988V10.1801C0.363281 12.1784 1.98382 13.799 3.98217 13.799H9.77238C11.7707 13.799 13.3913 12.1784 13.3913 10.1801V4.38988C13.3913 2.39153 11.7707 0.770996 9.77238 0.770996H3.98217ZM11.2199 2.21855C11.6195 2.21855 11.9437 2.5428 11.9437 2.94233C11.9437 3.34185 11.6195 3.6661 11.2199 3.6661C10.8204 3.6661 10.4962 3.34185 10.4962 2.94233C10.4962 2.5428 10.8204 2.21855 11.2199 2.21855ZM6.87727 3.6661C8.87562 3.6661 10.4962 5.28664 10.4962 7.28499C10.4962 9.28334 8.87562 10.9039 6.87727 10.9039C4.87893 10.9039 3.25839 9.28334 3.25839 7.28499C3.25839 5.28664 4.87893 3.6661 6.87727 3.6661ZM6.87727 5.11366C6.3014 5.11366 5.74911 5.34242 5.34191 5.74963C4.93471 6.15683 4.70594 6.70912 4.70594 7.28499C4.70594 7.86086 4.93471 8.41315 5.34191 8.82035C5.74911 9.22756 6.3014 9.45632 6.87727 9.45632C7.45315 9.45632 8.00543 9.22756 8.41264 8.82035C8.81984 8.41315 9.0486 7.86086 9.0486 7.28499C9.0486 6.70912 8.81984 6.15683 8.41264 5.74963C8.00543 5.34242 7.45315 5.11366 6.87727 5.11366Z" fill="white"/>
</svg>
