<svg width="14" height="14" viewBox="0 0 14 14" fill="none" xmlns="http://www.w3.org/2000/svg">
<g clip-path="url(#clip0_874_30163)">
<path fill-rule="evenodd" clip-rule="evenodd" d="M6.80069 0.0240154C6.67781 0.061613 6.50387 0.242328 6.46874 0.368929C6.44916 0.439422 6.4397 1.44162 6.43962 3.46009L6.43945 6.44693L3.39546 6.45423L0.351449 6.46153L0.240625 6.53489C0.0693438 6.64823 0 6.78134 0 6.99673C0 7.14594 0.0124688 7.1953 0.0733633 7.28731C0.113695 7.34826 0.193676 7.42736 0.251098 7.46305L0.355469 7.52793L3.397 7.53523L6.43852 7.54253L6.44582 10.5841L6.45312 13.6256L6.51801 13.73C6.5537 13.7874 6.6328 13.8674 6.69375 13.9077C6.78609 13.9688 6.83495 13.9811 6.98633 13.9811C7.1377 13.9811 7.18657 13.9688 7.27891 13.9077C7.33986 13.8674 7.41896 13.7874 7.45464 13.73L7.51953 13.6256L7.52683 10.5841L7.53413 7.54253L10.5757 7.53523L13.6172 7.52793L13.7216 7.46305C13.779 7.42736 13.859 7.34826 13.8993 7.28731C13.9604 7.19497 13.9727 7.14611 13.9727 6.99473C13.9727 6.84336 13.9604 6.79449 13.8993 6.70215C13.859 6.6412 13.779 6.5621 13.7216 6.52641L13.6172 6.46153L10.5757 6.45423L7.53413 6.44693L7.52683 3.4054L7.51953 0.363871L7.45464 0.2595C7.32569 0.05207 7.04238 -0.0499495 6.80069 0.0240154Z" fill="white"/>
</g>
<defs>
<clipPath id="clip0_874_30163">
<rect width="14" height="14" fill="white"/>
</clipPath>
</defs>
</svg>
