<svg width="8" height="14" viewBox="0 0 8 14" fill="none" xmlns="http://www.w3.org/2000/svg">
<path d="M4.34926 7.85612V13.299H3.04637V7.85612V7.35612H2.54637H1.12109V6.04018H2.54637H3.04637V5.54018V3.83239C3.04637 2.93939 3.30719 2.3107 3.70017 1.90731C4.09238 1.50472 4.67004 1.27108 5.41407 1.271C5.4142 1.271 5.41433 1.271 5.41446 1.271L6.63506 1.27301L6.63499 2.43378L5.95424 2.43409C5.95417 2.43409 5.95409 2.43409 5.95401 2.43409C5.41916 2.43413 4.96199 2.56656 4.66616 2.93155C4.39025 3.27197 4.34926 3.70732 4.34926 4.0616V5.54018V6.04018H4.84926H6.55697L6.55652 7.35612H4.84926H4.34926V7.85612Z" fill="#333333" stroke="#ffffff"/>
</svg>
