<svg width="19" height="19" viewBox="0 0 19 19" fill="none" xmlns="http://www.w3.org/2000/svg">
<g clip-path="url(#clip0_1556_60499)">
<path d="M18.1459 0.855038L18.1459 0.854973C17.8059 0.515009 17.2546 0.515009 16.9146 0.854973L16.9146 0.854995L1.85583 15.9138L1.5469 16.2227L1.88182 16.5032C2.05024 16.6443 2.11276 16.6905 2.15254 16.7177C2.16293 16.7279 2.18141 16.7463 2.21792 16.7828L2.21799 16.7829C2.25442 16.8193 2.27283 16.8378 2.28297 16.8481C2.31024 16.888 2.35645 16.9506 2.49754 17.1191L2.77808 17.454L3.08702 17.1451L18.1459 2.08619L18.1459 2.08614C18.4858 1.74617 18.4858 1.19501 18.1459 0.855038Z" fill="white" stroke="white" stroke-width="0.8"/>
<path d="M4.89493 1.42657V1.42668L4.89493 1.42668L4.89493 1.42742L4.89493 1.43056L4.89493 1.44498L4.89492 1.51853L4.89502 1.94131L4.89516 2.34118H5.29502H16.6597V13.7059V14.1059H17.0597H17.062H17.0643H17.0666H17.0689H17.0712H17.0734H17.0756H17.0779H17.0801H17.0823H17.0845H17.0866H17.0888H17.091H17.0931H17.0952H17.0973H17.0994H17.1015H17.1036H17.1057H17.1077H17.1098H17.1118H17.1138H17.1159H17.1179H17.1198H17.1218H17.1238H17.1257H17.1277H17.1296H17.1315H17.1335H17.1354H17.1372H17.1391H17.141H17.1428H17.1447H17.1465H17.1483H17.1502H17.152H17.1538H17.1555H17.1573H17.1591H17.1608H17.1626H17.1643H17.166H17.1677H17.1694H17.1711H17.1728H17.1745H17.1761H17.1778H17.1794H17.181H17.1826H17.1843H17.1859H17.1874H17.189H17.1906H17.1922H17.1937H17.1952H17.1968H17.1983H17.1998H17.2013H17.2028H17.2043H17.2058H17.2072H17.2087H17.2102H17.2116H17.213H17.2144H17.2159H17.2173H17.2187H17.22H17.2214H17.2228H17.2241H17.2255H17.2268H17.2282H17.2295H17.2308H17.2321H17.2334H17.2347H17.236H17.2373H17.2386H17.2398H17.2411H17.2423H17.2435H17.2448H17.246H17.2472H17.2484H17.2496H17.2508H17.252H17.2532H17.2543H17.2555H17.2566H17.2578H17.2589H17.26H17.2612H17.2623H17.2634H17.2645H17.2656H17.2666H17.2677H17.2688H17.2699H17.2709H17.272H17.273H17.274H17.2751H17.2761H17.2771H17.2781H17.2791H17.2801H17.2811H17.2821H17.2831H17.284H17.285H17.286H17.2869H17.2879H17.2888H17.2897H17.2906H17.2916H17.2925H17.2934H17.2943H17.2952H17.2961H17.297H17.2978H17.2987H17.2996H17.3004H17.3013H17.3021H17.303H17.3038H17.3047H17.3055H17.3063H17.3071H17.3079H17.3087H17.3096H17.3103H17.3111H17.3119H17.3127H17.3135H17.3143H17.315H17.3158H17.3165H17.3173H17.318H17.3188H17.3195H17.3203H17.321H17.3217H17.3224H17.3231H17.3239H17.3246H17.3253H17.326H17.3267H17.3274H17.328H17.3287H17.3294H17.3301H17.3307H17.3314H17.3321H17.3327H17.3334H17.334H17.3347H17.3353H17.336H17.3366H17.3372H17.3379H17.3385H17.3391H17.3397H17.3403H17.341H17.3416H17.3422H17.3428H17.3434H17.344H17.3446H17.3452H17.3457H17.3463H17.3469H17.3475H17.3481H17.3486H17.3492H17.3498H17.3504H17.3509H17.3515H17.352H17.3526H17.3532H17.3537H17.3543H17.3548H17.3553H17.3559H17.3564H17.357H17.3575H17.358H17.3586H17.3591H17.3596H17.3602H17.3607H17.3612H17.3617H17.3623H17.3628H17.3633H17.3638H17.3643H17.3648H17.3653H17.3659H17.3664H17.3669H17.3674H17.3679H17.3684H17.3689H17.3694H17.3699H17.3704H17.3709H17.3714H17.3719H17.3724H17.3729H17.3734H17.3739H17.3744H17.3749H17.3753H17.3758H17.3763H17.3768H17.3773H17.3778H17.3783H17.3788H17.3793H17.3798H17.3803H17.3807H17.3812H17.3817H17.3822H17.3827H17.3832H17.3837H17.3842H17.3847H17.3852H17.3857H17.3861H17.3866H17.3871H17.3876H17.3881H17.3886H17.3891H17.3896H17.3901H17.3906H17.3911H17.3916H17.3921H17.3926H17.3931H17.3936H17.3941H17.3946H17.3951H17.3956H17.3961H17.3967H17.3972H17.3977H17.3982H17.3987H17.3992H17.3998H17.4003H17.4008H17.4013H17.4018H17.4024H17.4029H17.4034H17.404H17.4045H17.405H17.4056H17.4061H17.4067H17.4072H17.4078H17.4083H17.4089H17.4094H17.41H17.4105H17.4111H17.4117H17.4122H17.4128H17.4134H17.414H17.4145H17.4151H17.4157H17.4163H17.4169H17.4175H17.4181H17.4187H17.4193H17.4199H17.4205H17.4211H17.4217H17.4223H17.4229H17.4236H17.4242H17.4248H17.4255H17.4261H17.4267H17.4274H17.428H17.4287H17.4293H17.43H17.4307H17.4313H17.432H17.4327H17.4334H17.434H17.4347H17.4354H17.4361H17.4368H17.4375H17.4382H17.439H17.4397H17.4404H17.4411H17.4419H17.4426H17.4433H17.4441H17.4448H17.4456H17.4463H17.4471H17.4479H17.4486H17.4494H17.4502H17.451H17.4518H17.4526H17.4534H17.4542H17.455H17.4558H17.4567H17.4575H17.4583H17.4592H17.46H17.4609H17.4617H17.4626H17.4635H17.4643H17.4652H17.4661H17.467H17.4679H17.4688H17.4697H17.4706H17.4716H17.4725H17.4734H17.4744H17.4753H17.4763H17.4772H17.4782H17.4792H17.4801H17.4811H17.4821H17.4831H17.4841H17.4851H17.4862H17.4872H17.4882H17.4892H17.4903H17.4913H17.4924H17.4935H17.4945H17.4956H17.4967H17.4978H17.4989H17.5H17.5011H17.5023H17.5034H17.5045H17.5057H17.5068H17.508H17.5092H17.5103H17.5115H17.5127H17.5139H17.5151H17.5163H17.5176H17.5188H17.52H17.5213H17.5225H17.5238H17.5251H17.5264H17.5277H17.5289H17.5303H17.5316H17.5329H17.5342H17.5356H17.5369H17.5383H17.5396H17.541H17.5424H17.5438H17.5452H17.5466H17.548H17.5494H17.5509H17.5523H17.5538H17.5552H17.5567H17.5582H17.5597H17.5612H17.5627H17.5642H17.5657H17.5672H17.5687H17.5702H17.5717H17.5732H17.5747H17.5761H17.5776H17.5791H17.5805H17.582H17.5834H17.5848H17.5862H17.5876H17.5891H17.5905H17.5919H17.5932H17.5946H17.596H17.5974H17.5987H17.6001H17.6014H17.6028H17.6041H17.6054H17.6068H17.6081H17.6094H17.6107H17.612H17.6133H17.6145H17.6158H17.6171H17.6184H17.6196H17.6209H17.6221H17.6234H17.6246H17.6258H17.6271H17.6283H17.6295H17.6307H17.6319H17.6331H17.6343H17.6354H17.6366H17.6378H17.639H17.6401H17.6413H17.6424H17.6436H17.6447H17.6458H17.647H17.6481H17.6492H17.6503H17.6514H17.6525H17.6536H17.6547H17.6558H17.6568H17.6579H17.659H17.66H17.6611H17.6621H17.6632H17.6642H17.6653H17.6663H17.6673H17.6683H17.6694H17.6704H17.6714H17.6724H17.6734H17.6744H17.6753H17.6763H17.6773H17.6783H17.6792H17.6802H17.6812H17.6821H17.6831H17.684H17.6849H17.6859H17.6868H17.6877H17.6887H17.6896H17.6905H17.6914H17.6923H17.6932H17.6941H17.695H17.6959H17.6968H17.6976H17.6985H17.6994H17.7003H17.7011H17.702H17.7028H17.7037H17.7045H17.7054H17.7062H17.707H17.7079H17.7087H17.7095H17.7103H17.7112H17.712H17.7128H17.7136H17.7144H17.7152H17.716H17.7168H17.7176H17.7183H17.7191H17.7199H17.7207H17.7214H17.7222H17.723H17.7237H17.7245H17.7252H17.726H17.7267H17.7275H17.7282H17.729H17.7297H17.7304H17.7311H17.7319H17.7326H17.7333H17.734H17.7347H17.7355H17.7362H17.7369H17.7376H17.7383H17.739H17.7397H17.7403H17.741H17.7417H17.7424H17.7431H17.7438H17.7444H17.7451H17.7458H17.7465H17.7471H17.7478H17.7484H17.7491H17.7498H17.7504H17.7511H17.7517H17.7524H17.753H17.7537H17.7543H17.7549H17.7556H17.7562H17.7568H17.7575H17.7581H17.7587H17.7593H17.76H17.7606H17.7612H17.7618H17.7624H17.7631H17.7637H17.7643H17.7649H17.7655H17.7661H17.7667H17.7673H17.7679H17.7685H17.7691H17.7697H17.7703H17.7709H17.7715H17.7721H17.7727H17.7733H17.7738H17.7744H17.775H17.7756H17.7762H17.7768H17.7773H17.7779H17.7785H17.7791H17.7796H17.7802H17.7808H17.7814H17.7819H17.7825H17.7831H17.7837H17.7842H17.7848H17.7854H17.7859H17.7865H17.7871H17.7876H17.7882H17.7887H17.7893H17.7899H17.7904H17.791H17.7916H17.7921H17.7927H17.7932H17.7938H17.7944H17.7949H17.7955H17.796H17.7966H17.7972H17.7977H17.7983H17.7988H17.7994H17.7999H17.8005H17.8011H17.8016H17.8022H17.8027H17.8033H17.8039H17.8044H17.805H17.8055H17.8061H17.8066H17.8072H17.8078H17.8083H17.8089H17.8095H17.81H17.8106H17.8111H17.8117H17.8123H17.8128H17.8134H17.814H17.8145H17.8151H17.8157H17.8162H17.8168H17.8174H17.8179H17.8185H17.8191H17.8197H17.8202H17.8208H17.8214H17.822H17.8225H17.8231H17.8237H17.8243H17.8249H17.8255H17.826H17.8266H17.8272H17.8278H17.8284H17.829H17.8296H17.8302H17.8308H17.8314H17.832H17.8326H17.8332H17.8338H17.8344H17.835H17.8356H17.8362H17.8368H17.8374H17.838H17.8387H17.8393H17.8399H17.8405H17.8411H17.8418H17.8424H17.843H17.8437H17.8443H17.8449H17.8456H17.8462H17.8469H17.8475H17.8481H17.8488H17.8494H17.8501H17.8508H17.8514H17.8521H17.8527H17.8534H17.8541H17.8547H17.8554H17.8561H17.8568H17.8574H17.8581H17.8588H17.8595H17.8602H17.8609H17.8616H17.8623H17.863H17.8637H17.8644H17.8651H17.8658H17.8665H17.8672H17.868H17.8687H17.8694H17.8701H17.8709H17.8716H17.8724H17.8731H17.8738H17.8746H17.8753H17.8761H17.8769H17.8776H17.8784H17.8792H17.8799H17.8807H17.8815H17.8823H17.883H17.8838H17.8846H17.8854H17.8862H17.887H17.8878H17.8886H17.8895H17.8903H17.8911H17.8919H17.8928H17.8936H17.8944H17.8953H17.8961H17.897H17.8978H17.8987H17.8995H17.9004H17.9013H17.9021H17.903H17.9039H17.9048H17.9057H17.9066H17.9075H17.9084H17.9093H17.9102H17.9111H17.912H17.913H17.9139H17.9148H17.9158H17.9167H17.9176H17.9186H17.9196H17.9205H17.9215H17.9224H17.9234H17.9244H17.9254H17.9264H17.9274H17.9284H17.9294H17.9304H17.9314H17.9324H17.9334H17.9345H17.9355H17.9365H17.9376H17.9386H17.9397H17.9407H17.9418H17.9429H17.944H17.945H17.9461H17.9472H17.9483H17.9494H17.9505H17.9516H17.9527H17.9539H17.955H17.9561H17.9573H17.9584H17.9596H17.9607H17.9619H17.9631H17.9642H17.9654H17.9666H17.9678H17.969H17.9702H17.9714H17.9726H17.9738H17.9751H17.9763H17.9775H17.9788H17.98H17.9813H17.9826H17.9838H17.9851H17.9864H17.9877H17.989H17.9903H17.9916H17.9929H17.9942H17.9955H17.9969H17.9982H17.9996H18.0009H18.4009V13.7059V1.47059C18.4009 0.989758 18.0111 0.6 17.5303 0.6H5.29502H4.89519L4.89502 0.999836L4.89494 1.29826L4.89493 1.39188L4.89493 1.41766L4.89493 1.42441L4.89493 1.42613V1.42657Z" fill="white" stroke="white" stroke-width="0.8"/>
</g>
<defs>
<clipPath id="clip0_1556_60499">
<rect width="19" height="19" fill="white"/>
</clipPath>
</defs>
</svg>
