<svg width="24" height="24" viewBox="0 0 24 24" fill="none" xmlns="http://www.w3.org/2000/svg">
<path d="M5.6008 23.9999C1.68824 24.0249 -0.356164 19.1899 2.44999 16.3952C2.44994 16.3952 14.7438 4.10137 14.7438 4.10137C16.5214 2.32599 19.5784 3.58842 19.5804 6.10481C19.5804 6.86159 19.2857 7.57305 18.7506 8.10819L8.58771 18.2711C8.38649 18.4723 8.06043 18.4723 7.85921 18.2711C7.65804 18.07 7.65804 17.7438 7.85921 17.5426L18.0221 7.37974C18.3626 7.03921 18.5502 6.58643 18.5502 6.10481C18.5484 4.50573 16.6063 3.69842 15.4722 4.82992L3.17835 17.1237C0.0998915 20.464 4.67221 25.0509 8.02311 21.9684C8.02306 21.9684 20.317 9.67463 20.317 9.67463C22.2853 7.70622 22.2853 4.50344 20.317 2.53508C18.3486 0.566716 15.1458 0.566622 13.1774 2.53503L3.0145 12.6979C2.81328 12.8991 2.48722 12.8991 2.286 12.6979C2.08483 12.4968 2.08483 12.1706 2.286 11.9694L12.4489 1.80653C18.3839 -3.65837 26.5119 4.4641 21.0454 10.4031C21.0455 10.4031 8.75156 22.6969 8.75156 22.6969C7.88291 23.5655 6.74185 23.9999 5.6008 23.9999Z" fill="#ffffff"/>
</svg>
