<svg width="14" height="14" viewBox="0 0 14 14" fill="none" xmlns="http://www.w3.org/2000/svg">
<g clip-path="url(#clip0_1540_58925)">
<path d="M10.5305 2.49147H9.98961V1.95944C9.98961 1.34682 9.48536 0.85 8.87016 0.85H3.46945C2.85426 0.85 2.35 1.34682 2.35 1.95944V9.64732C2.35 10.2599 2.85426 10.7568 3.46945 10.7568H4.01038V11.2906C4.01038 11.9032 4.51464 12.4 5.12984 12.4H10.5305C11.1457 12.4 11.65 11.9032 11.65 11.2906V3.60091C11.65 2.98847 11.1477 2.49147 10.5305 2.49147ZM3.1624 9.64555V1.95944C3.1624 1.79284 3.29909 1.65534 3.47124 1.65534H8.87195C9.0441 1.65534 9.18079 1.79284 9.18079 1.95944V9.64732C9.18079 9.81392 9.0441 9.95142 8.87195 9.95142H3.47013C3.2993 9.95002 3.1624 9.81221 3.1624 9.64555ZM10.8394 11.2888C10.8394 11.4554 10.7027 11.5929 10.5305 11.5929H5.12984C4.95769 11.5929 4.821 11.4554 4.821 11.2888V10.755H8.87016C9.48536 10.755 9.98961 10.2582 9.98961 9.64555V3.29681H10.5305C10.7027 3.29681 10.8394 3.43431 10.8394 3.60091V11.2888Z" fill="white" stroke="white" stroke-width="0.3"/>
</g>
<defs>
<clipPath id="clip0_1540_58925">
<rect width="13.5" height="13.5" fill="white" transform="translate(0.25 0.25)"/>
</clipPath>
</defs>
</svg>
