<svg width="12" height="12" viewBox="0 0 12 12" fill="none" xmlns="http://www.w3.org/2000/svg">
<g clip-path="url(#clip0_2131_31057)">
<path d="M3.42807 6.90461C3.60649 7.08332 3.84194 7.19379 4.09342 7.21678C4.331 7.23851 4.56866 7.18086 4.76948 7.05351L5.06982 7.35386C4.9421 7.55486 4.88419 7.79286 4.90585 8.03081C4.92877 8.28268 5.03938 8.51851 5.21839 8.69717L6.21352 9.69193C6.2136 9.69201 6.21368 9.69209 6.21376 9.69217C6.31373 9.79472 6.43305 9.8764 6.56482 9.93249C6.6967 9.98863 6.83841 10.018 6.98173 10.019C7.12505 10.0199 7.26713 9.99234 7.39972 9.93793C7.53232 9.88351 7.65278 9.8033 7.75413 9.70196C7.85547 9.60061 7.93568 9.48014 7.9901 9.34755C8.04452 9.21496 8.07206 9.07288 8.07113 8.92955C8.07019 8.78623 8.0408 8.64452 7.98466 8.51265C7.92858 8.3809 7.84691 8.26159 7.74439 8.16163C7.74429 8.16153 7.74419 8.16144 7.7441 8.16135L6.75011 7.16473L6.75012 7.16471L6.74915 7.16379C6.56758 6.99124 6.33304 6.8851 6.08358 6.86258C5.84767 6.84128 5.61151 6.89594 5.40934 7.01799L5.10684 6.7158C5.23428 6.51505 5.29203 6.27741 5.27037 6.03982C5.24745 5.78833 5.13702 5.55286 4.95831 5.37443L4.92299 5.40975L4.95828 5.3744L3.96306 4.37918L3.96307 4.37917L3.96223 4.37837C3.75628 4.18177 3.4825 4.07207 3.19777 4.07207C2.91304 4.07207 2.63926 4.18177 2.43331 4.37837L2.4333 4.37836L2.43244 4.37922C2.22981 4.58228 2.11602 4.85742 2.11602 5.14429C2.11602 5.43115 2.22981 5.70629 2.43244 5.90935L2.43248 5.9094L3.42807 6.90461ZM3.42807 6.90461L3.46346 6.86929L3.42811 6.90465L3.42807 6.90461ZM4.02617 6.30608L4.4153 6.69654C4.31669 6.73418 4.20978 6.74637 4.10454 6.73142C3.97641 6.71322 3.8571 6.6557 3.76307 6.56681L2.76793 5.57205L2.76794 5.57204L2.76715 5.57128C2.70869 5.51535 2.662 5.44831 2.62981 5.37409C2.59762 5.29987 2.58058 5.21996 2.57969 5.13907C2.57881 5.05817 2.59409 4.97791 2.62465 4.903C2.65521 4.8281 2.70042 4.76005 2.75764 4.70285C2.81486 4.64566 2.88292 4.60047 2.95785 4.56994C3.03277 4.53942 3.11303 4.52416 3.19393 4.52508C3.27482 4.526 3.35472 4.54307 3.42893 4.57529C3.50314 4.60751 3.57016 4.65423 3.62607 4.71271L3.62606 4.71272L3.62685 4.71352L4.6221 5.70877L4.62239 5.70905C4.71545 5.80064 4.77598 5.92018 4.79473 6.04941C4.81022 6.15622 4.79647 6.2648 4.75554 6.36378L4.36206 5.9703L4.36207 5.9703L4.36144 5.9697C4.31665 5.92643 4.25666 5.90249 4.19438 5.90304C4.13211 5.90358 4.07254 5.92855 4.02851 5.97259C3.98448 6.01662 3.9595 6.07619 3.95896 6.13846C3.95842 6.20074 3.98236 6.26073 4.02562 6.30552L4.02561 6.30553L4.02617 6.30608ZM5.38283 8.01895C5.36734 7.91211 5.38106 7.8035 5.42192 7.70446L6.01448 8.29702L6.01448 8.29702C6.05902 8.34155 6.11942 8.36656 6.18239 8.36656C6.24537 8.36656 6.30577 8.34155 6.35031 8.29702L6.35032 8.29701C6.39484 8.25247 6.41985 8.19207 6.41985 8.1291C6.41985 8.06612 6.39484 8.00572 6.35032 7.96118L6.35031 7.96118L5.7578 7.36867C5.85678 7.32793 5.96529 7.31428 6.07203 7.32977C6.20123 7.34851 6.32077 7.40891 6.41251 7.50179L6.41272 7.50201L7.40797 8.49763L7.40798 8.49764C7.52163 8.6113 7.58559 8.76538 7.58585 8.92612C7.58611 9.08664 7.52282 9.24072 7.40982 9.35471C7.29402 9.46506 7.14018 9.52662 6.98021 9.52662C6.82019 9.52662 6.66633 9.46503 6.55052 9.35463L5.55531 8.3598L5.55507 8.35956C5.46206 8.26784 5.40157 8.14823 5.38283 8.01895Z" fill="white" stroke="white" stroke-width="0.1"/>
<path d="M11.4181 3.0044L11.4181 3.00444C11.4402 3.02654 11.4577 3.05276 11.4696 3.08161C11.4815 3.11046 11.4876 3.14138 11.4875 3.17259M11.4181 3.0044L11.4375 3.1725M11.4181 3.0044L8.99561 0.581895L8.99556 0.58185C8.97346 0.55981 8.94724 0.54234 8.91839 0.53044C8.88954 0.518541 8.85862 0.512445 8.82741 0.5125M11.4181 3.0044L8.82741 0.5125M11.4875 3.17259L11.4375 3.1725M11.4875 3.17259V3.1725H11.4375M11.4875 3.17259V8.48625V8.48632C11.4871 8.77394 11.3726 9.04965 11.1693 9.25302C10.9659 9.4564 10.6902 9.57083 10.4026 9.57125H10.4025H9.6125M11.4375 3.1725V8.48625C11.4371 8.76063 11.3279 9.02365 11.1339 9.21767C10.9399 9.41168 10.6769 9.52085 10.4025 9.52125H9.6125V9.57125M9.6125 9.57125V10.4025V10.4026C9.61219 10.6902 9.49778 10.966 9.29438 11.1694C9.09098 11.3728 8.8152 11.4872 8.52755 11.4875H8.5275H1.5975H1.59745C1.3098 11.4872 1.03402 11.3728 0.830618 11.1694C0.627219 10.966 0.512812 10.6902 0.5125 10.4026L0.5125 10.4025L0.5125 3.51375V3.51368C0.512916 3.22606 0.627354 2.95035 0.830727 2.74698C1.0341 2.5436 1.30981 2.42917 1.59743 2.42875L1.5975 2.42875H2.3875M9.6125 9.57125H9.5625V10.4025C9.5622 10.6769 9.45306 10.94 9.25903 11.134C9.06499 11.3281 8.80191 11.4372 8.5275 11.4375H1.5975C1.32309 11.4372 1.06001 11.3281 0.865973 11.134C0.671938 10.94 0.562798 10.6769 0.5625 10.4025V3.51375C0.562897 3.23937 0.672068 2.97635 0.866083 2.78233C1.0601 2.58832 1.32312 2.47915 1.5975 2.47875H2.3875V2.42875M8.8275 0.5625H3.4725M8.8275 0.5625C8.85214 0.562456 8.87655 0.567269 8.89932 0.576663C8.9221 0.586058 8.94281 0.59985 8.96025 0.61725L3.4725 0.5625M8.8275 0.5625V0.5125L8.82741 0.5125M8.8275 0.5625L8.82741 0.5125M3.4725 0.5625C3.19809 0.562798 2.93501 0.671938 2.74097 0.865974C2.54694 1.06001 2.4378 1.32309 2.4375 1.5975V2.42875M3.4725 0.5625L2.4375 2.42875M2.3875 2.42875H2.4375M2.3875 2.42875H2.4375M9.6125 9.09625H10.4024C10.5642 9.09607 10.7192 9.03173 10.8336 8.91737C10.948 8.803 11.0123 8.64793 11.0125 8.48619V3.78575H8.82675C8.76376 3.78575 8.70335 3.76073 8.65881 3.71619C8.61427 3.67165 8.58925 3.61124 8.58925 3.54825V1.125V1.12461C8.58963 1.07619 8.60479 1.02903 8.63273 0.989467C8.63319 0.988809 8.63366 0.988153 8.63413 0.9875L3.47256 0.9875C3.31082 0.987684 3.15575 1.05202 3.04138 1.16638C2.92702 1.28075 2.86268 1.43582 2.8625 1.59756V2.42875H6.9525H6.95974L6.95967 2.42927C6.96879 2.43059 6.97783 2.43242 6.98674 2.43477C6.99545 2.43588 7.00406 2.43768 7.01249 2.44013C7.01307 2.44029 7.01364 2.44046 7.01421 2.44064L6.99975 2.4885L9.6125 9.09625ZM9.6125 9.09625V5.08875H9.61293L9.61208 5.08225C9.61088 5.0731 9.60909 5.06403 9.60672 5.05511C9.60543 5.04609 9.60358 5.03716 9.6012 5.02836M9.6125 9.09625L9.6012 5.02836M9.6012 5.02836C9.60127 5.02865 9.60134 5.02895 9.60141 5.02924L9.55275 5.04075L9.60096 5.02749C9.60104 5.02778 9.60112 5.02807 9.6012 5.02836ZM11.0125 3.31075H9.06425V1.32259L11.0125 3.27084V3.31075ZM9.1375 10.4024C9.13732 10.5642 9.07298 10.7192 8.95862 10.8336C8.84425 10.948 8.68918 11.0123 8.52744 11.0125H1.59756C1.43582 11.0123 1.28075 10.948 1.16638 10.8336C1.05202 10.7192 0.987683 10.5642 0.9875 10.4024V3.51381C0.9875 3.5138 0.9875 3.51379 0.9875 3.51378C0.98769 3.35205 1.05202 3.197 1.16638 3.08263C1.28075 2.96827 1.43582 2.90393 1.59756 2.90375H6.715V5.08875C6.715 5.15174 6.74002 5.21215 6.78456 5.25669C6.8291 5.30123 6.88951 5.32625 6.9525 5.32625H9.1375V10.4024ZM7.19 4.85125V3.23959L8.80166 4.85125H7.19Z" fill="white" stroke="white" stroke-width="0.1"/>
</g>
<defs>
<clipPath id="clip0_2131_31057">
<rect width="12" height="12" fill="white"/>
</clipPath>
</defs>
</svg>
