<svg width="21" height="21" viewBox="0 0 21 21" fill="none" xmlns="http://www.w3.org/2000/svg">
<g clip-path="url(#clip0_1569_61302)">
<path d="M17.9703 20.3447C17.9705 19.0314 17.9706 18.1664 17.9707 17.6154C17.971 17.6151 17.9712 17.615 17.9712 17.615L17.9712 17.6148L17.9712 17.6147L17.9712 17.6144L17.9712 17.6121L17.9712 17.6045L17.9712 17.5438L17.9712 17.2268L17.9711 12.2215H18.7736V20.3447H17.9703ZM11.1064 12.2215L11.1064 17.2663L11.1064 17.5827V17.642V17.6475V17.6507V17.6509V17.6511V17.6512C11.1064 17.6512 11.1064 17.6512 11.1065 17.6513L11.1066 20.3447H10.3034V12.2215H11.1064ZM2.47816 9.41067C2.03031 9.41067 1.66621 9.7748 1.66621 10.2227V11.4095C1.66621 11.8573 2.03032 12.2215 2.47816 12.2215H2.51465V20.5775C2.51465 20.8988 2.77591 21.1597 3.09703 21.1597H4.36551C4.68663 21.1597 4.94789 20.8988 4.94789 20.5775V12.2215H9.48844V20.5775C9.48844 20.8988 9.7497 21.1597 10.0708 21.1597H11.3395C11.6608 21.1597 11.9216 20.8986 11.9216 20.5775V18.5872H17.1554V20.5775C17.1554 20.8988 17.4167 21.1597 17.7378 21.1597H19.0064C19.3277 21.1597 19.5886 20.8986 19.5886 20.5775V12.2187C20.0052 12.1845 20.3335 11.8348 20.3335 11.4095V10.2227C20.3335 9.77476 19.9694 9.41067 19.5215 9.41067H15.7745C15.577 9.19658 15.4635 8.98219 15.3992 8.79618H18.1791C18.8923 8.79618 19.4721 8.21585 19.4721 7.50239V2.13317C19.4721 1.42008 18.8922 0.840283 18.1791 0.840283H9.22922C8.51617 0.840283 7.93621 1.42007 7.93621 2.13317V7.50239C7.93621 8.21584 8.51598 8.79618 9.22922 8.79618H12.0093C11.945 8.98216 11.8315 9.19653 11.634 9.41067H2.47816ZM4.13281 20.3447H3.32961V12.2215H4.13285L4.13281 20.3447ZM17.1553 17.7722H11.9216V15.4043H17.1553L17.1553 17.7722ZM17.1553 14.5891H11.9216V12.2215H17.1553L17.1553 14.5891ZM9.22922 7.98122C8.96605 7.98122 8.75121 7.76643 8.75121 7.50239V2.13317C8.75121 1.8699 8.96579 1.65528 9.22922 1.65528H18.179C18.4425 1.65528 18.657 1.8699 18.657 2.13317V7.50239C18.657 7.76643 18.4422 7.98122 18.179 7.98122H18.1595H18.1399H18.1203H18.1007H18.0811H18.0615H18.0419H18.0223H18.0026H17.983H17.9633H17.9436H17.9239H17.9042H17.8845H17.8648H17.8451H17.8253H17.8056H17.7858H17.766H17.7463H17.7265H17.7067H17.6869H17.6671H17.6472H17.6274H17.6076H17.5877H17.5679H17.548H17.5281H17.5082H17.4883H17.4684H17.4485H17.4286H17.4087H17.3888H17.3688H17.3489H17.329H17.309H17.289H17.2691H17.2491H17.2291H17.2091H17.1891H17.1691H17.1491H17.1291H17.1091H17.0891H17.069H17.049H17.029H17.0089H16.9889H16.9688H16.9487H16.9287H16.9086H16.8885H16.8685H16.8484H16.8283H16.8082H16.7881H16.768H16.7479H16.7278H16.7077H16.6876H16.6675H16.6473H16.6272H16.6071H16.587H16.5668H16.5467H16.5266H16.5064H16.4863H16.4662H16.446H16.4259H16.4057H16.3856H16.3654H16.3453H16.3252H16.305H16.2848H16.2647H16.2445H16.2244H16.2042H16.1841H16.1639H16.1438H16.1236H16.1035H16.0833H16.0632H16.043H16.0228H16.0027H15.9825H15.9624H15.9422H15.9221H15.9019H15.8818H15.8617H15.8415H15.8214H15.8012H15.7811H15.761H15.7408H15.7207H15.7006H15.6805H15.6603H15.6402H15.6201H15.6H15.5799H15.5598H15.5397H15.5196H15.4995H15.4794H15.4593H15.4392H15.4191H15.3991H15.379H15.3589H15.3389H15.3188H15.2988H15.2787H15.2587H15.2386H15.2186H15.1986H15.1785H15.1585H15.1385H15.1185H15.0985H15.0785H15.0585H15.0386H15.0186H14.9986H14.9787H14.9587H14.9388H14.9188H14.8989H14.879H14.8591H14.8392H14.8193H14.7994H14.7795H14.7596H14.7397H14.7199H14.7H14.6802H14.6603H14.6405H14.6207H14.6009H14.5811H14.5613H14.5415H14.5217H14.502H14.4822H14.4625H14.4427H14.423H14.4033H14.3836H14.3639H14.3442H14.3246H14.3049H14.2852H14.2656H14.246H14.2264H14.2068H14.1872H14.1676H14.148H14.1284H14.1089H14.0894H14.0698H14.0503H14.0308H14.0113H13.9919H13.9724H13.953H13.9335H13.9141H13.8947H13.8753H13.8559H13.8365H13.8172H13.7979H13.7785H13.7592H13.7399H13.7206H13.7014H13.6821H13.6629H13.6436H13.6244H13.6052H13.586H13.5669H13.5477H13.5286H13.5095H13.4903H13.4713H13.4522H13.4331H13.4141H13.3951H13.376H13.3571H13.3381H13.3191H13.3002H13.2813H13.2623H13.2434H13.2246H13.2057H13.1869H13.1681H13.1493H13.1305H13.1117H13.0929H13.0742H13.0555H13.0368H13.0181H12.9995H12.9808H12.9622H12.9436H12.925H12.9065H12.8879H12.8694H12.8509H12.8324H12.8139H12.7955H12.7771H12.7587H12.7403H12.7219H12.7036H12.6852H12.6669H12.6487H12.6304H12.6122H12.5939H12.5757H12.5576H12.5394H12.5213H12.5032H12.4851H12.467H12.449H12.4309H12.4129H12.395H12.377H12.3591H12.3412H12.3233H12.3054H12.2876H12.2698H12.252H12.2342H12.2165H12.1987H12.181H12.1634H12.1457H12.1281H12.1105H12.0929H12.0754H12.0578H12.0403H12.0229H12.0054H11.988H11.9706H11.9532H11.9359H11.9185H11.9012H11.884H11.8667H11.8495H11.8323H11.8151H11.798H11.7809H11.7638H11.7467H11.7297H11.7127H11.6957H11.6788H11.6618H11.6449H11.6281H11.6112H11.5944H11.5776H11.5609H11.5441H11.5274H11.5108H11.4941H11.4775H11.4609H11.4444H11.4278H11.4113H11.3949H11.3784H11.362H11.3456H11.3293H11.313H11.2967H11.2804H11.2642H11.248H11.2318H11.2157H11.1996H11.1835H11.1674H11.1514H11.1354H11.1195H11.1036H11.0877H11.0718H11.056H11.0402H11.0244H11.0087H10.993H10.9773H10.9617H10.9461H10.9305H10.915H10.8995H10.884H10.8686H10.8532H10.8378H10.8225H10.8072H10.7919H10.7767H10.7615H10.7463H10.7312H10.7161H10.701H10.686H10.671H10.656H10.6411H10.6262H10.6114H10.5966H10.5818H10.567H10.5523H10.5376H10.523H10.5084H10.4938H10.4793H10.4648H10.4503H10.4359H10.4215H10.4072H10.3929H10.3786H10.3644H10.3502H10.336H10.3219H10.3078H10.2937H10.2797H10.2657H10.2518H10.2379H10.224H10.2102H10.1964H10.1827H10.169H10.1553H10.1417H10.1281H10.1146H10.1011H10.0876H10.0742H10.0608H10.0474H10.0341H10.0208H10.0076H9.99441H9.98126H9.96815H9.95509H9.94206H9.92907H9.91613H9.90322H9.89036H9.87754H9.86476H9.85202H9.83932H9.82667H9.81406H9.80149H9.78896H9.77647H9.76403H9.75163H9.73927H9.72695H9.71468H9.70245H9.69027H9.67812H9.66602H9.65397H9.64195H9.62998H9.61806H9.60618H9.59434H9.58255H9.5708H9.5591H9.54744H9.53582H9.52425H9.51273H9.50125H9.48981H9.47842H9.46708H9.45578H9.44452H9.43332H9.42216H9.41104H9.39997H9.38895H9.37797H9.36704H9.35616H9.34532H9.33453H9.32378H9.31309H9.30244H9.29183H9.28128H9.27077H9.26031H9.2499H9.23954H9.22922ZM14.7732 9.40063H12.6352C12.7484 9.18415 12.8159 8.97725 12.8552 8.79618H14.5533C14.5926 8.97725 14.66 9.18415 14.7732 9.40063ZM2.47819 11.4095L2.47816 11.6065L2.47813 11.4095V11.4065C2.47814 11.4065 2.47816 11.4065 2.47819 11.4065L2.47819 11.4095ZM2.48231 11.4065H2.48117V10.2257H19.5184V11.4065H19.5178H19.516H19.5137H19.5111H19.5081H19.5047H19.501H19.4968H19.4923H19.4874H19.4822H19.4766H19.4706H19.4642H19.4575H19.4505H19.443H19.4352H19.4271H19.4186H19.4097H19.4005H19.3909H19.381H19.3708H19.3601H19.3492H19.3379H19.3262H19.3143H19.3019H19.2893H19.2763H19.2629H19.2493H19.2353H19.221H19.2063H19.1913H19.176H19.1604H19.1444H19.1281H19.1115H19.0946H19.0774H19.0599H19.042H19.0238H19.0053H18.9865H18.9675H18.948H18.9283H18.9083H18.888H18.8674H18.8465H18.8253H18.8038H18.782H18.7599H18.7375H18.7149H18.6919H18.6687H18.6451H18.6213H18.5973H18.5729H18.5482H18.5233H18.4981H18.4726H18.4469H18.4209H18.3946H18.368H18.3412H18.3141H18.2868H18.2592H18.2313H18.2032H18.1748H18.1462H18.1173H18.0881H18.0587H18.0291H17.9992H17.969H17.9387H17.908H17.8772H17.846H17.8147H17.7831H17.7513H17.7192H17.6869H17.6544H17.6217H17.5887H17.5555H17.5221H17.4884H17.4545H17.4204H17.3861H17.3516H17.3168H17.2819H17.2467H17.2113H17.1757H17.1399H17.1039H17.0677H17.0313H16.9946H16.9578H16.9208H16.8836H16.8462H16.8085H16.7707H16.7327H16.6946H16.6562H16.6176H16.5789H16.5399H16.5008H16.4615H16.4221H16.3824H16.3426H16.3026H16.2624H16.2221H16.1816H16.1409H16.1H16.059H16.0178H15.9765H15.935H15.8933H15.8515H15.8095H15.7674H15.7251H15.6826H15.64H15.5973H15.5544H15.5114H15.4682H15.4249H15.3814H15.3378H15.2941H15.2502H15.2062H15.1621H15.1178H15.0734H15.0288H14.9842H14.9394H14.8945H14.8494H14.8043H14.759H14.7136H14.6681H14.6225H14.5767H14.5309H14.4849H14.4388H14.3927H14.3464H14.3H14.2535H14.2069H14.1602H14.1134H14.0665H14.0195H13.9724H13.9253H13.878H13.8306H13.7832H13.7357H13.688H13.6404H13.5926H13.5447H13.4968H13.4488H13.4007H13.3525H13.3043H13.256H13.2076H13.1591H13.1106H13.062H13.0134H12.9647H12.9159H12.8671H12.8182H12.7693H12.7203H12.6713H12.6222H12.573H12.5238H12.4746H12.4253H12.376H12.3266H12.2772H12.2277H12.1782H12.1287H12.0792H12.0296H11.98H11.9303H11.8806H11.8309H11.7812H11.7314H11.6816H11.6318H11.582H11.5322H11.4823H11.4325H11.3826H11.3327H11.2828H11.2329H11.1829H11.133H11.0831H11.0332H10.9832H10.9333H10.8834H10.8334H10.7835H10.7336H10.6837H10.6338H10.5839H10.534H10.4842H10.4343H10.3845H10.3347H10.2849H10.2351H10.1854H10.1357H10.086H10.0363H9.98669H9.93709H9.88752H9.83798H9.78848H9.73902H9.68959H9.64021H9.59086H9.54156H9.49231H9.4431H9.39394H9.34483H9.29577H9.24676H9.1978H9.1489H9.10006H9.05128H9.00255H8.95389H8.90529H8.85675H8.80828H8.75988H8.71155H8.66329H8.6151H8.56698H8.51894H8.47098H8.42309H8.37528H8.32756H8.27992H8.23236H8.18489H8.1375H8.09021H8.043H7.99589H7.94887H7.90194H7.85511H7.80838H7.76175H7.71522H7.6688H7.62247H7.57625H7.53014H7.48414H7.43825H7.39247H7.34681H7.30125H7.25582H7.2105H7.1653H7.12023H7.07527H7.03044H6.98574H6.94116H6.89671H6.85239H6.8082H6.76414H6.72022H6.67644H6.63279H6.58929H6.54592H6.5027H6.45961H6.41668H6.37389H6.33125H6.28876H6.24642H6.20423H6.1622H6.12033H6.07861H6.03705H5.99565H5.95441H5.91334H5.87243H5.83169H5.79112H5.75071H5.71048H5.67042H5.63053H5.59082H5.55129H5.51194H5.47276H5.43377H5.39497H5.35634H5.3179H5.27966H5.2416H5.20373H5.16605H5.12857H5.09128H5.05419H5.0173H4.98061H4.94412H4.90784H4.87176H4.83588H4.80022H4.76476H4.72951H4.69448H4.65966H4.62505H4.59066H4.55649H4.52254H4.48881H4.45531H4.42203H4.38897H4.35615H4.32355H4.29118H4.25904H4.22714H4.19548H4.16405H4.13285H4.1019H4.07119H4.04072H4.0105H3.98052H3.95079H3.92131H3.89208H3.8631H3.83438H3.80591H3.77769H3.74974H3.72204H3.6946H3.66743H3.64052H3.61388H3.5875H3.5614H3.53556H3.51H3.4847H3.45969H3.43495H3.41049H3.3863H3.3624H3.33878H3.31544H3.29239H3.26963H3.24716H3.22497H3.20308H3.18148H3.16017H3.13916H3.11845H3.09804H3.07793H3.05812H3.03861H3.01941H3.00052H2.98193H2.96366H2.94569H2.92804H2.9107H2.89368H2.87698H2.8606H2.84453H2.82879H2.81337H2.79828H2.78351H2.76907H2.75497H2.74119H2.72774H2.71463H2.70186H2.68942H2.67732H2.66557H2.65415H2.64308H2.63235H2.62197H2.61193H2.60225H2.59292H2.58394H2.57531H2.56704H2.55912H2.55157H2.54437H2.53754H2.53107H2.52497H2.51923H2.51385H2.50885H2.50422H2.49996H2.49608H2.49257H2.48944H2.48668H2.48431H2.48231Z" fill="#333333" stroke="#333333" stroke-width="0.4"/>
</g>
<defs>
<clipPath id="clip0_1569_61302">
<rect width="21" height="21" fill="white"/>
</clipPath>
</defs>
</svg>
