<svg width="16" height="16" viewBox="0 0 16 16" fill="none" xmlns="http://www.w3.org/2000/svg">
<path d="M15.3764 3.4251C14.7988 2.73855 13.7325 2.4585 11.6961 2.4585H4.30379C2.22075 2.4585 1.13636 2.75661 0.560981 3.48755C0 4.20023 0 5.25029 0 6.70361V9.47362C0 12.2892 0.6656 13.7187 4.30379 13.7187H11.6961C13.4621 13.7187 14.4407 13.4716 15.0738 12.8657C15.723 12.2444 16 11.2299 16 9.47362V6.70361C16 5.17096 15.9566 4.1147 15.3764 3.4251ZM10.2721 8.47104L6.91525 10.2254C6.84021 10.2646 6.75814 10.2841 6.67618 10.2841C6.58338 10.2841 6.49079 10.2591 6.40877 10.2095C6.25435 10.1159 6.16005 9.94851 6.16005 9.76797V6.27047C6.16005 6.09024 6.25409 5.92301 6.40821 5.82939C6.56237 5.73576 6.75412 5.72936 6.91406 5.81246L10.2709 7.55553C10.4417 7.6442 10.5489 7.82051 10.5492 8.01287C10.5494 8.20539 10.4426 8.38195 10.2721 8.47104Z" fill="#1C48A0"/>
</svg>
